<svg width="44" height="40" viewBox="0 0 44 40" fill="none" xmlns="http://www.w3.org/2000/svg">
<path d="M3.59718 12.4998L4.45522 9.56935L7.19985 8.83317L4.45522 8.09224L3.59718 5.1665L2.74463 8.09224L0 8.83317L2.74463 9.56935L3.59718 12.4998Z" fill="#FDB932"/>
<path d="M9.602 8.50016L10.173 6.63722L11.9991 6.16683L10.173 5.69644L9.602 3.8335L9.03098 5.69644L7.19922 6.16683L9.03098 6.63722L9.602 8.50016Z" fill="#FDB932"/>
<path d="M4.79751 0.5L4.23216 2.36014L2.40039 2.831L4.23216 3.30186L4.79751 5.16667L5.36853 3.30186L7.20029 2.831L5.36853 2.36014L4.79751 0.5Z" fill="#FDB932"/>
<g clip-path="url(#clip0_164_7685)">
<path d="M27.9999 38.717L43.9999 16.6355L37.8885 8.2832H18.1114L12 16.6355L27.9999 38.717Z" fill="#FFDE9D"/>
<path d="M18.1116 8.2832L22.6664 16.6358H12L18.1116 8.2832Z" fill="#FEEEB3"/>
<path d="M37.8889 8.2832L33.3333 16.6358L28 8.2832H37.8889Z" fill="#FEEEB3"/>
<path d="M33.3325 16.6357L27.9993 38.7167L22.666 16.6357H33.3325Z" fill="#FEEEB3"/>
<path d="M37.8877 8.2832L43.9985 16.6358H33.332L37.8877 8.2832Z" fill="#FDB932"/>
<path d="M27.9993 8.2832L33.3325 16.6358H22.666L27.9993 8.2832Z" fill="#FDB932"/>
<path d="M22.6664 16.6357L27.9997 38.7167L12 16.6357H22.6664Z" fill="#FDB932"/>
</g>
<defs>
<clipPath id="clip0_164_7685">
<rect width="32" height="32" fill="white" transform="translate(12 7.5)"/>
</clipPath>
</defs>
</svg>
