<svg aria-hidden="true" style="position: absolute; width: 0; height: 0; overflow: hidden;" version="1.1"
  xmlns="http://www.w3.org/2000/svg" xmlns:xlink="http://www.w3.org/1999/xlink">
  <defs>
    <symbol id="icon-cross" viewBox="0 0 32 32">
      <path fill="none" stroke="#7f3a6a" style="stroke: var(--color1, #7f3a6a)" stroke-linejoin="bevel"
        stroke-linecap="round" stroke-miterlimit="4" stroke-width="4" d="M4 28.667l24.667-24.667"></path>
      <path fill="none" stroke="#7f3a6a" style="stroke: var(--color1, #7f3a6a)" stroke-linejoin="bevel"
        stroke-linecap="round" stroke-miterlimit="4" stroke-width="4" d="M4 4l24.667 24.667"></path>
    </symbol>
    <symbol id="icon-instagram" viewBox="0 0 32 32">
      <path fill="#7f3a6a" style="fill: var(--color1, #7f3a6a)"
        d="M16 0c-3.164 0-6.258 0.938-8.889 2.696s-4.682 4.257-5.893 7.181c-1.211 2.924-1.528 6.141-0.91 9.244s2.141 5.955 4.379 8.192c2.238 2.238 5.089 3.762 8.192 4.379s6.321 0.3 9.244-0.91c2.924-1.211 5.422-3.262 7.181-5.893s2.696-5.725 2.696-8.889c0-4.243-1.686-8.313-4.686-11.314s-7.070-4.686-11.314-4.686z">
      </path>
      <path fill="#fff" style="fill: var(--color2, #fff)"
        d="M24.783 12.374c-0.041-0.935-0.192-1.578-0.409-2.135-0.223-0.591-0.567-1.121-1.018-1.561-0.44-0.447-0.973-0.794-1.558-1.014-0.56-0.217-1.2-0.368-2.135-0.409-0.942-0.045-1.241-0.055-3.631-0.055s-2.689 0.010-3.627 0.052c-0.935 0.041-1.578 0.193-2.135 0.409-0.591 0.223-1.121 0.567-1.561 1.018-0.447 0.44-0.794 0.973-1.014 1.558-0.217 0.56-0.368 1.2-0.409 2.135-0.045 0.942-0.055 1.241-0.055 3.631s0.010 2.689 0.052 3.627c0.041 0.935 0.193 1.578 0.409 2.135 0.223 0.591 0.571 1.121 1.018 1.561 0.44 0.447 0.973 0.794 1.558 1.014 0.56 0.217 1.2 0.368 2.135 0.409 0.939 0.041 1.238 0.052 3.627 0.052s2.689-0.010 3.627-0.052c0.935-0.041 1.578-0.192 2.135-0.409 1.183-0.457 2.118-1.392 2.575-2.575 0.216-0.56 0.368-1.2 0.409-2.135 0.041-0.939 0.052-1.238 0.052-3.627s-0.004-2.689-0.045-3.627zM23.198 19.56c-0.038 0.86-0.182 1.324-0.303 1.633-0.296 0.767-0.904 1.375-1.671 1.671-0.309 0.12-0.777 0.265-1.633 0.302-0.928 0.041-1.207 0.052-3.555 0.052s-2.63-0.010-3.555-0.052c-0.86-0.038-1.324-0.182-1.633-0.302-0.382-0.141-0.729-0.365-1.011-0.657-0.292-0.285-0.516-0.629-0.657-1.011-0.12-0.309-0.265-0.777-0.302-1.633-0.041-0.928-0.052-1.207-0.052-3.555s0.010-2.63 0.052-3.555c0.038-0.86 0.182-1.324 0.302-1.633 0.141-0.382 0.364-0.729 0.66-1.011 0.285-0.292 0.629-0.516 1.011-0.657 0.309-0.12 0.777-0.265 1.633-0.303 0.928-0.041 1.207-0.052 3.555-0.052 2.352 0 2.63 0.010 3.555 0.052 0.86 0.038 1.324 0.182 1.633 0.303 0.382 0.141 0.729 0.364 1.011 0.657 0.292 0.285 0.516 0.629 0.657 1.011 0.12 0.309 0.265 0.777 0.303 1.633 0.041 0.928 0.052 1.207 0.052 3.555s-0.010 2.623-0.052 3.552z">
      </path>
      <path fill="#fff" style="fill: var(--color2, #fff)"
        d="M16.033 11.48c-2.496 0-4.521 2.025-4.521 4.521s2.025 4.521 4.521 4.521c2.496 0 4.521-2.025 4.521-4.521s-2.025-4.521-4.521-4.521zM16.033 18.934c-1.619 0-2.933-1.313-2.933-2.933s1.314-2.933 2.933-2.933c1.619 0 2.933 1.313 2.933 2.933s-1.313 2.933-2.933 2.933z">
      </path>
      <path fill="#fff" style="fill: var(--color2, #fff)"
        d="M21.788 11.302c0 0.583-0.473 1.056-1.056 1.056s-1.055-0.473-1.055-1.056c0-0.583 0.473-1.055 1.055-1.055s1.056 0.472 1.056 1.055z">
      </path>
    </symbol>
    <symbol id="icon-linkedin" viewBox="0 0 32 32">
      <path fill="#7f3a6a" style="fill: var(--color1, #7f3a6a)"
        d="M27.636 0h-23.273c-1.157 0-2.267 0.46-3.086 1.278s-1.278 1.928-1.278 3.086v23.273c0 1.157 0.46 2.267 1.278 3.086s1.928 1.278 3.086 1.278h23.273c1.157 0 2.267-0.46 3.086-1.278s1.278-1.928 1.278-3.086v-23.273c0-1.157-0.46-2.267-1.278-3.086s-1.928-1.278-3.086-1.278z">
      </path>
      <path fill="#fff" style="fill: var(--color2, #fff)"
        d="M10.858 25.582c0.034-0.082 0.051-0.17 0.051-0.259v-12.051c0-0.179-0.071-0.351-0.197-0.478s-0.298-0.198-0.477-0.199h-2.874c-0.179 0-0.351 0.071-0.478 0.198s-0.198 0.299-0.198 0.478v12.051c-0 0.089 0.017 0.177 0.051 0.259s0.084 0.157 0.147 0.22c0.063 0.063 0.138 0.113 0.22 0.147s0.17 0.051 0.259 0.051h2.875c0.089 0 0.177-0.018 0.259-0.052s0.156-0.084 0.219-0.147c0.063-0.063 0.112-0.137 0.146-0.219z">
      </path>
      <path fill="#fff" style="fill: var(--color2, #fff)"
        d="M7.281 10.995c0.449 0.3 0.976 0.46 1.515 0.46 0.723 0 1.417-0.287 1.928-0.799s0.799-1.205 0.799-1.928c0-0.539-0.16-1.067-0.46-1.515s-0.726-0.798-1.224-1.004c-0.498-0.206-1.047-0.26-1.576-0.155s-1.015 0.365-1.396 0.746-0.641 0.867-0.746 1.396c-0.105 0.529-0.051 1.077 0.155 1.576s0.556 0.924 1.004 1.224z">
      </path>
      <path fill="#fff" style="fill: var(--color2, #fff)"
        d="M25.888 25.609c0.031-0.076 0.047-0.156 0.047-0.238l-0.004-5.825v-0.050c0-2.545 0.001-7.099-4.909-7.099-2.231 0-3.276 0.814-3.982 1.874v-1.051c0-0.165-0.066-0.323-0.182-0.44s-0.275-0.182-0.44-0.182h-2.985c-0.082 0-0.162 0.016-0.238 0.047s-0.144 0.077-0.201 0.135-0.103 0.126-0.134 0.202c-0.031 0.075-0.047 0.156-0.047 0.238v12.158c-0 0.082 0.016 0.162 0.047 0.238s0.077 0.144 0.134 0.202c0.058 0.058 0.126 0.104 0.201 0.135s0.156 0.047 0.238 0.047h2.985c0.163-0.002 0.319-0.069 0.434-0.185s0.179-0.273 0.179-0.437v-6.52c0.076-0.876 0.464-2.827 2.364-2.827 2.453 0 2.206 2.851 2.206 3.695v5.645c-0 0.082 0.016 0.163 0.047 0.238s0.077 0.144 0.135 0.202c0.058 0.058 0.126 0.104 0.202 0.135s0.157 0.047 0.238 0.047h3.091c0.082 0 0.163-0.016 0.238-0.047s0.144-0.077 0.202-0.135c0.058-0.058 0.104-0.126 0.135-0.202z">
      </path>
    </symbol>
    <symbol id="icon-facebook" viewBox="0 0 32 32">
      <path fill="#7f3a6a" style="fill: var(--color1, #7f3a6a)"
        d="M16 0c-8.822 0-16 7.178-16 16s7.178 16 16 16c8.822 0 16-7.178 16-16s-7.177-16-16-16z"></path>
      <path fill="#fff" style="fill: var(--color2, #fff)"
        d="M17.691 15.693h2.603l0.337-3.278h-2.939v-1.927c0-0.724 0.48-0.893 0.818-0.893h2.075v-3.183l-2.858-0.011c-3.171 0-3.893 2.374-3.893 3.893v2.121h-1.834v3.279h1.834v9.278h3.857v-9.278z">
      </path>
    </symbol>
    <symbol id="icon-burger" viewBox="0 0 43 32">
      <path fill="none" stroke="#7f3a6a" style="stroke: var(--color1, #7f3a6a)" stroke-linejoin="miter"
        stroke-linecap="round" stroke-miterlimit="4" stroke-width="4.8" d="M3.2 3.2h38.4"></path>
      <path fill="none" stroke="#7f3a6a" style="stroke: var(--color1, #7f3a6a)" stroke-linejoin="miter"
        stroke-linecap="round" stroke-miterlimit="4" stroke-width="4.8" d="M3.2 16h38.4"></path>
      <path fill="none" stroke="#7f3a6a" style="stroke: var(--color1, #7f3a6a)" stroke-linejoin="miter"
        stroke-linecap="round" stroke-miterlimit="4" stroke-width="4.8" d="M3.2 28.8h38.4"></path>
    </symbol>
    <symbol id="icon-logo" viewBox="0 0 129 32">
      <path fill="#803a6a" style="fill: var(--color1, #803a6a)"
        d="M120.585 31.733v-5.525l0.859 2.221-5.843-9.763h3.901l4.219 7.075h-2.259l4.237-7.075h3.584l-5.824 9.763 0.821-2.221v5.525h-3.696zM108.739 24.397h6.029v2.856h-6.029v-2.856zM109 31.733h-3.696v-13.067h10.248v2.856h-6.552v10.211zM98.979 31.733v-13.067h3.696v13.067h-3.696z">
      </path>
      <path fill="#df286a" style="fill: var(--color2, #df286a)"
        d="M88.246 28.84l-0.205-4.144 5.619-6.029h4.069l-5.6 6.067-2.053 2.147-1.829 1.96zM84.942 31.733v-13.067h3.659v13.067h-3.659zM93.715 31.733l-4.256-5.395 2.408-2.576 6.141 7.971h-4.293z">
      </path>
      <path fill="#803a6a" style="fill: var(--color1, #803a6a)"
        d="M71.125 31.733v-13.067h5.973c1.195 0 2.221 0.193 3.080 0.579 0.871 0.386 1.543 0.946 2.016 1.68 0.473 0.722 0.709 1.58 0.709 2.576 0 0.983-0.237 1.835-0.709 2.557-0.473 0.709-1.145 1.257-2.016 1.643-0.859 0.373-1.885 0.56-3.080 0.56h-3.92l1.643-1.549v5.021h-3.696zM79.207 31.733l-3.248-4.76h3.939l3.267 4.76h-3.957zM74.821 27.104l-1.643-1.699h3.696c0.771 0 1.344-0.168 1.717-0.504 0.385-0.336 0.579-0.803 0.579-1.4 0-0.61-0.193-1.083-0.579-1.419-0.373-0.336-0.946-0.504-1.717-0.504h-3.696l1.643-1.699v7.224zM54.882 31.733l5.768-13.067h3.64l5.787 13.067h-3.845l-4.518-11.256h1.456l-4.517 11.256h-3.771zM58.037 29.195l0.952-2.725h6.384l0.952 2.725h-8.288z">
      </path>
      <path fill="#eb8b27" style="fill: var(--color3, #eb8b27)"
        d="M38.64 31.733v-13.067h3.043l5.413 8.885h-1.605l5.264-8.885h3.043l0.037 13.067h-3.397l-0.037-7.896h0.579l-3.939 6.608h-1.643l-4.051-6.608h0.709v7.896h-3.416z">
      </path>
      <path fill="#000" style="fill: var(--color4, #000)" d="M25.488 12.533h4.867v19.467h-4.867z"></path>
      <path fill="#000" style="fill: var(--color4, #000)" d="M17.944 17.399h5.11v14.601h-5.11z"></path>
      <path fill="#000" style="fill: var(--color4, #000)" d="M10.644 22.266h5.11v9.734h-5.11z"></path>
      <path fill="#000" style="fill: var(--color4, #000)" d="M3.343 25.673h5.11v6.327h-5.11z"></path>
      <path fill="#803a6a" style="fill: var(--color1, #803a6a)"
        d="M26.218 11.193l-3.285-2.676 3.285-4.502-1.582-1.217 7.3-2.799-0.851 7.909-1.581-1.338-3.285 4.623z"></path>
      <path fill="#803a6a" style="fill: var(--color1, #803a6a)"
        d="M24.393 9.125c-4.503 5.11-11.073 10.707-23.727 11.559 13.725 1.071 22.347-6.611 24.943-10.585l-1.217-0.973z">
      </path>
    </symbol>
    <symbol id="icon-stroke-text" viewBox="0 0 273 32">
      <path fill="none" stroke="#fff" style="stroke: var(--color1, #fff)" stroke-linejoin="miter" stroke-linecap="butt"
        stroke-miterlimit="4" stroke-width="3.2"
        d="M9.222 28.647l-6.042-25.259h5.222l4.062 17.818 4.744-17.818h4.642l4.711 17.818 4.062-17.818h5.222l-6.041 25.259h-5.154l-5.12-17.818-5.154 17.818h-5.154z">
      </path>
      <path fill="none" stroke="#fff" style="stroke: var(--color1, #fff)" stroke-linejoin="miter" stroke-linecap="butt"
        stroke-miterlimit="4" stroke-width="3.2"
        d="M43.895 28.817c-0.546 0-1.172-0.057-1.877-0.171-0.705-0.091-1.388-0.319-2.048-0.683-0.637-0.364-1.172-0.91-1.604-1.638-0.41-0.751-0.614-1.775-0.614-3.072l-0-14.097c-0-1.115 0.17-2.048 0.512-2.799s0.797-1.343 1.365-1.775c0.569-0.432 1.195-0.74 1.877-0.922s1.354-0.273 2.014-0.273c1.707 0 3.209 0.023 4.506 0.068 1.32 0.046 2.503 0.102 3.55 0.171 1.047 0.046 2.003 0.114 2.867 0.205v4.233h-9.421c-0.705 0-1.251 0.171-1.638 0.512s-0.58 0.865-0.58 1.57v3.652l10.001 0.273v3.994l-10.001 0.273 0 3.482c0 0.592 0.091 1.058 0.273 1.399 0.205 0.319 0.466 0.546 0.785 0.683 0.341 0.114 0.694 0.171 1.058 0.171h9.523v4.233c-1.001 0.114-2.116 0.205-3.345 0.273-1.206 0.068-2.435 0.125-3.686 0.171-1.229 0.045-2.401 0.068-3.516 0.068z">
      </path>
      <path fill="none" stroke="#fff" style="stroke: var(--color1, #fff)" stroke-linejoin="miter" stroke-linecap="butt"
        stroke-miterlimit="4" stroke-width="3.2"
        d="M66.918 28.647l-0-25.259h9.933c2.503 0 4.324 0.58 5.461 1.741 1.161 1.138 1.741 2.765 1.741 4.881 0 1.001-0.148 1.889-0.444 2.662-0.273 0.751-0.671 1.377-1.195 1.877-0.524 0.478-1.149 0.808-1.877 0.99 0.546 0.137 1.069 0.353 1.57 0.649 0.523 0.296 0.99 0.694 1.399 1.195 0.432 0.501 0.762 1.115 0.99 1.843 0.25 0.705 0.375 1.525 0.375 2.458 0 1.707-0.296 3.072-0.887 4.096-0.569 1.024-1.422 1.763-2.56 2.219-1.115 0.432-2.492 0.649-4.13 0.649h-10.377zM71.969 24.107h5.188c0.592 0 1.104-0.114 1.536-0.341s0.762-0.58 0.99-1.058c0.25-0.478 0.375-1.115 0.375-1.912 0-0.66-0.125-1.217-0.375-1.673s-0.592-0.808-1.024-1.058-0.933-0.375-1.502-0.375h-5.188l0 6.417zM71.969 13.799h4.915c0.728 0 1.297-0.262 1.707-0.785 0.432-0.546 0.649-1.252 0.648-2.116 0.023-1.115-0.205-1.889-0.683-2.321s-1.058-0.649-1.741-0.649h-4.847l0 5.871z">
      </path>
      <path fill="none" stroke="#fff" style="stroke: var(--color1, #fff)" stroke-linejoin="miter" stroke-linecap="butt"
        stroke-miterlimit="4" stroke-width="3.2"
        d="M97.841 28.817c-1.388 0-2.685-0.114-3.891-0.341-1.206-0.25-2.264-0.671-3.174-1.263-0.887-0.614-1.581-1.456-2.082-2.526-0.478-1.092-0.717-2.48-0.717-4.164l-0-17.135h5.052l0 17.101c0 0.933 0.182 1.673 0.546 2.219 0.387 0.546 0.933 0.944 1.638 1.195 0.728 0.25 1.604 0.375 2.628 0.375 1.001 0 1.855-0.125 2.56-0.375 0.728-0.25 1.274-0.649 1.638-1.195 0.387-0.546 0.58-1.286 0.58-2.219l-0-17.101h5.086l0 17.135c0 1.684-0.25 3.072-0.751 4.164-0.5 1.069-1.195 1.911-2.082 2.526-0.887 0.592-1.934 1.012-3.14 1.263-1.183 0.227-2.48 0.341-3.891 0.341z">
      </path>
      <path fill="none" stroke="#fff" style="stroke: var(--color1, #fff)" stroke-linejoin="miter" stroke-linecap="butt"
        stroke-miterlimit="4" stroke-width="3.2"
        d="M117.725 28.647l-0-7.646-7.612-17.613h5.257l4.984 12.459 4.949-12.459h5.052l-7.577 17.613 0 7.646h-5.052z">
      </path>
      <path fill="none" stroke="#fff" style="stroke: var(--color1, #fff)" stroke-linejoin="miter" stroke-linecap="butt"
        stroke-miterlimit="4" stroke-width="3.2"
        d="M147.242 28.647l-0-20.719h-6.929l-0-4.54h18.944l0 4.54h-6.963l0 20.719h-5.052z"></path>
      <path fill="none" stroke="#fff" style="stroke: var(--color1, #fff)" stroke-linejoin="miter" stroke-linecap="butt"
        stroke-miterlimit="4" stroke-width="3.2"
        d="M161.984 28.647l-0-25.259h10.445c1.001 0 1.934 0.125 2.799 0.375 0.865 0.228 1.627 0.637 2.287 1.229s1.172 1.411 1.536 2.458c0.387 1.047 0.58 2.389 0.58 4.028 0 1.161-0.114 2.15-0.341 2.97s-0.535 1.49-0.922 2.014c-0.364 0.523-0.785 0.944-1.263 1.263s-0.967 0.58-1.468 0.785l4.711 10.138h-5.154l-4.062-9.353c-0.273 0-0.592 0-0.956 0-0.341-0.023-0.694-0.034-1.058-0.034s-0.728 0-1.092 0c-0.364 0-0.694-0.011-0.99-0.034l0 9.421h-5.052zM167.036 15.232h4.506c0.455 0 0.865-0.057 1.229-0.171s0.683-0.307 0.956-0.58c0.273-0.296 0.478-0.683 0.614-1.161 0.159-0.478 0.239-1.092 0.239-1.843 0-0.705-0.080-1.286-0.239-1.741-0.137-0.478-0.341-0.842-0.614-1.092-0.273-0.273-0.592-0.455-0.956-0.546-0.364-0.114-0.774-0.171-1.229-0.171h-4.506l0 7.305z">
      </path>
      <path fill="none" stroke="#fff" style="stroke: var(--color1, #fff)" stroke-linejoin="miter" stroke-linecap="butt"
        stroke-miterlimit="4" stroke-width="3.2"
        d="M181.78 28.647l7.918-25.259h6.383l7.919 25.259h-5.257l-1.604-5.291h-8.602l-1.57 5.291h-5.188zM189.733 18.816h6.212l-3.106-11.093-3.106 11.093z">
      </path>
      <path fill="none" stroke="#fff" style="stroke: var(--color1, #fff)" stroke-linejoin="miter" stroke-linecap="butt"
        stroke-miterlimit="4" stroke-width="3.2"
        d="M206.084 28.647l-0-19.49c0-1.115 0.171-2.048 0.512-2.799s0.796-1.343 1.365-1.775c0.569-0.432 1.194-0.74 1.877-0.922s1.354-0.273 2.014-0.273c0.819 0 1.833 0.011 3.038 0.034 1.229 0 2.526 0.034 3.891 0.102 1.389 0.068 2.72 0.171 3.994 0.307v4.233h-9.523c-0.706 0-1.24 0.193-1.604 0.58-0.341 0.364-0.512 0.853-0.512 1.468v4.301l10.001 0.273v3.994l-10.001 0.273 0 9.694h-5.052z">
      </path>
      <path fill="none" stroke="#fff" style="stroke: var(--color1, #fff)" stroke-linejoin="miter" stroke-linecap="butt"
        stroke-miterlimit="4" stroke-width="3.2"
        d="M225.651 28.647v-19.49c0-1.115 0.171-2.048 0.512-2.799s0.796-1.343 1.365-1.775c0.567-0.432 1.195-0.74 1.877-0.922s1.353-0.273 2.014-0.273c0.819 0 1.83 0.011 3.038 0.034 1.229 0 2.526 0.034 3.891 0.102 1.387 0.068 2.718 0.171 3.994 0.307v4.233h-9.523c-0.706 0-1.242 0.193-1.604 0.58-0.341 0.364-0.512 0.853-0.512 1.468v4.301l10.001 0.273v3.994l-10.001 0.273v9.694h-5.052z">
      </path>
      <path fill="none" stroke="#fff" style="stroke: var(--color1, #fff)" stroke-linejoin="miter" stroke-linecap="butt"
        stroke-miterlimit="4" stroke-width="3.2" d="M245.551 28.647v-25.259h5.052v25.259h-5.052z"></path>
      <path fill="none" stroke="#fff" style="stroke: var(--color1, #fff)" stroke-linejoin="miter" stroke-linecap="butt"
        stroke-miterlimit="4" stroke-width="3.2"
        d="M263.484 28.851c-1.478 0-2.788-0.171-3.925-0.512-1.116-0.341-2.071-0.967-2.867-1.877-0.774-0.91-1.365-2.207-1.775-3.891-0.386-1.707-0.58-3.914-0.58-6.622 0-2.617 0.205-4.756 0.614-6.417 0.431-1.684 1.045-2.981 1.843-3.891 0.796-0.933 1.762-1.582 2.901-1.946 1.137-0.364 2.423-0.546 3.857-0.546 1.137 0 2.195 0.068 3.174 0.205 1.001 0.114 1.899 0.262 2.697 0.444 0.796 0.159 1.468 0.341 2.014 0.546v3.925c-0.41-0.091-0.969-0.182-1.673-0.273-0.683-0.091-1.468-0.159-2.355-0.205-0.887-0.068-1.822-0.102-2.799-0.102-0.956 0-1.775 0.114-2.458 0.341-0.661 0.205-1.195 0.603-1.604 1.195-0.388 0.569-0.683 1.399-0.887 2.492-0.183 1.092-0.273 2.514-0.273 4.267 0 1.684 0.079 3.072 0.239 4.164 0.181 1.092 0.467 1.946 0.853 2.56 0.386 0.592 0.911 1.012 1.57 1.263 0.683 0.227 1.536 0.341 2.56 0.341 1.73 0 3.13-0.034 4.198-0.102 1.092-0.068 1.969-0.148 2.628-0.239v3.891c-0.614 0.205-1.321 0.387-2.116 0.546-0.796 0.137-1.673 0.239-2.628 0.307-0.956 0.091-2.025 0.137-3.209 0.137z">
      </path>
    </symbol>
  </defs>
</svg>