<svg width="185" height="56" fill="none" xmlns="http://www.w3.org/2000/svg"><path d="M20.31 0h-6.584L27.27 26.48l-6.772 13.832h7.974c1.192 0 2.28-.68 2.804-1.75l4.772-9.748a5.195 5.195 0 00-.04-4.652L25.165 2.97A5.455 5.455 0 0020.31 0z" fill="url(#paint0_linear_7_1208)"/><path d="M20.31 0h-6.584L27.27 26.48l-6.772 13.832h7.974c1.192 0 2.28-.68 2.804-1.75l4.772-9.748a5.195 5.195 0 00-.04-4.652L25.165 2.97A5.455 5.455 0 0020.31 0z" fill="url(#paint1_linear_7_1208)"/><path d="M25.166 2.97c5.4 10.556 5.822 15.916 2.104 23.51l-6.772 13.832h7.974c1.192 0 2.28-.68 2.804-1.75l4.772-9.749a5.195 5.195 0 00-.04-4.65L25.165 2.97z" fill="url(#paint2_linear_7_1208)"/><path style="mix-blend-mode:overlay" d="M25.166 2.97c5.4 10.556 5.822 15.916 2.104 23.51l-6.772 13.832h7.974c1.192 0 2.28-.68 2.804-1.75l4.772-9.749a5.195 5.195 0 00-.04-4.65L25.165 2.97z" fill="url(#paint3_linear_7_1208)"/><path opacity=".42" d="M36.007 24.165l-3.058-5.981c.209 3.427-.619 6.55-2.4 10.183l-5.846 11.945h3.767c1.192 0 2.28-.68 2.804-1.75l4.772-9.749a5.195 5.195 0 00-.041-4.65l.002.002z" fill="url(#paint4_linear_7_1208)"/><path d="M16.735 56h6.584L9.775 29.52l6.772-13.832H8.573c-1.192 0-2.28.68-2.804 1.75L.997 27.185a5.195 5.195 0 00.041 4.65L11.879 53.03A5.455 5.455 0 0016.735 56z" fill="url(#paint5_linear_7_1208)"/><path d="M16.735 56h6.584L9.775 29.52l6.772-13.832H8.573c-1.192 0-2.28.68-2.804 1.75L.997 27.185a5.195 5.195 0 00.041 4.65L11.879 53.03A5.455 5.455 0 0016.735 56z" fill="url(#paint6_linear_7_1208)"/><path d="M11.877 53.028c-5.4-10.557-5.822-15.917-2.104-23.51l6.772-13.832H8.571c-1.192 0-2.28.679-2.804 1.75l-4.77 9.748a5.195 5.195 0 00.041 4.651L11.879 53.03l-.002-.002z" fill="url(#paint7_linear_7_1208)"/><path d="M11.877 53.028c-5.4-10.557-5.822-15.917-2.104-23.51l6.772-13.832H8.571c-1.192 0-2.28.679-2.804 1.75l-4.77 9.748a5.195 5.195 0 00.041 4.651L11.879 53.03l-.002-.002z" fill="url(#paint8_linear_7_1208)"/><path opacity=".32" d="M1.036 31.833l3.058 5.98c-.209-3.424.619-6.549 2.399-10.183l5.847-11.944H8.573c-1.192 0-2.28.679-2.804 1.75L.997 27.184a5.195 5.195 0 00.041 4.651l-.002-.002z" fill="url(#paint9_linear_7_1208)"/><path d="M62.219 40.384c-1.728 0-3.339-.278-4.832-.832a11.55 11.55 0 01-3.84-2.432 11.419 11.419 0 01-2.56-3.68c-.598-1.408-.896-2.955-.896-4.64 0-1.686.298-3.232.896-4.64a11.42 11.42 0 012.56-3.68 11.49 11.49 0 013.872-2.4c1.472-.576 3.083-.864 4.832-.864 1.941 0 3.69.341 5.248 1.024a10.089 10.089 0 013.968 2.944l-3.328 3.072c-.768-.875-1.621-1.526-2.56-1.952-.939-.448-1.963-.672-3.072-.672-1.045 0-2.005.17-2.88.512a6.53 6.53 0 00-2.272 1.472 6.927 6.927 0 00-1.504 2.272c-.341.874-.512 1.845-.512 2.912 0 1.066.17 2.037.512 2.912a6.926 6.926 0 001.504 2.272c.64.64 1.397 1.13 2.272 1.472.874.341 1.834.512 2.88.512 1.11 0 2.133-.214 3.072-.64.939-.448 1.792-1.12 2.56-2.016l3.328 3.072a10.371 10.371 0 01-3.968 2.976c-1.557.682-3.317 1.024-5.28 1.024zm23.16 0c-1.77 0-3.413-.288-4.928-.864-1.493-.576-2.795-1.387-3.904-2.432a11.419 11.419 0 01-2.56-3.68C73.39 32 73.09 30.464 73.09 28.8c0-1.664.299-3.2.896-4.608a11.188 11.188 0 012.592-3.68c1.11-1.046 2.41-1.856 3.904-2.432 1.493-.576 3.114-.864 4.864-.864 1.77 0 3.392.288 4.864.864 1.493.576 2.784 1.387 3.872 2.432a11.185 11.185 0 012.592 3.68c.618 1.386.928 2.922.928 4.608 0 1.664-.31 3.21-.928 4.64a11.184 11.184 0 01-2.592 3.68c-1.088 1.024-2.379 1.824-3.872 2.4-1.472.576-3.083.864-4.832.864zm-.032-4.416c1.003 0 1.92-.17 2.752-.512a6.597 6.597 0 002.24-1.472 6.528 6.528 0 001.472-2.272c.362-.875.544-1.846.544-2.912 0-1.067-.181-2.038-.544-2.912a6.529 6.529 0 00-1.472-2.272 6.27 6.27 0 00-2.208-1.472c-.853-.341-1.781-.512-2.784-.512s-1.93.17-2.784.512a6.68 6.68 0 00-2.208 1.472 6.927 6.927 0 00-1.504 2.272c-.341.874-.512 1.845-.512 2.912 0 1.045.17 2.016.512 2.912a7.197 7.197 0 001.472 2.272c.64.64 1.387 1.13 2.24 1.472a7.432 7.432 0 002.784.512zM101.499 40V17.6h10.176c2.432 0 4.576.47 6.432 1.408 1.856.917 3.306 2.208 4.352 3.872 1.045 1.664 1.568 3.637 1.568 5.92 0 2.261-.523 4.235-1.568 5.92-1.046 1.664-2.496 2.965-4.352 3.904-1.856.917-4 1.376-6.432 1.376h-10.176zm5.184-4.256h4.736c1.493 0 2.784-.277 3.872-.832 1.109-.576 1.962-1.387 2.56-2.432.618-1.045.928-2.272.928-3.68 0-1.43-.31-2.656-.928-3.68-.598-1.046-1.451-1.846-2.56-2.4-1.088-.576-2.379-.864-3.872-.864h-4.736v13.888zM127.936 40V17.6h5.184V40h-5.184zm10.5 0V17.6h4.288l13.216 16.128h-2.08V17.6h5.12V40h-4.256l-13.248-16.128h2.08V40h-5.12zm36.66.384c-1.771 0-3.403-.278-4.896-.832a11.91 11.91 0 01-3.872-2.432 11.424 11.424 0 01-2.56-3.68c-.597-1.408-.896-2.955-.896-4.64 0-1.686.299-3.232.896-4.64a11.197 11.197 0 012.592-3.68 11.423 11.423 0 013.904-2.4c1.493-.576 3.136-.864 4.928-.864 1.984 0 3.765.33 5.344.992 1.6.661 2.944 1.621 4.032 2.88l-3.328 3.072c-.811-.854-1.696-1.483-2.656-1.888-.96-.427-2.005-.64-3.136-.64-1.088 0-2.08.17-2.976.512a6.795 6.795 0 00-2.336 1.472 6.932 6.932 0 00-1.504 2.272c-.341.874-.512 1.845-.512 2.912 0 1.045.171 2.005.512 2.88a7.304 7.304 0 001.504 2.304 6.86 6.86 0 002.304 1.472c.896.341 1.877.512 2.944.512a9.35 9.35 0 002.976-.48c.981-.341 1.931-.907 2.848-1.696l2.944 3.744c-1.216.917-2.635 1.621-4.256 2.112-1.6.49-3.2.736-4.8.736zm4.32-3.52v-8.416h4.736v9.088l-4.736-.672z" fill="#3D3B3B"/><defs><linearGradient id="paint0_linear_7_1208" x1="13.726" y1="20.156" x2="36.578" y2="20.156" gradientUnits="userSpaceOnUse"><stop stop-color="#8A0BFF"/><stop offset="1" stop-color="#2A0056"/></linearGradient><linearGradient id="paint1_linear_7_1208" x1="10.26" y1="13.632" x2="29.867" y2="25.369" gradientUnits="userSpaceOnUse"><stop stop-color="#8A0BFF" stop-opacity="0"/><stop offset="1" stop-color="#2A0056"/></linearGradient><linearGradient id="paint2_linear_7_1208" x1="28.537" y1="40.312" x2="28.537" y2="2.97" gradientUnits="userSpaceOnUse"><stop stop-color="#A553FF"/><stop offset="1" stop-color="#AE38FF"/></linearGradient><linearGradient id="paint3_linear_7_1208" x1="26.832" y1="22.936" x2="42.13" y2="27.889" gradientUnits="userSpaceOnUse"><stop stop-color="#AF53FF"/><stop offset=".16" stop-color="#AE4DFF" stop-opacity=".8"/><stop offset=".39" stop-color="#AE45FF" stop-opacity=".52"/><stop offset=".6" stop-color="#AE3FFF" stop-opacity=".29"/><stop offset=".78" stop-color="#AE3BFF" stop-opacity=".13"/><stop offset=".92" stop-color="#AE38FF" stop-opacity=".04"/><stop offset="1" stop-color="#AE38FF" stop-opacity="0"/></linearGradient><linearGradient id="paint4_linear_7_1208" x1="16.806" y1="23.335" x2="37.08" y2="33.309" gradientUnits="userSpaceOnUse"><stop stop-color="#8A0BFF"/><stop offset="1" stop-color="#2A0056" stop-opacity="0"/></linearGradient><linearGradient id="paint5_linear_7_1208" x1=".467" y1="35.844" x2="23.319" y2="35.844" gradientUnits="userSpaceOnUse"><stop stop-color="#3D0056"/><stop offset="1" stop-color="#FF0BA2"/></linearGradient><linearGradient id="paint6_linear_7_1208" x1="11.487" y1="30.669" x2="24.933" y2="49.147" gradientUnits="userSpaceOnUse"><stop stop-color="#3D0056"/><stop offset="1" stop-color="#E33FC5"/></linearGradient><linearGradient id="paint7_linear_7_1208" x1="8.506" y1="53.028" x2="8.506" y2="15.686" gradientUnits="userSpaceOnUse"><stop stop-color="#DF38FF"/><stop offset="1" stop-color="#FF39FF"/></linearGradient><linearGradient id="paint8_linear_7_1208" x1="-3.882" y1="26.072" x2="23.688" y2="38.697" gradientUnits="userSpaceOnUse"><stop stop-color="#9E0082"/><stop offset="1" stop-color="#FF39FF" stop-opacity="0"/></linearGradient><linearGradient id="paint9_linear_7_1208" x1="20.239" y1="32.663" x2="-.035" y2="22.69" gradientUnits="userSpaceOnUse"><stop stop-color="#8A0BFF"/><stop offset="1" stop-color="#2A0056" stop-opacity="0"/></linearGradient></defs></svg>