<svg version="1.0" xmlns="http://www.w3.org/2000/svg" width="933.333" height="933.333" viewBox="0 0 700 700"><path d="M665.5 12.7c-17.6 6.8-42.8 16.4-56 21.4-13.2 5.1-25.3 9.7-27 10.4-1.6.7-11.5 4.6-22 8.5-10.4 4-19.5 7.5-20.1 7.9-.7.3 6.2 6.2 15.7 13.5C565.4 81.5 573 87.6 573 88c0 .3-3.6 5.6-8 11.6-8 10.8-18.4 25.1-31.2 42.7-3.7 5.1-7.5 10.3-8.6 11.7-1 1.4-5.4 7.4-9.8 13.5-4.3 6-8.1 11.2-8.4 11.5-.3.3-1.7 2-3 3.9l-2.3 3.4 2.4 1.9c1.3 1.1 7.1 5.8 12.8 10.5l10.3 8.5-3.4 3.7c-1.9 2-6.8 7.2-10.9 11.6-8.5 9.1-36.8 37.4-45.5 45.5-37.9 35.1-82.6 68.1-124.9 92.1-43.3 24.5-85.9 42.7-140.5 59.7-19 6-62.5 16.4-78 18.8-1.9.3-5.1.9-7 1.4-1.9.4-5.7 1.2-8.5 1.6-2.7.4-5.7.8-6.5 1-1.9.3-9.6 1.5-13 1.9-1.4.2-7.9 1.1-14.5 2-6.6.9-13.6 1.8-15.5 2-4.7.6-22.9 2.3-31.4 3-7.8.6-10 1.5-4 1.6 2.1 0 6.6.3 9.9.6 15.2 1.3 77.2.5 93-1.2 2.2-.3 6.7-.7 10-1 9.3-.9 34.6-4.1 39.5-5 1.3-.3 4.2-.7 6.5-1.1 6-.9 23.1-4.1 31-5.9 3.9-.9 8.1-1.8 9.5-2.1 5-1 35-9 38-10.1 1.8-.8 1.5-.7 7-2.2 8.7-2.5 35.7-12.4 50-18.3 34.2-14.1 55.2-24.9 90.5-46.1 11.6-7 44.7-30 53-36.8 1.1-.9 6.3-5.2 11.5-9.5 18.7-15.3 42.6-38.1 55.4-52.8 2.8-3.2 6-6.9 7.2-8 1.1-1.2 5.8-7.1 10.5-13.2l8.5-11.1 9.4 7.8c9.3 7.7 9.5 7.8 11 5.7.8-1.2 8.7-12.3 17.5-24.7 8.9-12.4 24.4-34.2 34.4-48.4 16.7-23.5 18.5-25.7 20.1-24.5 1 .7 8.9 7.3 17.4 14.6 8.6 7.2 15.6 12.6 15.7 12 0-.7.2-2.7.4-4.3.2-1.7.7-5.9 1-9.4.4-3.6.8-7.4 1-8.5.2-1.2.6-5 1-8.6.3-3.6.8-8.1 1-10 .2-1.9 1.1-10.3 2-18.5.8-8.3 1.8-16.9 2-19.3 1.2-10.2 1.5-13 2-17.7.3-2.8.8-7.3 1.1-10 .3-2.8.8-6.8.9-9 .2-2.2.7-6.7 1.1-10 .4-3.3.8-7.1.9-8.5.1-1.4.6-5.4 1-9 .4-3.6.9-7.6 1-9 1.3-13.2 1.8-17.6 2.1-18.2 1.3-2.1-4.1-.3-33.1 10.9zM557.5 487v213H664V274H557.5v213zM392.7 381.5c-.2.5-.3 72.3-.2 159.5v158.5l55.8.3c30.6.1 55.7-.1 55.8-.5 0-.5.2-72.1.2-159.1.1-99.9-.2-158.6-.8-159-1.7-1.1-110.5-.8-110.8.3zM233 593.5V700h111.6V487H233v106.5zM74 561.8c-.7.3-1 24.2-1 69.3V700h112v-69c0-54.5-.3-69-1.2-69.1-3-.3-108.9-.4-109.8-.1z"/></svg>