<?xml version="1.0" standalone="no"?>
<!DOCTYPE svg PUBLIC "-//W3C//DTD SVG 20010904//EN"
 "http://www.w3.org/TR/2001/REC-SVG-20010904/DTD/svg10.dtd">
<svg version="1.0" xmlns="http://www.w3.org/2000/svg"
 width="700.000000pt" height="700.000000pt" viewBox="0 0 700.000000 700.000000"
 preserveAspectRatio="xMidYMid meet">
<metadata>
Created by potrace 1.14, written by Peter Selinger 2001-2017
</metadata>
<g transform="translate(0.000000,700.000000) scale(0.100000,-0.100000)"
fill="#000000" stroke="none">
<path d="M6655 6873 c-176 -68 -428 -164 -560 -214 -132 -51 -253 -97 -270
-104 -16 -7 -115 -46 -220 -85 -104 -40 -195 -75 -201 -79 -7 -3 62 -62 157
-135 93 -71 169 -132 169 -136 0 -3 -36 -56 -80 -116 -80 -108 -184 -251 -312
-427 -37 -51 -75 -103 -86 -117 -10 -14 -54 -74 -98 -135 -43 -60 -81 -112
-84 -115 -3 -3 -17 -20 -30 -39 l-23 -34 24 -19 c13 -11 71 -58 128 -105 l103
-85 -34 -37 c-19 -20 -68 -72 -109 -116 -85 -91 -368 -374 -455 -455 -379
-351 -826 -681 -1249 -921 -433 -245 -859 -427 -1405 -597 -190 -60 -625 -164
-780 -188 -19 -3 -51 -9 -70 -14 -19 -4 -57 -12 -85 -16 -27 -4 -57 -8 -65
-10 -19 -3 -96 -15 -130 -19 -14 -2 -79 -11 -145 -20 -66 -9 -136 -18 -155
-20 -47 -6 -229 -23 -314 -30 -78 -6 -100 -15 -40 -16 21 0 66 -3 99 -6 152
-13 772 -5 930 12 22 3 67 7 100 10 93 9 346 41 395 50 13 3 42 7 65 11 60 9
231 41 310 59 39 9 81 18 95 21 50 10 350 90 380 101 18 8 15 7 70 22 87 25
357 124 500 183 342 141 552 249 905 461 116 70 447 300 530 368 11 9 63 52
115 95 187 153 426 381 554 528 28 32 60 69 72 80 11 12 58 71 105 132 l85
111 94 -78 c93 -77 95 -78 110 -57 8 12 87 123 175 247 89 124 244 342 344
484 167 235 185 257 201 245 10 -7 89 -73 174 -146 86 -72 156 -126 157 -120
0 7 2 27 4 43 2 17 7 59 10 94 4 36 8 74 10 85 2 12 6 50 10 86 3 36 8 81 10
100 2 19 11 103 20 185 8 83 18 169 20 193 12 102 15 130 20 177 3 28 8 73 11
100 3 28 8 68 9 90 2 22 7 67 11 100 4 33 8 71 9 85 1 14 6 54 10 90 4 36 9
76 10 90 13 132 18 176 21 182 13 21 -41 3 -331 -109z"/>
<path d="M5575 2130 l0 -2130 533 0 532 0 0 2130 0 2130 -533 0 -532 0 0
-2130z"/>
<path d="M3927 3185 c-2 -5 -3 -723 -2 -1595 l0 -1585 558 -3 c306 -1 557 1
558 5 0 5 2 721 2 1591 1 999 -2 1586 -8 1590 -17 11 -1105 8 -1108 -3z"/>
<path d="M2330 1065 l0 -1065 558 0 558 0 0 1065 0 1065 -558 0 -558 0 0
-1065z"/>
<path d="M740 1382 c-7 -3 -10 -242 -10 -693 l0 -689 560 0 560 0 0 690 c0
545 -3 690 -12 691 -30 3 -1089 4 -1098 1z"/>
</g>
</svg>
