<svg aria-hidden="true" style="position:absolute;width:0;height:0" xmlns="http://www.w3.org/2000/svg" overflow="hidden"><defs><symbol id="icon-cross" viewBox="0 0 32 32"><path fill="none" stroke="var(--color1, #7f3a6a)" stroke-linejoin="bevel" stroke-linecap="round" stroke-width="4" d="M4 28.667L28.667 4M4 4l24.667 24.667"/></symbol><symbol id="icon-instagram" viewBox="0 0 32 32"><path fill="currentColor" d="M16 0a16 16 0 100 32.001A16 16 0 0016 0z"/><path fill="var(--color2, #fff)" d="M24.783 12.374c-.041-.935-.192-1.578-.409-2.135a4.285 4.285 0 00-1.018-1.561 4.327 4.327 0 00-1.558-1.014c-.56-.217-1.2-.368-2.135-.409-.942-.045-1.241-.055-3.631-.055s-2.689.01-3.627.052c-.935.041-1.578.193-2.135.409a4.285 4.285 0 00-1.561 1.018c-.447.44-.794.973-1.014 1.558-.217.56-.368 1.2-.409 2.135-.045.942-.055 1.241-.055 3.631s.01 2.689.052 3.627c.041.935.193 1.578.409 2.135a4.337 4.337 0 001.018 1.561c.44.447.973.794 1.558 1.014.56.217 1.2.368 2.135.409.939.041 1.238.052 3.627.052s2.689-.01 3.627-.052c.935-.041 1.578-.192 2.135-.409a4.498 4.498 0 002.575-2.575c.216-.56.368-1.2.409-2.135.041-.939.052-1.238.052-3.627s-.004-2.689-.045-3.627zm-1.585 7.186c-.038.86-.182 1.324-.303 1.633a2.92 2.92 0 01-1.671 1.671c-.309.12-.777.265-1.633.302-.928.041-1.207.052-3.555.052s-2.63-.01-3.555-.052c-.86-.038-1.324-.182-1.633-.302a2.71 2.71 0 01-1.011-.657 2.734 2.734 0 01-.657-1.011c-.12-.309-.265-.777-.302-1.633-.041-.928-.052-1.207-.052-3.555s.01-2.63.052-3.555c.038-.86.182-1.324.302-1.633.141-.382.364-.729.66-1.011a2.734 2.734 0 011.011-.657c.309-.12.777-.265 1.633-.303.928-.041 1.207-.052 3.555-.052 2.352 0 2.63.01 3.555.052.86.038 1.324.182 1.633.303.382.141.729.364 1.011.657.292.285.516.629.657 1.011.12.309.265.777.303 1.633.041.928.052 1.207.052 3.555s-.01 2.623-.052 3.552z"/><path fill="var(--color2, #fff)" d="M16.033 11.48a4.522 4.522 0 000 9.042 4.522 4.522 0 000-9.042zm0 7.454a2.933 2.933 0 110-5.867 2.933 2.933 0 010 5.867zm5.755-7.632a1.056 1.056 0 11-2.113 0 1.056 1.056 0 012.113 0z"/></symbol><symbol id="icon-linkedin" viewBox="0 0 32 32"><path fill="currentColor" d="M27.636 0H4.363A4.36 4.36 0 00-.001 4.364v23.273a4.36 4.36 0 004.364 4.364h23.273A4.36 4.36 0 0032 27.637V4.364A4.36 4.36 0 0027.636 0z"/><path fill="var(--color2, #fff)" d="M10.858 25.582a.676.676 0 00.051-.259V13.272a.68.68 0 00-.674-.677H7.361a.676.676 0 00-.676.676v12.051a.676.676 0 00.677.677h2.875a.677.677 0 00.624-.418zM7.281 10.995a2.727 2.727 0 103.033-4.535 2.727 2.727 0 00-3.034 4.536zm18.607 14.614a.627.627 0 00.047-.238l-.004-5.825v-.05c0-2.545.001-7.099-4.909-7.099-2.231 0-3.276.814-3.982 1.874V13.22a.626.626 0 00-.622-.622h-2.985a.627.627 0 00-.439.182.625.625 0 00-.181.44v12.158a.627.627 0 00.382.575.623.623 0 00.238.047h2.985a.623.623 0 00.613-.622v-6.52c.076-.876.464-2.827 2.364-2.827 2.453 0 2.206 2.851 2.206 3.695v5.645a.623.623 0 00.622.622h3.091a.623.623 0 00.575-.384z"/></symbol><symbol id="icon-facebook" viewBox="0 0 32 32"><path fill="currentColor" d="M16 0C7.178 0 0 7.178 0 16s7.178 16 16 16 16-7.178 16-16S24.823 0 16 0z"/><path fill="var(--color2, #fff)" d="M17.691 15.693h2.603l.337-3.278h-2.939v-1.927c0-.724.48-.893.818-.893h2.075V6.412l-2.858-.011c-3.171 0-3.893 2.374-3.893 3.893v2.121H12v3.279h1.834v9.278h3.857v-9.278z"/></symbol><symbol id="icon-burger" viewBox="0 0 43 32"><path fill="none" stroke="var(--color1, #7f3a6a)" stroke-linecap="round" stroke-width="4.8" d="M3.2 3.2h38.4M3.2 16h38.4M3.2 28.8h38.4"/></symbol></defs></svg>