<svg width="195" height="56" viewBox="0 0 195 56" fill="none" xmlns="http://www.w3.org/2000/svg">
<path d="M61.394 43V17.08H66.642V43H61.394Z" fill="#2E0573"/>
<path d="M70.6113 43V17.08H74.2913L80.0513 30.584V17.08H84.4033V43H80.8833L75.1233 28.664V43H70.6113Z" fill="#2E0573"/>
<path d="M88.33 43V17.08H99.274V20.664H93.61V27.672H98.41V31.352H93.61V43H88.33Z" fill="#2E0573"/>
<path d="M101.924 43V17.08H107.204V39.416H113.284V43H101.924Z" fill="#2E0573"/>
<path d="M122.657 43.352C120.695 43.352 119.169 43.0213 118.081 42.36C116.993 41.6773 116.225 40.7067 115.777 39.448C115.351 38.168 115.137 36.6213 115.137 34.808V17.08H120.353V35.544C120.353 36.184 120.396 36.8133 120.481 37.432C120.588 38.0507 120.801 38.552 121.121 38.936C121.463 39.32 121.975 39.512 122.657 39.512C123.361 39.512 123.873 39.32 124.193 38.936C124.535 38.552 124.748 38.0507 124.833 37.432C124.919 36.8133 124.961 36.184 124.961 35.544V17.08H130.177V34.808C130.177 36.6213 129.953 38.168 129.505 39.448C129.079 40.7067 128.321 41.6773 127.233 42.36C126.145 43.0213 124.62 43.352 122.657 43.352Z" fill="#2E0573"/>
<path d="M133.861 43V17.08H145.157V20.728H139.141V27.608H143.781V31.288H139.141V39.416H145.221V43H133.861Z" fill="#2E0573"/>
<path d="M147.893 43V17.08H151.573L157.333 30.584V17.08H161.685V43H158.165L152.405 28.664V43H147.893Z" fill="#2E0573"/>
<path d="M172.811 43.352C170.891 43.352 169.366 42.9893 168.235 42.264C167.126 41.5387 166.347 40.536 165.899 39.256C165.451 37.9547 165.227 36.4507 165.227 34.744V25.432C165.227 23.64 165.451 22.104 165.899 20.824C166.347 19.5227 167.126 18.52 168.235 17.816C169.366 17.112 170.891 16.76 172.811 16.76C174.667 16.76 176.118 17.0693 177.163 17.688C178.23 18.3067 178.977 19.1813 179.403 20.312C179.851 21.4427 180.075 22.7547 180.075 24.248V26.424H174.955V23.992C174.955 23.3947 174.923 22.84 174.859 22.328C174.795 21.7947 174.614 21.368 174.315 21.048C174.038 20.7067 173.547 20.536 172.843 20.536C172.139 20.536 171.627 20.7067 171.307 21.048C170.987 21.3893 170.785 21.8373 170.699 22.392C170.614 22.9253 170.571 23.5227 170.571 24.184V35.96C170.571 36.6853 170.625 37.3253 170.731 37.88C170.859 38.4133 171.083 38.8293 171.403 39.128C171.745 39.4053 172.225 39.544 172.843 39.544C173.526 39.544 174.006 39.384 174.283 39.064C174.582 38.7227 174.763 38.2747 174.827 37.72C174.913 37.1653 174.955 36.5787 174.955 35.96V33.432H180.075V35.576C180.075 37.0907 179.862 38.4347 179.435 39.608C179.009 40.76 178.273 41.6773 177.227 42.36C176.182 43.0213 174.71 43.352 172.811 43.352Z" fill="#2E0573"/>
<path d="M183.299 43V17.08H194.595V20.728H188.579V27.608H193.219V31.288H188.579V39.416H194.659V43H183.299Z" fill="#2E0573"/>
<g clip-path="url(#clip0_7_1202)">
<path d="M17.5571 6.89741L24.6298 0L31.7024 6.89741L24.6298 19.1431L17.5571 6.89741ZM24.6298 36.8477L17.5571 49.0934L24.6298 55.9908L31.7024 49.0934L24.6298 36.8477Z" fill="url(#paint0_linear_7_1202)"/>
<path d="M39.365 11.3236L48.872 13.9977L46.4284 23.5693H32.2831L39.3558 11.3236H39.365ZM16.9576 32.4216H2.82154L0.37793 41.9931L9.88495 44.6673L16.9576 32.4216Z" fill="url(#paint1_linear_7_1202)"/>
<path d="M2.82154 23.5693L0.37793 13.9977L9.88495 11.3236L16.9576 23.5693H2.82154ZM32.2924 32.4216L39.365 44.6673L48.872 41.9931L46.4284 32.4216H32.2831H32.2924Z" fill="url(#paint2_linear_7_1202)"/>
</g>
<defs>
<linearGradient id="paint0_linear_7_1202" x1="24.6298" y1="56" x2="24.6298" y2="0" gradientUnits="userSpaceOnUse">
<stop stop-color="#7D33A9"/>
<stop offset="0.12" stop-color="#A832C4"/>
<stop offset="0.25" stop-color="#CD31DB"/>
<stop offset="0.37" stop-color="#E831EC"/>
<stop offset="0.48" stop-color="#F931F6"/>
<stop offset="0.56" stop-color="#FF31FA"/>
</linearGradient>
<linearGradient id="paint1_linear_7_1202" x1="24.6296" y1="44.6765" x2="24.6296" y2="11.3236" gradientUnits="userSpaceOnUse">
<stop stop-color="#531DB5"/>
<stop offset="1" stop-color="#8733FF"/>
</linearGradient>
<linearGradient id="paint2_linear_7_1202" x1="24.6296" y1="44.6765" x2="24.6296" y2="11.3236" gradientUnits="userSpaceOnUse">
<stop stop-color="#0099FF"/>
<stop offset="0.1" stop-color="#0EB1FF"/>
<stop offset="0.23" stop-color="#1FCDFF"/>
<stop offset="0.38" stop-color="#2DE3FF"/>
<stop offset="0.55" stop-color="#36F3FF"/>
<stop offset="0.73" stop-color="#3CFCFF"/>
<stop offset="1" stop-color="#3EFFFF"/>
</linearGradient>
<clipPath id="clip0_7_1202">
<rect width="48.4941" height="56" fill="white" transform="translate(0.37793)"/>
</clipPath>
</defs>
</svg>
