<svg width="113" height="48" viewBox="0 0 113 48" fill="none" xmlns="http://www.w3.org/2000/svg">
<path d="M64.835 27.4688C64.835 27.1206 64.7814 26.8081 64.6742 26.5313C64.576 26.2456 64.3885 25.9866 64.1117 25.7545C63.835 25.5134 63.4466 25.2768 62.9466 25.0447C62.4466 24.8125 61.7992 24.5714 61.0046 24.3214C60.1207 24.0357 59.2814 23.7143 58.4867 23.3572C57.701 23 57.0046 22.5848 56.3975 22.1116C55.7992 21.6295 55.326 21.0714 54.9778 20.4375C54.6385 19.8036 54.4689 19.067 54.4689 18.2277C54.4689 17.4152 54.6475 16.6786 55.0046 16.0179C55.3617 15.3482 55.8617 14.7768 56.5046 14.3036C57.1475 13.8214 57.9064 13.4509 58.7814 13.192C59.6653 12.9331 60.6341 12.8036 61.6876 12.8036C63.1251 12.8036 64.3796 13.0625 65.451 13.5804C66.5225 14.0982 67.3528 14.8081 67.9421 15.7098C68.5403 16.6116 68.8394 17.6429 68.8394 18.8036H64.8484C64.8484 18.2322 64.7278 17.7322 64.4867 17.3036C64.2546 16.8661 63.8975 16.5223 63.4153 16.2723C62.9421 16.0223 62.3439 15.8973 61.6207 15.8973C60.9242 15.8973 60.3439 16.0045 59.8796 16.2188C59.4153 16.4241 59.0671 16.7054 58.835 17.0625C58.6028 17.4107 58.4867 17.8036 58.4867 18.2411C58.4867 18.5714 58.5671 18.8706 58.7278 19.1384C58.8975 19.4063 59.1475 19.6563 59.4778 19.8884C59.8082 20.1206 60.2144 20.3393 60.6966 20.5447C61.1787 20.75 61.7367 20.9509 62.3707 21.1473C63.4332 21.4688 64.3662 21.8304 65.1698 22.2322C65.9823 22.6339 66.6609 23.0848 67.2055 23.5848C67.7501 24.0848 68.1609 24.6518 68.4376 25.2857C68.7144 25.9197 68.8528 26.6384 68.8528 27.442C68.8528 28.2902 68.6876 29.0491 68.3573 29.7188C68.0269 30.3884 67.5492 30.9554 66.9242 31.4197C66.2992 31.8839 65.5537 32.2366 64.6876 32.4777C63.8216 32.7188 62.8528 32.8393 61.7814 32.8393C60.8171 32.8393 59.8662 32.7143 58.9287 32.4643C57.9912 32.2054 57.1385 31.817 56.3707 31.2991C55.6117 30.7813 55.0046 30.1206 54.5492 29.317C54.0939 28.5134 53.8662 27.5625 53.8662 26.4643H57.8975C57.8975 27.0714 57.9912 27.5848 58.1787 28.0045C58.3662 28.4241 58.6296 28.7634 58.9689 29.0223C59.3171 29.2813 59.7278 29.4688 60.201 29.5848C60.6832 29.7009 61.21 29.7589 61.7814 29.7589C62.4778 29.7589 63.0492 29.6607 63.4957 29.4643C63.951 29.2679 64.2859 28.9956 64.5001 28.6473C64.7234 28.2991 64.835 27.9063 64.835 27.4688Z" fill="#27284A"/>
<path d="M75.643 30.9375L79.4867 18.0804H83.6251L77.7992 34.7545C77.6742 35.1206 77.5046 35.5134 77.2903 35.9331C77.085 36.3527 76.8037 36.75 76.4466 37.125C76.0984 37.5089 75.6564 37.8214 75.1207 38.0625C74.5939 38.3036 73.9466 38.4241 73.1787 38.4241C72.8126 38.4241 72.5135 38.4018 72.2814 38.3572C72.0492 38.3125 71.7725 38.25 71.451 38.1697V35.3438C71.5492 35.3438 71.6519 35.3438 71.7591 35.3438C71.8662 35.3527 71.9689 35.3572 72.0671 35.3572C72.576 35.3572 72.9912 35.2991 73.3126 35.1831C73.6341 35.067 73.893 34.8884 74.0894 34.6473C74.2859 34.4152 74.4421 34.1116 74.5582 33.7366L75.643 30.9375ZM74.0359 18.0804L77.1832 28.5804L77.7323 32.6652L75.1073 32.9464L69.8975 18.0804H74.0359Z" fill="#27284A"/>
<path d="M88.9421 21.1741V32.5714H85.085V18.0804H88.701L88.9421 21.1741ZM88.3796 24.817H87.335C87.335 23.7456 87.4734 22.7813 87.7501 21.9241C88.0269 21.0581 88.4153 20.3214 88.9153 19.7143C89.4153 19.0982 90.0091 18.6295 90.6966 18.3081C91.393 17.9777 92.1698 17.8125 93.0269 17.8125C93.7055 17.8125 94.326 17.9107 94.8885 18.1072C95.451 18.3036 95.9332 18.6161 96.335 19.0447C96.7457 19.4732 97.0582 20.0402 97.2725 20.7456C97.4957 21.4509 97.6073 22.3125 97.6073 23.3304V32.5714H93.7234V23.317C93.7234 22.6741 93.6341 22.1741 93.4555 21.817C93.2769 21.4598 93.0135 21.2098 92.6653 21.067C92.326 20.9152 91.9064 20.8393 91.4064 20.8393C90.8885 20.8393 90.4376 20.942 90.0537 21.1473C89.6787 21.3527 89.3662 21.6384 89.1162 22.0045C88.8751 22.3616 88.6921 22.7813 88.5671 23.2634C88.4421 23.7456 88.3796 24.2634 88.3796 24.817Z" fill="#27284A"/>
<path d="M106.527 29.8259C107 29.8259 107.42 29.7366 107.786 29.5581C108.152 29.3706 108.438 29.1116 108.643 28.7813C108.857 28.442 108.969 28.0447 108.978 27.5893H112.607C112.598 28.6072 112.326 29.5134 111.79 30.3081C111.255 31.0938 110.536 31.7143 109.634 32.1697C108.732 32.6161 107.723 32.8393 106.607 32.8393C105.482 32.8393 104.5 32.6518 103.661 32.2768C102.83 31.9018 102.139 31.3839 101.585 30.7232C101.031 30.0536 100.616 29.2768 100.339 28.3929C100.063 27.5 99.9242 26.5447 99.9242 25.5268V25.1384C99.9242 24.1116 100.063 23.1563 100.339 22.2723C100.616 21.3795 101.031 20.6027 101.585 19.942C102.139 19.2723 102.83 18.75 103.661 18.375C104.491 18 105.464 17.8125 106.58 17.8125C107.768 17.8125 108.808 18.0402 109.701 18.4956C110.603 18.9509 111.308 19.6027 111.817 20.4509C112.335 21.2902 112.598 22.2857 112.607 23.4375H108.978C108.969 22.9554 108.866 22.5179 108.67 22.125C108.482 21.7322 108.205 21.4197 107.839 21.1875C107.482 20.9464 107.04 20.8259 106.514 20.8259C105.951 20.8259 105.491 20.9464 105.134 21.1875C104.777 21.4197 104.5 21.7411 104.304 22.1518C104.107 22.5536 103.969 23.0134 103.889 23.5313C103.817 24.0402 103.781 24.5759 103.781 25.1384V25.5268C103.781 26.0893 103.817 26.6295 103.889 27.1473C103.96 27.6652 104.094 28.125 104.29 28.5268C104.496 28.9286 104.777 29.2456 105.134 29.4777C105.491 29.7098 105.955 29.8259 106.527 29.8259Z" fill="#27284A"/>
<g clip-path="url(#clip0_7_1197)">
<path d="M0.428711 12.0042V36.0041L21.2123 48L41.9958 36.0041L0.428711 12.0042Z" fill="url(#paint0_linear_7_1197)"/>
<path d="M0.428711 12.0041V36.0041L41.9958 12.0041L21.2123 0L0.428711 12.0041Z" fill="url(#paint1_linear_7_1197)"/>
</g>
<defs>
<linearGradient id="paint0_linear_7_1197" x1="8.28921" y1="19.7088" x2="50.6031" y2="73.042" gradientUnits="userSpaceOnUse">
<stop stop-color="#7D33A9"/>
<stop offset="0.07" stop-color="#A832C4"/>
<stop offset="0.15" stop-color="#CD31DB"/>
<stop offset="0.22" stop-color="#E831EC"/>
<stop offset="0.28" stop-color="#F931F6"/>
<stop offset="0.33" stop-color="#FF31FA"/>
</linearGradient>
<linearGradient id="paint1_linear_7_1197" x1="41.9958" y1="18.0021" x2="0.428711" y2="18.0021" gradientUnits="userSpaceOnUse">
<stop stop-color="#531DB5"/>
<stop offset="1" stop-color="#8733FF"/>
</linearGradient>
<clipPath id="clip0_7_1197">
<rect width="41.5671" height="48" fill="white" transform="translate(0.428711)"/>
</clipPath>
</defs>
</svg>
