<svg xmlns="http://www.w3.org/2000/svg" width="336" height="451" fill="none"><g clip-path="url(#a)"><path fill="#222C30" d="M305.623 395.113a.902.902 0 0 1-.862-.633l-2.307-7.391a.904.904 0 0 1 .591-1.133.907.907 0 0 1 1.132.59l2.307 7.392a.903.903 0 0 1-.861 1.175ZM321.797 382.637a.897.897 0 0 1-.813-.512l-3.464-7.163a.9.9 0 0 1 .422-1.205.898.898 0 0 1 1.204.422l3.464 7.162a.9.9 0 0 1-.422 1.205.895.895 0 0 1-.391.091ZM164.172 58.056a.902.902 0 0 1-.524-.169.9.9 0 0 1-.217-1.259c2.084-2.946 6.764-11.253 3.415-14.272-1.596-1.44-3.06-1.921-4.331-1.427-2.813 1.09-4.614 6.458-4.945 9.747a.905.905 0 0 1-.988.807.9.9 0 0 1-.807-.988c.355-3.578 2.325-9.795 6.09-11.253 1.963-.76 4.047-.163 6.192 1.765 5.222 4.699-2.801 16.17-3.15 16.657a.898.898 0 0 1-.735.38v.012ZM141.68 97.418c-10.541 0-24.799-22.814-28.521-37.706-3.837-15.355 3.258-21.723 3.565-21.988a.911.911 0 0 1 1.277.09.903.903 0 0 1-.09 1.271c-.066.06-6.547 5.983-3 20.188 3.88 15.53 17.824 36.338 26.769 36.338 4.072 0 15.631-13.537 18.336-24.615a.904.904 0 0 1 1.09-.663c.482.12.783.609.663 1.09-2.801 11.47-14.866 25.995-20.089 25.995Z"/><path fill="#222C30" d="M180.593 77.731a.919.919 0 0 1-.687-.313l-16.42-19.206a.906.906 0 0 1 1.373-1.18l16.42 19.205a.907.907 0 0 1-.686 1.494ZM167.448 106.322a.907.907 0 0 1-.747-.391l-13.119-19.212a.9.9 0 0 1 .235-1.253.9.9 0 0 1 1.253.235l13.119 19.211a.901.901 0 0 1-.741 1.41Z"/><path fill="#FDB932" d="M236.895 305.454c-6.445 0-13.354-1.759-18.727-5.759-6.228-4.639-12.68-13.934-8.011-31.893 8.282-31.892 12.197-71.447-1.669-86.797a.904.904 0 1 1 1.343-1.211c14.348 15.886 10.481 56.116 2.078 88.466-4.409 16.989 1.561 25.688 7.343 29.989 9.12 6.783 23.48 6.645 30.672 2.283 6.162-3.741 10.415-14.175 11.969-29.38 1.602-15.645.199-35.495-3.952-55.893-4.373-21.489-13.799-38.676-20.937-49.309-7.867-11.711-15.12-18.729-16.342-19.35a.902.902 0 0 1-.681-.964.896.896 0 0 1 .982-.813c1.415.133 9.162 7.796 17.065 19.404 7.409 10.898 17.191 28.531 21.69 50.67 4.187 20.573 5.596 40.616 3.982 56.436-1.614 15.777-6.168 26.699-12.83 30.741-3.56 2.163-8.602 3.38-13.963 3.38h-.012Z"/><path fill="#222C30" d="M215.848 175.336c-1.488 0-3.199-.831-3.843-1.175a.905.905 0 0 1 .849-1.596c1.41.747 3.126 1.175 3.464.867 0 0 .391-.439-.5-2.524-1.934-4.506-22.83-11.127-36.401-14.476a.905.905 0 0 1-.686-.892c.036-2.241 1.072-54.935 12.149-61.676a.902.902 0 1 1 .94 1.542c-8.361 5.091-10.945 43.947-11.27 59.448 5.788 1.457 34.165 8.891 36.93 15.343.349.82 1.422 3.32.066 4.567-.451.415-1.054.572-1.692.572h-.006Z"/><path fill="#222C30" d="M216.884 174.975h-.09a.905.905 0 0 1-.807-.988l5.391-53.189a.9.9 0 0 1 .988-.807.904.904 0 0 1 .807.988l-5.391 53.188a.907.907 0 0 1-.898.814v-.006ZM139.234 264.332c-.253 0-.494-.03-.723-.096-.512-.151-1.198-.542-1.542-1.578-.879-2.633.783-4.235 2.548-5.934 1.205-1.163 2.572-2.476 3.53-4.392 2.379-4.753 6.885-6.735 7.62-7.03 6.584-4.253 8.246-8.175 9.854-11.971a60.4 60.4 0 0 1 1.193-2.68c2.753-5.615 10.83-24.724 12.583-31.748 1.307-5.223 6.578-31.844 8.421-41.718a.905.905 0 0 1 1.777.331c-1.843 9.892-7.132 36.573-8.445 41.827-1.783 7.132-9.939 26.44-12.716 32.109a46.269 46.269 0 0 0-1.15 2.59c-1.723 4.061-3.5 8.26-10.614 12.832a.665.665 0 0 1-.174.084c-.042.018-4.524 1.759-6.735 6.187-1.096 2.193-2.644 3.687-3.891 4.886-1.759 1.693-2.578 2.578-2.084 4.06.114.35.259.392.331.41 1.506.44 5.994-3.235 8.68-5.428l1.012-.825a.906.906 0 0 1 1.271.132.907.907 0 0 1-.132 1.271l-1.006.82c-4.163 3.397-7.373 5.861-9.602 5.861h-.006Z"/><path fill="#FDB932" d="M178.695 153.655a.898.898 0 0 1-.41-.097c-.717-.361-17.595-9.452-17.131-55.41a.9.9 0 0 1 .903-.892c.506 0 .91.415.904.915-.458 44.845 15.974 53.695 16.137 53.779a.902.902 0 0 1 .398 1.217.901.901 0 0 1-.808.494l.007-.006Z"/><path fill="#FDB932" d="M167.448 134.437a.906.906 0 0 1-.265-1.771l13.589-4.217a.906.906 0 0 1 .536 1.729l-13.589 4.217a.841.841 0 0 1-.265.042h-.006Z"/><path fill="#222C30" d="M237.19 106.714a.9.9 0 0 1-.867-1.157l5.029-17.049c-11.637-6.729-30.563-13.771-55.603-10.066-.898.132-1.193.175-1.41.163a.904.904 0 0 1 .054-1.808h.031c.126 0 .602-.078 1.06-.144 26.003-3.844 45.562 3.674 57.392 10.656.356.211.524.64.41 1.037l-5.235 17.729a.907.907 0 0 1-.867.651l.006-.012ZM45.425 412.999c-1.723 0-3.723-.952-5.223-2.133-2.397-1.897-3.41-4.253-2.644-6.15 1.795-4.476 34.123-45.345 34.4-45.634 1.277-1.325 4.343.41 4.94.771 2.59 1.56 5.017 4.283 4.041 7.247-.03.085-.072.169-.12.241-3.138 4.416-30.732 43.206-33.407 45.086-.572.403-1.253.572-1.987.572Zm27.774-52.604c-2.476 2.711-32.6 41.58-33.967 44.989-.542 1.344.79 3.031 2.09 4.061 1.862 1.476 4.127 2.144 5.048 1.5 1.843-1.308 20.643-27.302 32.889-44.532.38-1.385-.548-2.692-1.41-3.554-1.753-1.759-4.072-2.56-4.65-2.464Z"/><path fill="#222C30" d="M47.857 445.385h-.223c-2.325-.096-10.48-9.006-24.245-26.476-5.27-6.693-20.335-26.278-20.438-28.429-.162-3.524 2.157-3.921 5.952-4.283.927-.084 2.686-.283 4.915-.53 12.372-1.374 19.317-2.048 20.588-1.663 1.874.56 8.548 8.651 10.548 11.115a.906.906 0 0 1-.133 1.271.907.907 0 0 1-1.27-.132c-3.868-4.766-8.663-10.145-9.669-10.525-1.33-.325-13.848 1.066-19.865 1.729-2.235.247-4.006.446-4.946.53-4.18.392-4.385.814-4.319 2.338 1.157 3.711 38.623 52.459 42.973 53.242 2.078.078 8.722-.964 15.24-2.669 9.179-2.403 11.902-4.47 12.064-5.313.458-2.38-11.029-16.808-22.39-29.38a.9.9 0 0 1 .067-1.278.9.9 0 0 1 1.277.067c.06.066 5.94 6.572 11.638 13.518 11.776 14.344 11.366 16.495 11.185 17.41-1.012 5.272-24.564 9.452-28.955 9.452l.006.006Z"/><path fill="#222C30" d="M46.37 447.187a4.07 4.07 0 0 1-.814-.061c-5.33-1.132-41.37-50.194-41.73-50.688-1.573-2.168-2.163-4.175-1.76-5.958.482-2.114 2.217-3.06 2.29-3.102a.903.903 0 0 1 .855 1.59c-.036.024-1.103.627-1.386 1.94-.27 1.247.217 2.747 1.464 4.464 10.595 14.609 37.207 49.236 40.64 49.977 2.428.524 23.59-3.946 26.565-5.12 2.506-.988 2.578-3.476 2.578-3.5a.903.903 0 0 1 .903-.886.906.906 0 0 1 .904.922c0 .15-.109 3.723-3.723 5.144-2.819 1.115-21.841 5.266-26.792 5.266l.006.012Z"/><path fill="#222C30" d="M46.942 451c-.645 0-1.247-.078-1.765-.289-1.403-.567-4.903-2.253-6.975-5.639-1.928-3.145-4.506-6.289-7.265-8.85a151.052 151.052 0 0 0-2.674-2.403c-2.157-1.91-4.012-3.555-4.789-4.85a92.812 92.812 0 0 0-.427-.729c-1.35-2.307-4.5-7.717-7.415-10.434-3.524-3.283-7.94-8.759-9.572-12.874-1.012-2.548-2.3-4-3.433-5.277-.573-.644-1.109-1.247-1.56-1.928-.982-1.482-1.494-4.211-.609-6.024.482-.994 1.331-1.584 2.398-1.669a.918.918 0 0 1 .975.832.905.905 0 0 1-.83.976c-.429.036-.712.241-.916.662-.512 1.055-.278 3.073.493 4.241.38.573.856 1.109 1.404 1.723 1.175 1.32 2.638 2.964 3.765 5.814 1.518 3.825 5.83 9.145 9.125 12.217 3.108 2.898 6.361 8.47 7.747 10.844.168.289.307.53.421.711.633 1.054 2.482 2.692 4.434 4.421.88.777 1.789 1.585 2.704 2.434 2.873 2.669 5.566 5.952 7.578 9.235 1.789 2.922 4.867 4.404 6.108 4.904.819.331 2.433.072 3.855-.157 1.3-.21 2.644-.427 3.74-.295 1 .127 3.109-.68 4.795-1.331 1.705-.651 3.175-1.217 4.199-1.223.843 0 1.873-.627 2.782-1.175.868-.524 1.687-1.018 2.488-1.114.404-.048.68-.06.934-.073.584-.024 1.048-.048 3.427-.704 2.645-.735 2.663-3.284 2.663-3.392a.91.91 0 0 1 .891-.91c.5 0 .904.392.916.886.024 1.398-.777 4.271-3.988 5.157-2.451.68-3.054.735-3.83.765-.218.012-.453.018-.796.06-.415.048-1.102.464-1.765.867-1.108.669-2.367 1.428-3.704 1.434-.693 0-2.15.56-3.56 1.103-2.072.795-4.205 1.614-5.662 1.433-.838-.102-2.054.091-3.235.284-1.036.168-2.09.337-3.048.337h-.024ZM80.3 367.811a.905.905 0 0 1-.74-1.422c.385-.554 39.008-55.875 66.084-92.339a.903.903 0 1 1 1.451 1.078c-27.058 36.441-65.662 91.743-66.048 92.297a.899.899 0 0 1-.74.386H80.3ZM187.217 225.928a.939.939 0 0 1-.536-.175.904.904 0 0 1-.187-1.265l.988-1.337a3648.302 3648.302 0 0 0 20.468-27.869l5.036-6.934a.904.904 0 0 1 1.265-.198.904.904 0 0 1 .199 1.265l-5.036 6.934a3709.422 3709.422 0 0 1-20.48 27.88l-.988 1.337a.9.9 0 0 1-.729.368v-.006ZM257.754 127.479a.9.9 0 0 1-.777-1.355c2.602-4.482 5.71-9.494 8.204-13.525 2.458-3.964 4.771-7.711 4.994-8.367 1.156-3.416.728-5.862-1.175-6.705-1.855-.826-4.548.072-5.536 1.843-1.469 2.645-11.42 17.94-11.848 18.591a.91.91 0 0 1-1.253.265.91.91 0 0 1-.265-1.253c.103-.157 10.343-15.898 11.782-18.482 1.452-2.603 5.114-3.826 7.843-2.621 1.054.47 4.331 2.494 2.156 8.934-.277.819-1.963 3.56-5.174 8.741-2.488 4.018-5.59 9.025-8.18 13.482a.904.904 0 0 1-.783.452h.012ZM72.801 360.781a.858.858 0 0 1-.53-.175.898.898 0 0 1-.199-1.259l71.223-97.942a.899.899 0 0 1 1.259-.199.898.898 0 0 1 .198 1.259L73.53 360.407a.905.905 0 0 1-.729.374Z"/><path fill="#FDB932" d="M248.123 183.565a.904.904 0 0 1-.391-1.717c.265-.126 26.63-12.982 27.527-26.814a.895.895 0 0 1 .615-.795.86.86 0 0 1 .427-.036.883.883 0 0 1 .838-.476c.933.042 22.907 1.102 27.527 8.217 1.03 1.584 1.181 3.332.446 5.199-1.072 2.741-2.813 4.337-5.18 4.741-7.512 1.295-19.233-10.518-23.149-14.747-3 14.03-27.19 25.826-28.268 26.344a.912.912 0 0 1-.392.09v-.006Zm29.666-28.001c4.783 5.242 15.685 15.603 21.836 14.537 1.722-.295 2.963-1.482 3.8-3.621.512-1.313.422-2.476-.277-3.554-3.289-5.06-18.763-6.976-25.359-7.356v-.006Z"/><path fill="#222C30" d="M256.006 402.957c-.036 0-.072 0-.108-.006-.663-.079-16.3-1.964-21.149-6.82-.879-.879-3.21-3.211-.964-47.543 1.103-21.73 2.795-43.158 2.813-43.375a.9.9 0 0 1 .97-.831c.5.042.867.476.831.97-.018.21-1.71 21.621-2.807 43.326-1.987 39.284-.355 45.375.44 46.17 3.849 3.849 16.155 5.765 19.33 6.205 6.077-20.543 28.913-107.931 34.888-160.776 5.939-52.549-7.529-65.17-7.662-65.29a.9.9 0 0 1-.078-1.272.904.904 0 0 1 1.271-.09c.59.512 14.348 13.115 8.27 66.857-6.06 53.628-29.437 142.703-35.171 161.83a.905.905 0 0 1-.868.645h-.006Z"/><path fill="#222C30" d="M303.316 387.721a.904.904 0 0 1-.693-.325c-20.685-24.826-28.262-55.224-28.335-55.526a.901.901 0 1 1 1.753-.427c.072.295 7.433 29.808 27.462 54.188 7.324-4.687 14.625-10.675 14.179-12.452-.187-.928-17.685-88.991-29.527-116.775a.904.904 0 1 1 1.662-.71c11.915 27.952 29.449 116.195 29.624 117.087.994 3.976-11.728 12.338-15.655 14.802a.882.882 0 0 1-.482.138h.012Z"/><path fill="#FDB932" d="M277.095 155.528a.91.91 0 0 1-.904-.909c0-.826.169-20.26 6.867-24.128 1.825-1.054 3.91-.921 6.199.386 1.843 1.054 2.861 2.554 3.011 4.452.609 7.663-13.98 19.494-14.607 19.994a.885.885 0 0 1-.566.199v.006Zm8.559-23.928c-.602 0-1.168.15-1.692.458-4.307 2.488-5.656 14.301-5.915 20.591 4.632-4.019 12.812-12.206 12.42-17.176-.102-1.289-.789-2.277-2.102-3.03-.988-.566-1.885-.843-2.705-.843h-.006ZM250.459 187.372h-.03a.901.901 0 0 1 .018-1.801c2.036-.409 25.564-15.03 26.226-28.657a.89.89 0 0 1 .946-.862.9.9 0 0 1 .856.946c-.386 7.958-7.53 15.729-13.457 20.85-5.885 5.085-12.999 9.53-14.559 9.53v-.006ZM187.363 99.997c-.054 0-.108 0-.169-.018a.908.908 0 0 1-.723-1.055c.037-.205 3.693-20.56-7.33-23.802a.904.904 0 1 1 .506-1.734c12.589 3.704 8.77 24.964 8.601 25.868a.896.896 0 0 1-.885.735v.006Z"/><path fill="#222C30" d="M236.46 436.457c-3.873 0-8.24-.066-13.071-.144-6.554-.109-13.324-.229-18.981-.084-8.698.198-11.956-3.338-13.143-5.471-1.536-2.771-1.361-6.211.458-8.976 1.759-2.668 4.68-4.072 7.812-3.759 11.879 1.199 26.064-2.783 27.811-4.157.596-2.945 1.434-4.403 2.711-4.723 1.795-.445 3.379 1.531 5.379 4.025 1.373 1.705 2.927 3.644 4.439 4.5 4.403 2.506 12.662-1.741 13.312-2.223a.95.95 0 0 1 1.247-.036c1.072.843 5.192 13.651 2.373 18.06-1.542 2.41-8.68 2.988-20.347 2.988Zm-26.118-2.102c4.198 0 8.686.078 13.077.151 13.474.229 30.25.512 31.864-2.013 1.958-3.066-.602-12.5-1.752-15.157-2.615 1.452-9.963 4.513-14.553 1.904-1.813-1.03-3.482-3.108-4.952-4.94-1.138-1.422-2.873-3.566-3.536-3.397-.078.018-.783.283-1.409 3.512-.337 1.735-7.349 3.397-10.349 4.03-3.999.843-11.836 2.151-19.377 1.386-2.452-.247-4.741.855-6.12 2.951-1.452 2.199-1.596 4.922-.392 7.103 1.705 3.072 5.789 4.687 11.517 4.542 1.886-.048 3.898-.066 5.976-.066l.006-.006Zm42.833-18.898s-.024.018-.03.03l.03-.03ZM293.613 428.385c-7.993 0-11.095-3.898-11.324-7.235-.235-3.494 2.638-7.639 8.427-8.428 7.963-1.084 10.173-9.109 10.788-13.796l.024-.174c.452-3.241 1.048-4.699 2.132-5.199 1.091-.5 2.139.174 3.253.885 1.325.85 2.825 1.814 4.716 1.247 4.747-1.415 9.018-12.663 9.265-14.018a.944.944 0 0 1 .867-.88c1.723-.174 13.168 6.223 14.192 11.254.457 2.253-2.982 7.054-5.946 10.687-8.421 10.313-25.064 25.657-36.394 25.657Zm10.86-33.194s-.036 0-.054.012c-.06.03-.626.38-1.102 3.808l-.024.162c-1.157 8.844-5.65 14.44-12.336 15.35-4.705.645-7.054 3.838-6.867 6.512.174 2.561 2.771 5.549 9.517 5.549 10.626 0 27.106-15.332 34.997-24.995 4.716-5.771 5.71-8.53 5.578-9.181-.723-3.56-9.096-8.524-11.746-9.609-1.036 3.338-5.072 13.073-10.295 14.627-2.68.802-4.722-.506-6.204-1.458-.434-.277-1.205-.771-1.47-.771l.006-.006Zm16.421-13.5v.048-.048Z"/><path fill="#222C30" d="M233.051 412.794c-.042 0-.084 0-.126-.006a.904.904 0 0 1-.765-1.024l2.343-16.404a.904.904 0 1 1 1.789.259l-2.343 16.404a.905.905 0 0 1-.891.777l-.007-.006ZM253.664 417.011a.906.906 0 0 1-.88-.699c-1.445-6.259.856-13.747.958-14.06a.903.903 0 1 1 1.723.542c-.024.072-2.253 7.343-.922 13.115a.904.904 0 0 1-.879 1.108v-.006ZM261.868 134.208c-.048 0-.096 0-.15-.012a.902.902 0 0 1-.741-1.042c.452-2.747.102-5.753-.211-8.404-.162-1.391-.319-2.705-.355-3.915a.903.903 0 0 1 .873-.934.91.91 0 0 1 .934.873c.036 1.133.187 2.41.343 3.759.325 2.772.693 5.916.199 8.91a.904.904 0 0 1-.892.753v.012ZM258.585 105.617a.891.891 0 0 1-.801-.488c-5.765-11.102-15.77-14.362-15.872-14.392a.902.902 0 1 1 .542-1.723c.44.139 10.824 3.525 16.932 15.284a.9.9 0 0 1-.801 1.319ZM136.982 62.646c.97 2.187.554 4.494-.927 5.151-1.482.657-3.464-.59-4.428-2.783-.97-2.187-.554-4.494.928-5.151 1.482-.657 3.463.59 4.433 2.783h-.006ZM121.519 69.207c.97 2.187.555 4.494-.927 5.15-1.482.657-3.464-.59-4.434-2.783-.969-2.187-.554-4.494.928-5.15 1.482-.657 3.464.59 4.433 2.783Z"/><path fill="#222C30" d="M134.651 61.339a.904.904 0 0 1-.187-1.79c.35-.078 1.464-.481 1.169-2.246a.906.906 0 0 1 .741-1.042.907.907 0 0 1 1.042.74c.482 2.904-1.482 4.091-2.59 4.314a.933.933 0 0 1-.181.018l.006.006Z"/><path fill="#222C30" d="M135.59 62.743a.91.91 0 0 1-.898-.79.902.902 0 0 1 .783-1.006c.049-.006 2.958-.451 2.958-1.915a.903.903 0 1 1 1.807 0c0 2.482-2.855 3.5-4.542 3.71-.036 0-.078.007-.114.007l.006-.006ZM114.809 68.875c-.952 0-2.084-.27-3.21-1.18a.901.901 0 0 1-.139-1.271.901.901 0 0 1 1.271-.14c1.801 1.44 3.584.44 3.662.398a.909.909 0 0 1 1.235.32.894.894 0 0 1-.313 1.229c-.072.042-1.096.638-2.5.638l-.006.006Z"/><path fill="#222C30" d="M114.11 71.122a5.714 5.714 0 0 1-2.355-.512.902.902 0 0 1-.404-1.21.898.898 0 0 1 1.205-.404c.03.018 1.524.71 2.946 0a.902.902 0 0 1 .807 1.614 4.86 4.86 0 0 1-2.205.512h.006ZM130.434 79.14a.906.906 0 0 1-.638-.264c-.759-.76-3.313-.85-4.886-.681a.897.897 0 0 1-.819-.35.9.9 0 0 1-.12-.885c.873-2.18-.066-7.103-.506-8.814a.902.902 0 0 1 1.747-.445c.06.24 1.319 5.253.777 8.614 1.506-.036 3.915.115 5.078 1.277a.899.899 0 0 1 0 1.278.91.91 0 0 1-.639.265l.006.006ZM136.524 52.935s-15.149-1.669-11.48 4.452c1.403 2.343 2.764-1.187 4.921-2.108a63.527 63.527 0 0 1 6.559-2.344ZM110.99 63.478s5.156-9.844 8.927-3.922c1.47 2.301-1.482 1.548-3.771 2.048-3.487.765-5.156 1.874-5.156 1.874Z"/><path fill="#222C30" d="M140.994 53.038c-13.023 0-26.534-6.838-27.371-7.266a.904.904 0 1 1 .825-1.608c.295.15 29.467 14.91 42.508 1.12a.904.904 0 0 1 1.314 1.241c-4.602 4.862-10.879 6.513-17.276 6.513Z"/><path fill="#222C30" d="M115.989 66.411a.994.994 0 0 1-.229-.03c-1.819-.482-9.59-5.44-11.517-19.416-1.175-8.524 4.753-22.778 15.137-29.61 6.235-4.102 16.547-7.24 30.269 1.067.644.392 1.752.615 3.035.874 5.397 1.09 14.433 2.91 19.396 21.223 3.048 11.248-3.843 20.47-4.138 20.856a.903.903 0 1 1-1.44-1.09c.067-.09 6.638-8.916 3.831-19.29-4.668-17.235-13.017-18.916-18.004-19.922-1.446-.29-2.699-.542-3.614-1.097-12.915-7.819-22.54-4.915-28.341-1.102-9.824 6.464-15.444 19.868-14.342 27.856 1.801 13.06 8.873 17.567 10.192 17.916a.903.903 0 0 1-.229 1.778l-.006-.013Z"/><path fill="#222C30" d="M207.222 50.628c-8.831 0-17.944-5.994-20.974-20.47-2.56-12.218-7.283-20.598-14.023-24.905-5.445-3.482-12.186-4.325-20.029-2.512-11.252 2.597-10.137 11.73-10.083 12.12a.904.904 0 0 1-1.789.248C140.306 15 138.957 3.946 151.793.988c8.337-1.928 15.541-1 21.408 2.753 7.168 4.585 12.155 13.35 14.818 26.061 3.24 15.458 13.8 20.513 22.823 18.663 6.035-1.235 9.969-5.277 9.144-9.398a.899.899 0 0 1 .71-1.06.9.9 0 0 1 1.061.71c1.024 5.127-3.512 10.08-10.554 11.525a20.01 20.01 0 0 1-3.981.404v-.018ZM191.657 72.538c-2.023 0-4.24-.271-6.644-.928-9.547-2.602-14.257-9.253-14.01-19.765 0-.247.012-.524.006-.62a.903.903 0 0 1 1.765-.392c.054.223.048.482.036 1.054-.229 9.572 4.042 15.62 12.679 17.976 8.903 2.428 14.981-.837 17.812-3 3.861-2.952 5.879-6.886 5.879-9.247a.903.903 0 1 1 1.807 0c0 3.325-2.711 7.717-6.59 10.681-2.325 1.777-6.65 4.235-12.74 4.235v.006Zm-20.642-21.296s0 .024.006.03c0-.012 0-.024-.006-.03Z"/><path fill="#222C30" d="M202.343 61.688c-3.193 0-6.915-1.096-10.957-3.27-8.252-4.44-11.74-15.11-14.824-24.526-2.705-8.27-5.265-16.084-10.445-18.572-7.403-3.555-12.993-1.916-15.661-.627-2.253 1.09-3.355 2.386-3.434 2.741a.89.89 0 0 1-1.006.777.908.908 0 0 1-.783-1.012c.139-1.132 1.627-2.62 3.777-3.795 2.434-1.325 9.053-3.964 17.896.283 5.873 2.82 8.548 10.988 11.379 19.64 3.12 9.536 6.348 19.391 13.962 23.494 6.247 3.367 11.553 3.982 14.939 1.735 3.662-2.428 5.168-8.235 4.349-16.79a.908.908 0 0 1 .813-.988c.5-.054.939.32.988.814.891 9.391-.838 15.602-5.151 18.464-1.632 1.084-3.602 1.62-5.836 1.62l-.006.012ZM160.89 53.839a.903.903 0 0 1-.181-1.79c.325-.186.91-.8 1.518-1.584a.909.909 0 0 1-1.259-.524c-.301-.91-.861-3.837.512-5.265.488-.506 1.392-1.018 2.94-.572 1.216.349 1.831 1.373 1.638 2.747-.337 2.415-3.716 6.988-5.162 6.988h-.006Zm2.427-8.103c-.235 0-.409.06-.53.187-.554.584-.427 2.458-.102 3.446.048.144.06.289.036.428.867-1.241 1.638-2.687 1.56-3.555-.018-.217-.078-.325-.355-.403a2.288 2.288 0 0 0-.609-.103ZM138.403 48.212h-.042c-9.776-.446-16.721-2.518-22.51-6.735a.905.905 0 0 1-.199-1.265.9.9 0 0 1 1.259-.199c5.488 3.988 12.126 5.958 21.534 6.386a.904.904 0 0 1-.042 1.807v.006ZM146.186 47.76c-.235 0-.458 0-.651-.012h-.108c-.5 0-.904-.41-.904-.91s.404-.903.904-.903h.163c2.132.072 7.36-.133 9.902-3.398a.902.902 0 0 1 1.422 1.109c-2.807 3.608-8.036 4.108-10.734 4.108l.006.006ZM156.202 89.454a.902.902 0 0 1-.903-.903V82.46a.903.903 0 1 1 1.807 0v6.09c0 .5-.404.904-.904.904ZM158.081 92.731a.902.902 0 0 1-.903-.903V79.647a.903.903 0 1 1 1.807 0v12.18c0 .5-.404.904-.904.904Z"/><path fill="#FDB932" d="M230.504 203.668c-4.566 0-9.427-2.578-10.271-3.422a.899.899 0 0 1 0-1.277.899.899 0 0 1 1.277 0c.723.723 7 3.868 11.282 2.585a.905.905 0 1 1 .518 1.735c-.897.271-1.843.385-2.806.385v-.006ZM234.52 296.249c-3.987 0-8.174-1.042-12.252-3.554-12.486-7.687-12.161-20.862-12.143-21.423.018-.5.422-.903.934-.867.5.018.885.434.873.934 0 .126-.283 12.699 11.282 19.819 11.963 7.362 24.932 1.079 29.69-6.283 4.855-7.5 5.096-34.82 3.608-47.2a.906.906 0 0 1 .789-1.006.906.906 0 0 1 1.006.789c1.458 12.139 1.404 40.218-3.885 48.399-3.536 5.47-11.246 10.392-19.908 10.392h.006ZM256.007 230.036a.9.9 0 0 1-.897-.807c-.018-.175-1.928-17.91-6.994-34.031-5.234-16.657-23.341-41.326-29.479-43.959a.91.91 0 0 1-.476-1.187.91.91 0 0 1 1.187-.476c7.168 3.073 25.365 28.754 30.491 45.08 5.12 16.301 7.048 34.206 7.066 34.386a.905.905 0 0 1-.801.994h-.097Z"/><path fill="#222C30" d="M274.753 272.212c-.06 0-.12 0-.18-.018a.904.904 0 0 1-.705-1.066c9.21-45.146-3.578-80.225-3.711-80.575a.903.903 0 1 1 1.693-.632c.132.355 13.101 35.916 3.789 81.568a.902.902 0 0 1-.886.723ZM248.043 400.613a.903.903 0 0 1-.807-1.307c1.807-3.621 16.986-80.207 24.757-120.202a.916.916 0 0 1 1.06-.717.913.913 0 0 1 .717 1.06c-.922 4.729-22.54 115.925-24.914 120.666a.894.894 0 0 1-.807.5h-.006ZM219.866 432.518c-21.202 0-28.846-3.85-28.925-3.892a.902.902 0 1 1 .832-1.603c.078.043 8.607 4.139 31.906 3.645 22.149-.464 32.136-1.849 32.232-1.867a.903.903 0 1 1 .259 1.789c-.096.012-10.191 1.422-32.448 1.885-1.332.031-2.621.043-3.856.043ZM286.589 426.15c-.422 0-.771-.036-1.048-.102a.905.905 0 0 1 .44-1.754c1.451.362 7.589-.807 17.89-5.488 9.74-4.427 25.901-23.217 27.69-29.464a.902.902 0 1 1 1.735.494c-1.91 6.675-18.372 25.922-28.678 30.609-8.867 4.03-15.132 5.705-18.023 5.705h-.006ZM178.226 25.724a.91.91 0 0 1-.873-.67c-2.801-10.258-11.469-17.078-20.595-16.204-9.09.867-11.324 7.09-11.415 7.355a.906.906 0 0 1-1.144.567.895.895 0 0 1-.566-1.139c.102-.307 2.644-7.597 12.95-8.579 10.024-.951 19.48 6.422 22.51 17.531a.9.9 0 0 1-.873 1.139h.006Z"/><path fill="#222C30" d="M177.291 48.212a.905.905 0 0 1-.747-.392c-2.356-3.427-3.012-7.536-3.705-11.885-.855-5.344-1.735-10.874-6.029-15.17-7.927-7.927-15.613-2.506-17.071-1.337a.907.907 0 0 1-1.271-.138.908.908 0 0 1 .138-1.271c1.024-.82 10.265-7.742 19.475 1.47 4.71 4.71 5.638 10.53 6.535 16.163.663 4.144 1.283 8.054 3.409 11.144a.903.903 0 0 1-.746 1.416h.012ZM133.429 448.41h-.391c-5.174-.025-17.595-.609-21.245-5.507-1.488-2-5.789-56.067-7.066-72.592a.9.9 0 0 1 .831-.97.89.89 0 0 1 .97.832c2.126 27.404 5.668 68.983 6.753 71.7 2.24 2.916 9.619 4.687 19.769 4.729h.403c12.698 0 25.396-2.705 27.865-5.958 1.488-2.494 5.699-43.615 8.162-70.634a.904.904 0 0 1 .982-.819.912.912 0 0 1 .819.982c-1.042 11.452-6.361 68.718-8.523 71.562-3.186 4.199-17.33 6.669-29.323 6.669l-.006.006Z"/><path fill="#FDB932" d="M134.862 410.595c-.482 0-.868-.156-1.151-.319-2.211-1.319-3.024-6.572-3.825-16.446a.904.904 0 0 1 .825-.976.912.912 0 0 1 .976.825c.368 4.53 1.133 13.958 2.946 15.043.078.042.216.132.548-.018.933-.41.891-1.356.283-5.229-.169-1.091-.362-2.326-.548-3.766-1.518-11.97-.35-12.265.277-12.422 1.018-.259 1.488.958 1.735 1.609l.126.337c.952 2.506 2.132 5.621 3.042 5.808.175.042.458-.133.777-.464.651-.675-.253-4.476-.982-7.537-.602-2.53-1.283-5.397-1.711-8.361-.692-4.802 0-7.29.025-7.392a.907.907 0 0 1 1.12-.62.906.906 0 0 1 .62 1.114c-.006.024-.602 2.271.024 6.639.416 2.885 1.091 5.711 1.681 8.199 1.12 4.711 1.861 7.825.524 9.211-.789.819-1.608 1.151-2.439.976-1.591-.326-2.615-2.422-3.729-5.259.072 1.994.307 4.819.699 7.928.18 1.415.373 2.638.536 3.717.62 3.963.958 6.15-1.343 7.162a2.622 2.622 0 0 1-1.055.235l.019.006Z"/><path fill="#FDB932" d="M130.452 412.565c-.59 0-1.15-.199-1.608-.59-2.217-1.868-2.494-4.53-3.307-12.434-.235-2.283-.392-3.958-.464-4.97-.084-1.163-.138-1.928.747-2.061.265-.042.904-.024 1.102.97a.908.908 0 0 1-.066.555c.036.65.157 2.096.488 5.319.807 7.795 1.084 9.892 2.674 11.235.241.205.525.175.717.115.5-.157 1.157-.765 1.5-2.006a.901.901 0 1 1 1.741.476c-.452 1.65-1.464 2.867-2.705 3.253a2.763 2.763 0 0 1-.813.126l-.006.012Z"/><path fill="#FDB932" d="M125.002 409.294h-.072c-.572-.024-1.38-.301-2.018-1.53-1.777-3.44-2.144-13.766-2.144-16.338a.903.903 0 1 1 1.807 0c0 4.103.566 12.862 1.939 15.513.193.379.386.554.476.554.295 0 .934-.621 1.259-1.151a.895.895 0 0 1 1.241-.295c.428.259.56.819.295 1.241-.211.337-1.313 2.012-2.795 2.012l.012-.006Z"/><path fill="#FDB932" d="M121.471 403.806c-.361 0-.753-.078-1.126-.367-.723-.561-1.096-1.693-1.331-4.043-.223-2.235-2.066-22.024 1.867-29.44.891-1.687 2.783-2.886 5.469-3.47 4.614-1.006 11.879-.036 16.824 3.759a.902.902 0 1 1-1.096 1.434c-4.512-3.464-11.132-4.344-15.342-3.428-2.12.464-3.632 1.367-4.259 2.548-2.994 5.639-2.457 20.513-1.668 28.41.241 2.41.596 2.76.638 2.79.06 0 .265-.03.41-.055l.241-.036a.897.897 0 0 1 1.018.777.905.905 0 0 1-.777 1.019l-.205.03c-.199.03-.428.066-.669.066l.006.006Z"/><path fill="#222C30" d="M106.443 367.046a.904.904 0 0 1-.44-1.693c.349-.199 8.891-4.849 31.738-4.645 6.499.055 10.921.278 14.788.735a.903.903 0 0 1 .789 1.006.9.9 0 0 1-1.006.79c-3.801-.452-8.162-.669-14.589-.723-22.233-.175-30.756 4.367-30.841 4.415a.879.879 0 0 1-.439.115Z"/><path fill="#222C30" d="M140.722 370.263a.9.9 0 0 1-.867-1.139c.422-1.56 1.307-2.229 1.97-2.518.783-.337 1.608-.313 2.289-.181-.025-1.036.379-2.421 2.548-3.686 1.909-1.121 3.59-.585 4.758.295.687-2.205 2.566-4.512 6.168-4.512 2.994 0 4.361 1.626 4.867 3.114.946-.422 2.392-.771 4.199-.307 3.331.849 4.162 4.325 4.192 4.47a.903.903 0 0 1-.681 1.084.904.904 0 0 1-1.084-.674c-.03-.115-.638-2.555-2.879-3.127-2.355-.602-3.783.657-3.795.669a.905.905 0 0 1-1.512-.669c-.006-.452-.199-2.747-3.313-2.747-3.837 0-4.674 3.355-4.674 4.651a.898.898 0 0 1-.651.867.91.91 0 0 1-1.018-.385c-.156-.241-1.602-2.374-3.674-1.163-1.903 1.114-1.717 2.006-1.548 2.795.048.229.09.44.09.663a.908.908 0 0 1-.439.777.903.903 0 0 1-.892.018c-.361-.193-1.482-.62-2.253-.283-.439.193-.747.626-.939 1.331a.906.906 0 0 1-.874.669l.012-.012Z"/><path fill="#222C30" d="M137.868 372.745a.903.903 0 0 1-.169-1.789c.102-.03.277-.103.452-.175.554-.217.717-.283.939-.283 19.776 0 32.016-3.35 32.016-6.452 0-2.874-12.523-6.886-32.919-6.886-20.396 0-32.925 4.012-32.925 6.886 0 1.024 1.56 3.614 15.987 5.434a.904.904 0 1 1-.229 1.795c-11.987-1.512-17.565-3.813-17.565-7.229 0-5.651 17.89-8.693 34.732-8.693s34.726 3.048 34.726 8.693-16.902 8.247-33.696 8.259c-.102.036-.253.097-.404.157-.554.217-.716.283-.939.283h-.006Z"/><path fill="#222C30" d="M120.183 375.522c-.042 0-.084 0-.132-.012-4.795-.699-7.988-1.717-11.313-3.024-2.873-1.133-4.686-2.699-5.403-4.651-.819-2.247.181-4.139.223-4.217a.903.903 0 1 1 1.59.856c-.024.048-.656 1.289-.102 2.765.536 1.433 2 2.632 4.355 3.56 3.295 1.301 6.27 2.241 10.909 2.916a.9.9 0 0 1-.127 1.795v.012ZM138.952 376.546a.904.904 0 0 1-.006-1.807c12.632-.121 23.474-1.868 27.648-3.542 5.331-2.133 4.56-6.79 4.524-6.989a.904.904 0 0 1 1.777-.319c.012.06 1.048 6.314-5.632 8.982-4.331 1.735-15.444 3.549-28.305 3.669h-.006v.006Z"/><path fill="#222C30" d="M137.868 419.204c-20.522 0-37.22-18.886-37.22-42.104 0-4.301 1.211-8.295 2.38-12.157l.379-1.253a.907.907 0 0 1 1.127-.608.907.907 0 0 1 .608 1.127l-.379 1.259c-1.133 3.735-2.301 7.596-2.301 11.632 0 22.218 15.89 40.297 35.412 40.297s35.412-18.079 35.412-40.297c0-4.132-1.078-9.897-2.144-13.783a.902.902 0 1 1 1.741-.476c1.102 4 2.211 9.964 2.211 14.265 0 23.218-16.698 42.104-37.22 42.104l-.006-.006Z"/><path fill="#FDB932" d="M299.438 167.227c-1.29 0-2.795-.114-4.518-.343-9.24-1.235-18.221-10.422-18.601-10.808a.899.899 0 0 1 .024-1.277.904.904 0 0 1 1.277.018c.091.091 8.927 9.127 17.541 10.278 6.71.897 7.903-.301 8.023-.458a.906.906 0 0 1 .892-.753c.5 0 .903.404.903.904 0 .162-.048.741-.68 1.295-.874.765-2.506 1.15-4.861 1.15v-.006Z"/><path fill="#FDB932" d="M302.871 165.685a.905.905 0 0 1-.638-.265c-7-7-22.107-7.566-22.251-7.566a.903.903 0 1 1 0-1.808c.156 0 15.908.476 23.528 8.097a.899.899 0 0 1 0 1.277.909.909 0 0 1-.639.265ZM277.572 153.637a.903.903 0 0 1-.904-.904c0-.711 4.192-17.97 10.68-21.862a.903.903 0 1 1 .933 1.548c-5.541 3.326-9.643 19.23-9.8 20.362a.905.905 0 0 1-.903.85l-.006.006ZM279.38 155.444a.901.901 0 0 1-.314-1.747c4.783-1.795 10.162-6.85 12.18-10.44 1.982-3.524.729-7.422-.151-7.982a.906.906 0 0 1-.277-1.247.905.905 0 0 1 1.247-.277c1.669 1.06 3.259 5.933.753 10.391-2.482 4.422-8.367 9.464-13.119 11.248a.84.84 0 0 1-.319.06v-.006Z"/><path fill="#222C30" d="M135.403 89.623c-2.494 0-4.608-1.934-5.542-3.235a.913.913 0 0 1-.15-.705.9.9 0 0 1 .409-.59l7.831-4.82a.894.894 0 0 1 .741-.096.93.93 0 0 1 .56.494c.952 2.15 1.843 6.669-1.627 8.404a4.922 4.922 0 0 1-2.228.542l.006.006Zm-3.434-3.542c.94.963 2.801 2.41 4.849 1.385 2-1 1.56-3.62 1.133-5.066l-5.982 3.68Z"/><path fill="#FDB932" d="M184.508 105.744h-.072a.9.9 0 0 1-.831-.97c1.752-22.766-4.831-28.495-4.898-28.555a.901.901 0 0 1-.12-1.271.9.9 0 0 1 1.271-.12c.301.252 7.367 6.391 5.548 30.084a.9.9 0 0 1-.898.832Z"/><path fill="#222C30" d="M254.368 199.186a.907.907 0 0 1-.837-.566.906.906 0 0 1 .5-1.175c20.667-8.283 27.178-20.958 28.166-23.139-13.589-31.513-23.516-49.321-54.887-75.695-22.377-18.814-35.442-20.796-41.249-20.302a.912.912 0 0 1-.976-.825.901.901 0 0 1 .826-.976c6.083-.518 19.691 1.488 42.562 20.718 31.786 26.717 41.755 44.718 55.537 76.718a.911.911 0 0 1 .012.681c-.235.615-6.029 15.157-29.322 24.495a.94.94 0 0 1-.338.066h.006Z"/><path fill="#FDB932" d="M168.87 112.298c-.422 0-.832-.048-1.217-.138-1.578-.38-5.126-2.181-3.903-10.615a.904.904 0 1 1 1.789.259c-.705 4.904.217 8.042 2.542 8.603 3.788.915 10.258-4.687 13.516-14.181.79-2.302 1.392-4.434 1.789-6.344a.904.904 0 0 1 1.067-.699.9.9 0 0 1 .698 1.066c-.415 1.982-1.036 4.193-1.849 6.56-3.427 9.995-9.83 15.489-14.426 15.489h-.006Z"/><path fill="#222C30" d="M147.408 277.291c-1.036 0-1.976-.229-2.416-.784a1.177 1.177 0 0 1-.144-1.283c.21-.428.439-.843.674-1.265 1.042-1.892 2.223-4.036 2.849-9.283.759-6.374.031-9.272.025-9.302a.902.902 0 0 1 .644-1.102.901.901 0 0 1 1.102.638c.036.127.832 3.199.024 9.983-.668 5.596-1.939 7.903-3.06 9.94-.114.204-.222.403-.331.602.645.096 1.843.078 3.12-.476 1.247-.542 2.831-1.729 3.301-4.313.759-4.169.693-5.29.657-5.512a.895.895 0 0 1 .181-.976.903.903 0 0 1 1.277-.03c.307.295.771.734-.338 6.837-.56 3.097-2.602 5.307-5.596 6.066a8.09 8.09 0 0 1-1.975.253l.006.007Z"/><path fill="#222C30" d="M153.486 274.724a.903.903 0 1 1 0-1.807c.054 0 2.674-.036 4.18-1.542 1.337-1.338 1.524-3.133 1.933-7.073.067-.626.133-1.301.217-2.03a.912.912 0 0 1 1-.801c.494.054.856.5.801 1-.078.723-.15 1.391-.216 2.018-.428 4.109-.663 6.368-2.452 8.163-2.048 2.048-5.319 2.072-5.457 2.072h-.006Z"/><path fill="#222C30" d="M159.66 271.712a.9.9 0 0 1-.898-.837.907.907 0 0 1 .825-.97c.109-.012 2.199-.259 3.301-3.048.446-1.127.53-2.32.639-3.838.09-1.253.193-2.669.518-4.428a.904.904 0 0 1 1.054-.729.915.915 0 0 1 .729 1.055c-.301 1.656-.404 3.024-.488 4.235-.115 1.602-.217 2.988-.765 4.373-1.536 3.886-4.704 4.175-4.837 4.181h-.072l-.006.006Z"/><path fill="#222C30" d="M164.328 268.098a.904.904 0 0 1-.542-1.627c.024-.018 2.228-1.705 3.319-4.434.385-.964.445-2.566.512-4.422.126-3.427.289-7.693 2.566-11.38.024-.036.048-.072.072-.102.15-.181 15.089-18.175 22.781-32.971 6.999-13.458 19.209-45.272 19.336-45.591a.902.902 0 0 1 1.168-.518c.464.18.699.698.518 1.168-.12.32-12.372 32.23-19.42 45.779-7.583 14.584-22.064 32.163-22.956 33.242-1.999 3.271-2.15 7.247-2.264 10.446-.079 2.024-.139 3.765-.645 5.024-1.283 3.211-3.807 5.126-3.909 5.205a.921.921 0 0 1-.542.181h.006Z"/></g><defs><clipPath id="a"><path fill="#fff" d="M0 0h336v451H0z"/></clipPath></defs></svg>