<svg xmlns="http://www.w3.org/2000/svg" width="461" height="461" fill="none"><path fill="#FAFAFA" d="M71.603 220.008c-87.756 50.664-87.747 132.768 0 183.478 87.746 50.71 230.029 50.664 317.785 0 87.756-50.664 87.747-132.768 0-183.478-87.746-50.71-230.03-50.664-317.785 0Z"/><path fill="#E0E0E0" d="M80.076 410.023c28.306 0 51.254-13.251 51.254-29.597 0-16.345-22.948-29.596-51.254-29.596-28.307 0-51.254 13.251-51.254 29.596 0 16.346 22.947 29.597 51.254 29.597ZM239.72 332.63l106.768 61.719a1.515 1.515 0 0 0 1.41 0l67.306-38.853c.387-.231.387-.591 0-.812L308.4 292.956a1.568 1.568 0 0 0-1.402 0l-67.306 38.863c-.35.221-.35.58.028.811ZM343.076 262.069l-169.934 98.11a8.82 8.82 0 0 1-7.984 0l-49.991-28.868c-2.204-1.272-2.204-3.337 0-4.61l169.925-98.1a8.82 8.82 0 0 1 7.984 0l50 28.858c2.204 1.273 2.204 3.338 0 4.61Z"/><path fill="#E0E0E0" d="m378.352 358.51 69.15-39.231c1.392-.793 1.401-2.083 0-2.895l-67.168-39.378a5.527 5.527 0 0 0-5.006 0l-69.132 39.24c-1.383.793-1.392 2.084 0 2.895l67.168 39.379a5.53 5.53 0 0 0 4.988-.01Z"/><path fill="#7F3A6A" d="m292.357 230.362 3.264-1.844s17.333-56.537 18.947-59.81c1.613-3.274-1.3-4.952-4.426-3.154l-162.696 93.768c-3.116 1.844-4.103 4.278-6.878 9.672-2.775 5.393-18.44 57.348-18.44 57.348a2.907 2.907 0 0 0 1.402 3.052l37.036 21.455 170.192-98.221-38.401-22.266Z"/><path fill="#fff" d="m292.357 230.362 3.264-1.844s17.333-56.537 18.947-59.81c1.613-3.274-1.3-4.952-4.426-3.154l-162.696 93.768c-3.116 1.844-4.103 4.278-6.878 9.672-2.775 5.393-18.44 57.348-18.44 57.348a2.907 2.907 0 0 0 1.402 3.052l37.036 21.455 170.192-98.221-38.401-22.266Z" opacity=".35"/><path fill="#7F3A6A" d="M142.615 270.303c-2.111 4.084-18.44 57.164-18.44 57.164l173.511-100.185s17.205-53.946 18.929-57.321c1.724-3.374-1.309-4.951-4.426-3.144l-162.696 93.814c-3.125 1.798-4.739 5.578-6.878 9.672Z"/><path fill="#000" d="M142.615 270.303c-2.111 4.084-18.44 57.164-18.44 57.164l173.511-100.185s17.205-53.946 18.929-57.321c1.724-3.374-1.309-4.951-4.426-3.144l-162.696 93.814c-3.125 1.798-4.739 5.578-6.878 9.672Z" opacity=".15"/><path fill="#7F3A6A" d="m294.385 229.2-170.182 98.248 37.691 21.76 170.174-98.249-37.683-21.759Z"/><path fill="#7F3A6A" d="m306.233 105.292-163.959 94.487c-3.596 2.074-4.712 5.431-4.085 9.856l19.408 136.17c.627 4.426 4.159 7.017 7.754 4.942l162.503-93.786c3.596-2.074 5.993-7.376 5.357-11.774l-19.362-135.635c-.6-4.444-4.057-6.288-7.616-4.26Z"/><path fill="#fff" d="m306.233 105.292-163.959 94.487c-3.596 2.074-4.712 5.431-4.085 9.856l19.408 136.17c.627 4.426 4.159 7.017 7.754 4.942l162.503-93.786c3.596-2.074 5.993-7.376 5.357-11.774l-19.362-135.635c-.6-4.444-4.057-6.288-7.616-4.26Z" opacity=".35"/><path fill="#455A64" d="M317.279 108.178a5.077 5.077 0 0 0-4.417.554l-162.511 93.785a10.913 10.913 0 0 0-4.149 4.758l-5.237-2.222c1.152-2.517 3.162-3.439 4.886-4.444l162.493-93.786a5.001 5.001 0 0 1 4.61-.47l4.325 1.825Z"/><path fill="#263238" d="M162.862 352.112c-1.604-.655-2.766-2.333-3.153-4.767l-19.224-134.962c-.396-2.766-.525-5.246.48-7.33l5.246 2.222a10.85 10.85 0 0 0-.397.922c-.129.341-.175.489-.249.728a.303.303 0 0 0 0 .12 6.976 6.976 0 0 0-.249.848c-.073.295-.147.59-.193.922a5.668 5.668 0 0 0-.092.673 10.66 10.66 0 0 0 0 2.877L164.393 350c.359 2.462 1.576 4.149 3.208 4.804l-4.739-2.692Z"/><path fill="#37474F" d="m312.853 108.741-163.95 94.486c-3.596 2.075-4.721 5.431-4.084 9.856l19.5 136.853c.636 4.426 4.066 6.334 7.662 4.26l162.493-93.786c3.596-2.075 6.002-7.376 5.366-11.774l-19.362-135.645c-.599-4.425-4.029-6.334-7.625-4.25Z"/><path fill="#263238" d="m324.544 259.792-145.095 83.699c-1.844 1.079-3.642.092-3.965-2.203l-19.131-134.234a6.449 6.449 0 0 1 2.766-6.104l145.049-83.708c1.844-1.079 3.642-.083 3.964 2.212l19.178 134.234a6.45 6.45 0 0 1-2.766 6.104Z"/><path fill="#FAFAFA" d="m156.353 207.054 19.131 134.234a2.972 2.972 0 0 0 0 .267l145.095-83.708a6.46 6.46 0 0 0 2.238-2.665 6.46 6.46 0 0 0 .528-3.439l-19.168-134.501-145.049 83.754a6.457 6.457 0 0 0-2.775 6.058Z"/><path fill="#263238" d="M163.747 290.172a3.249 3.249 0 0 1-1.401 3.07c-.922.535-1.844.046-1.992-1.115a3.271 3.271 0 0 1 1.392-3.071c.941-.534 1.835-.037 2.001 1.116ZM157.404 258.741a2.513 2.513 0 0 0-1.088 2.388l3.172 22.128c.129.922.82 1.281 1.548.857a2.514 2.514 0 0 0 1.088-2.388l-3.171-22.128c-.129-.894-.821-1.281-1.549-.857Z"/><path fill="#F0F0F0" d="m172.414 268.892 1.125.48a2.353 2.353 0 0 0 1.844-.074l59.386-34.289a1.539 1.539 0 0 0 .737-1.42l-8.657-60.437a1.99 1.99 0 0 0-1.134-1.356l-1.125-.479a2.394 2.394 0 0 0-1.844.074L163.36 205.68a1.549 1.549 0 0 0-.738 1.429l8.658 60.437a1.994 1.994 0 0 0 1.134 1.346Z"/><path fill="#fff" d="m175.447 269.298 59.386-34.289a1.542 1.542 0 0 0 .738-1.42l-8.658-60.437a.604.604 0 0 0-.364-.523.613.613 0 0 0-.631.089l-59.386 34.29a1.542 1.542 0 0 0-.738 1.429l8.658 60.437c.064.507.516.7.995.424Z"/><path fill="#E0E0E0" d="M175.014 269.593a.706.706 0 0 1-.313-.074.76.76 0 0 1-.415-.627l-8.658-60.428a1.7 1.7 0 0 1 .821-1.604l59.376-34.28a.917.917 0 0 1 .839-.083.76.76 0 0 1 .415.627l8.658 60.437a1.704 1.704 0 0 1-.821 1.595l-59.386 34.289a1.1 1.1 0 0 1-.516.148Zm51.328-96.81a.76.76 0 0 0-.341.101l-59.386 34.289a1.383 1.383 0 0 0-.655 1.199l8.658 60.437a.437.437 0 0 0 .23.378.576.576 0 0 0 .516-.074l59.386-34.28a1.387 1.387 0 0 0 .655-1.263l-8.658-60.437a.471.471 0 0 0-.23-.369.397.397 0 0 0-.175 0v.019Z"/><path fill="#E0E0E0" d="M175.318 269.362a2.412 2.412 0 0 1-1.742 0l-1.125-.479a2.002 2.002 0 0 1-1.134-1.346l-8.658-60.437c-.03-.278.028-.559.166-.802l3.135 1.336a1.4 1.4 0 0 0-.157.803l8.649 60.437a.595.595 0 0 0 .866.488Z"/><path fill="#7F3A6A" d="m218.791 237.655-4.712-32.953-3.669-1.548 4.711 32.943 3.67 1.558Z"/><path fill="#000" d="m218.791 237.655-4.712-32.953-3.669-1.548 4.711 32.943 3.67 1.558Z" opacity=".2"/><path fill="#7F3A6A" d="m218.791 237.655 9.238-5.339-4.711-32.943-9.239 5.329 4.712 32.953Z"/><path fill="#7F3A6A" d="m223.318 199.373-3.67-1.558-9.238 5.338 3.669 1.549 9.239-5.329Z"/><path fill="#fff" d="m223.318 199.373-3.67-1.558-9.238 5.338 3.669 1.549 9.239-5.329Z" opacity=".25"/><path fill="#fff" d="m223.318 199.373-9.22 5.21-3.688-1.43 3.559 1.743c.055.968 4.536 31.781 4.822 32.759 0-.987-4.343-31.874-4.555-32.805l9.082-5.477Z" opacity=".3"/><path fill="#7F3A6A" d="m201.475 247.658-3.789-26.47-3.67-1.558 3.79 26.47 3.669 1.558Z"/><path fill="#fff" d="m201.475 247.658-3.789-26.47-3.67-1.558 3.79 26.47 3.669 1.558Z" opacity=".1"/><path fill="#7F3A6A" d="m201.475 247.658 9.239-5.338-3.79-26.461-9.238 5.329 3.789 26.47Z"/><path fill="#fff" d="m201.475 247.658 9.239-5.338-3.79-26.461-9.238 5.329 3.789 26.47Z" opacity=".3"/><path fill="#7F3A6A" d="m206.924 215.859-3.669-1.559-9.239 5.33 3.67 1.558 9.238-5.329Z"/><path fill="#fff" d="m206.924 215.859-3.669-1.559-9.239 5.33 3.67 1.558 9.238-5.329Z" opacity=".55"/><path fill="#fff" d="m197.824 221.28 9.1-5.394-9.22 5.21c-1.161-.489-3.688-1.439-3.688-1.439s2.361 1.116 3.55 1.632c.102.996 3.688 25.383 3.909 26.397-.073-1.051-3.476-25.484-3.651-26.406Z" opacity=".3"/><path fill="#7F3A6A" d="m184.151 257.653-3.181-22.211-3.669-1.558 3.18 22.211 3.67 1.558Z"/><path fill="#000" d="m184.151 257.653-3.181-22.211-3.669-1.558 3.18 22.211 3.67 1.558Z" opacity=".45"/><path fill="#7F3A6A" d="m184.151 257.653 9.238-5.329-3.18-22.22-9.239 5.338 3.181 22.211Z"/><path fill="#000" d="m184.151 257.653 9.238-5.329-3.18-22.22-9.239 5.338 3.181 22.211Z" opacity=".3"/><path fill="#7F3A6A" d="m190.209 230.104-3.67-1.549-9.238 5.329 3.669 1.558 9.239-5.338Z"/><path fill="#000" d="m190.209 230.104-3.67-1.549-9.238 5.329 3.669 1.558 9.239-5.338Z" opacity=".15"/><path fill="#fff" d="m190.209 230.104-9.22 5.209-3.688-1.429 3.549 1.705s3.061 21.465 3.301 22.064c.065-.609-3.015-22.064-3.015-22.064l9.073-5.485Z" opacity=".3"/><path fill="#7F3A6A" d="m220.413 184.981-.949-.397-7.293 2.665 1.88 1.291-18.762 20.671-5.025-3.457-.941-.406-14.641 16.135 2.25 1.54.949.405 12.742-14.051 4.666 3.135 1.42.608 20.394-22.478 1.079.719.95.406 1.281-6.786Z"/><path fill="#fff" d="m220.413 184.981-.949-.397-7.293 2.665 1.88 1.291-18.762 20.671-5.025-3.457-.941-.406-14.641 16.135 2.25 1.54.949.405 12.742-14.051 4.666 3.135 1.42.608 20.394-22.478 1.079.719.95.406 1.281-6.786Z" opacity=".25"/><path fill="#7F3A6A" d="m220.413 184.981-1.281 6.786-1.881-1.282-20.542 22.635-5.827-4.01-13.001 14.318-2.258-1.539 14.641-16.135 5.836 4.01 18.892-20.828-1.881-1.281 7.302-2.674Z"/><path fill="#7F3A6A" d="m190.882 209.11-.259.267 4.666 3.135 1.42.608-5.827-4.01Z"/><path fill="#000" d="m190.882 209.11-.259.267 4.666 3.135 1.42.608-5.827-4.01Z" opacity=".2"/><path fill="#7F3A6A" d="m214.051 188.54.941.396-1.881-1.281-.94-.406 1.88 1.291Z"/><path fill="#000" d="m214.051 188.54.941.396-1.881-1.281-.94-.406 1.88 1.291Z" opacity=".2"/><path fill="#7F3A6A" d="m217.103 190.642.148-.157 1.881 1.282-.95-.406-1.079-.719Z"/><path fill="#000" d="m217.103 190.642.148-.157 1.881 1.282-.95-.406-1.079-.719Z" opacity=".2"/><path fill="#7F3A6A" d="m174.682 221.483.941.406 2.258 1.539-.949-.405-2.25-1.54Z"/><path fill="#000" d="m174.682 221.483.941.406 2.258 1.539-.949-.405-2.25-1.54Z" opacity=".2"/><path fill="#fff" d="m180.445 216.569 9.865-10.502 5.79 3.697-5.836-4.01-9.819 10.815ZM204.758 200.222l10.492-11.295-1.807-1.217 6.97-2.729-7.302 2.674 1.881 1.281-10.234 11.286Z" opacity=".5"/><path fill="#7F3A6A" d="M237.553 241.675a1.197 1.197 0 0 0-.977.156l-59.423 34.317a2.458 2.458 0 0 0-1.171 2.268l7.099 49.558a1 1 0 0 0 .517.793c-.268-.129-2.674-1.125-2.969-1.254a1.014 1.014 0 0 1-.544-.802l-7.09-49.558a2.451 2.451 0 0 1 1.171-2.277l59.423-34.317a1.2 1.2 0 0 1 1.051-.129c.258.12 2.314.986 2.913 1.245Z"/><path fill="#fff" d="M237.553 241.675c-.571-.259-2.655-1.125-2.913-1.245a1.2 1.2 0 0 0-1.051.129l-59.423 34.317a2.505 2.505 0 0 0-.922.996l2.987 1.272c.205-.414.525-.76.922-.996l59.423-34.317a1.218 1.218 0 0 1 .977-.156Z" opacity=".2"/><path fill="#7F3A6A" d="m177.153 276.148 59.423-34.317c.765-.442 1.475-.138 1.595.673l7.081 49.558a2.464 2.464 0 0 1-1.162 2.277l-59.432 34.317c-.765.433-1.475.138-1.586-.682l-7.09-49.53a2.444 2.444 0 0 1 1.171-2.296Z"/><path fill="#fff" d="m177.153 276.148 59.423-34.317c.765-.442 1.475-.138 1.595.673l7.081 49.558a2.464 2.464 0 0 1-1.162 2.277l-59.432 34.317c-.765.433-1.475.138-1.586-.682l-7.09-49.53a2.444 2.444 0 0 1 1.171-2.296Z" opacity=".5"/><path fill="#7F3A6A" d="m176.24 277.144-2.987-1.272a2.08 2.08 0 0 0-.258 1.281l7.09 49.558a1.02 1.02 0 0 0 .544.802c.295.129 2.701 1.125 2.969 1.254a.996.996 0 0 1-.516-.793l-7.1-49.53c-.05-.45.04-.904.258-1.3Z"/><path fill="#000" d="m176.24 277.144-2.987-1.272a2.08 2.08 0 0 0-.258 1.281l7.09 49.558a1.02 1.02 0 0 0 .544.802c.295.129 2.701 1.125 2.969 1.254a.996.996 0 0 1-.516-.793l-7.1-49.53c-.05-.45.04-.904.258-1.3Z" opacity=".15"/><path fill="#FAFAFA" d="m219.888 290.928 5.928 5.891-25.401-16.909-19.067 35.958 1.734 12.069c.11.82.82 1.116 1.585.682l59.432-34.317a2.482 2.482 0 0 0 1.171-2.277l-.922-6.629-18.541-9.829-5.919 15.361ZM218.44 261.47c2.766-1.595 5.366-.498 5.781 2.462.415 2.959-1.475 6.647-4.25 8.242-2.775 1.595-5.357.507-5.781-2.452-.424-2.96 1.484-6.648 4.25-8.252Z" opacity=".95"/><path fill="#7F3A6A" d="M237.304 242.219c.129 0 .176.276.176.313l7.099 49.558a1.965 1.965 0 0 1-.922 1.751l-59.423 34.317a.626.626 0 0 1-.304.102c-.139 0-.185-.277-.185-.314l-7.099-49.557a1.986 1.986 0 0 1 .922-1.752l59.386-34.308a.6.6 0 0 1 .313-.11m-.092-.59a1.42 1.42 0 0 0-.636.202l-59.423 34.317a2.438 2.438 0 0 0-1.171 2.268l7.1 49.558a.925.925 0 0 0 .922.876c.224-.011.443-.078.636-.194l59.432-34.317a2.459 2.459 0 0 0 1.162-2.277l-7.026-49.576a.921.921 0 0 0-.922-.876l-.074.019Z"/><path fill="#E0E0E0" d="M235.11 170.459a1.15 1.15 0 0 1-1.005-.58 1.175 1.175 0 0 1 .424-1.596l63.618-36.649a1.174 1.174 0 0 1 1.134 2.056l-63.618 36.65a1.08 1.08 0 0 1-.553.119ZM236.327 178.785a1.164 1.164 0 0 1-1.084-1.614c.1-.238.278-.436.503-.562l63.618-36.649a1.16 1.16 0 0 1 1.291.086c.122.094.223.21.3.342a1.177 1.177 0 0 1 .115.884 1.181 1.181 0 0 1-.544.707l-63.618 36.649c-.175.106-.377.16-.581.157ZM237.553 187.111a1.182 1.182 0 0 1-1.014-.59 1.162 1.162 0 0 1-.116-.884 1.16 1.16 0 0 1 .549-.702l63.618-36.65a1.154 1.154 0 0 1 1.586.424 1.169 1.169 0 0 1-.424 1.595l-63.618 36.65a1.196 1.196 0 0 1-.581.157ZM238.798 195.464a1.174 1.174 0 0 1-1.127-.87 1.17 1.17 0 0 1 .546-1.315l63.618-36.65a1.174 1.174 0 0 1 1.516.47 1.169 1.169 0 0 1-.345 1.55l-63.618 36.658c-.18.102-.383.156-.59.157ZM240.006 203.762a1.155 1.155 0 0 1-1.014-.581 1.15 1.15 0 0 1-.117-.888 1.16 1.16 0 0 1 .55-.707l63.618-36.649a1.172 1.172 0 0 1 1.36.017 1.167 1.167 0 0 1 .426 1.291 1.165 1.165 0 0 1-.615.711l-63.618 36.649c-.179.106-.383.16-.59.157ZM241.232 212.06a1.17 1.17 0 0 1-.59-2.176l38.724-22.321a1.16 1.16 0 0 1 1.59.428 1.16 1.16 0 0 1-.086 1.292c-.093.121-.21.222-.342.299l-38.724 22.321a1.119 1.119 0 0 1-.572.157ZM243.675 228.73a1.166 1.166 0 0 1-1.005-.59 1.17 1.17 0 0 1 .425-1.595l63.618-36.65a1.174 1.174 0 0 1 1.595.433 1.16 1.16 0 0 1-.089 1.291c-.094.12-.211.221-.345.295l-63.618 36.659c-.177.1-.377.154-.581.157ZM244.902 237.046a1.165 1.165 0 0 1-1.137-.862 1.163 1.163 0 0 1 .556-1.314l63.627-36.64a1.158 1.158 0 0 1 .884-.115 1.151 1.151 0 0 1 .706.544 1.155 1.155 0 0 1 .115.884 1.157 1.157 0 0 1-.543.706l-63.618 36.65a1.1 1.1 0 0 1-.59.147ZM246.174 245.372a1.164 1.164 0 0 1-1.084-1.614c.1-.238.278-.436.503-.562l63.618-36.65a1.167 1.167 0 0 1 1.591.429 1.167 1.167 0 0 1-.429 1.591l-63.618 36.649a1.1 1.1 0 0 1-.581.157ZM247.354 253.698a1.174 1.174 0 0 1-1.13-1.474 1.156 1.156 0 0 1 .549-.702l63.618-36.659a1.175 1.175 0 0 1 1.6.429 1.173 1.173 0 0 1-.429 1.599l-63.618 36.65a1.184 1.184 0 0 1-.59.157ZM248.58 262.023a1.174 1.174 0 0 1-1.127-.87 1.174 1.174 0 0 1 .547-1.315l63.618-36.649a1.166 1.166 0 0 1 1.516.469 1.171 1.171 0 0 1-.346 1.55l-63.618 36.658c-.18.102-.383.156-.59.157ZM249.807 270.34a1.165 1.165 0 0 1-1.137-.862 1.161 1.161 0 0 1 .556-1.314l63.618-36.65a1.17 1.17 0 1 1 1.171 2.019l-63.618 36.65c-.179.106-.383.16-.59.157ZM251.033 278.665a1.17 1.17 0 0 1-.59-2.176l63.618-36.649c.132-.076.279-.126.43-.146a1.178 1.178 0 0 1 .861.232 1.17 1.17 0 0 1 .213 1.634 1.18 1.18 0 0 1-.342.299l-63.618 36.65a1.13 1.13 0 0 1-.572.156ZM252.259 286.991a1.171 1.171 0 0 1-.59-2.185l24.452-14.088a1.17 1.17 0 0 1 1.161 2.028l-24.442 14.088c-.177.1-.377.154-.581.157Z"/><path fill="#455A64" d="M247.234 389.656a5.54 5.54 0 0 1 5.394-2.324c2.84.351 5.421 2.001 5.486 2.342.064.341-2.351 2.176-5.707 2.176a6.453 6.453 0 0 1-5.173-2.194ZM241.251 393.491a5.524 5.524 0 0 1 2.982-.646 5.525 5.525 0 0 1 2.872 1.033c2.37 1.605 3.919 4.26 3.817 4.61-.101.351-3.088.922-6.076-.636a6.447 6.447 0 0 1-3.595-4.361ZM236.816 390.301a5.536 5.536 0 0 1 1.401-5.698c1.992-2.056 4.555-3.181 4.868-3.033.314.147.388 3.54-1.244 6.066a5.798 5.798 0 0 1-5.025 2.665Z"/><path fill="#37474F" d="M217.085 404.564a22.573 22.573 0 0 1 5.532-5.412 43.639 43.639 0 0 1 6.067-3.845 56.693 56.693 0 0 1 14.014-5.135 30.294 30.294 0 0 1 9.58-.922c.073 0 .092.175 0 .175a45.615 45.615 0 0 0-8.612 1.466 52.305 52.305 0 0 0-19.15 8.593 75.328 75.328 0 0 0-6.675 5.698.489.489 0 0 1-.756-.618Z"/><path fill="#37474F" d="M235.562 392.256a17.714 17.714 0 0 1 1.715-3.486 9.971 9.971 0 0 1 2.434-2.766c.138-.101.064.148 0 .24a29.343 29.343 0 0 0-1.844 2.766 12.532 12.532 0 0 0-1.291 3.273.774.774 0 0 1-.682.572.416.416 0 0 1-.376-.405.397.397 0 0 1 .044-.194Z"/><path fill="#37474F" d="M236.032 392.2a14.155 14.155 0 0 1 5.338.867c.792.247 1.562.555 2.305.922a9.65 9.65 0 0 1 2.444 1.632s.129.249.064.212a27.94 27.94 0 0 0-2.581-1.272 15.711 15.711 0 0 0-2.481-.839 23.054 23.054 0 0 0-5.163-.784c-.35-.037-.23-.719.074-.738Z"/><path fill="#455A64" d="M231.422 397.382a5.526 5.526 0 0 1 5.809-.839c2.646 1.079 4.711 3.347 4.683 3.688-.027.341-2.839 1.503-6.076.636a6.454 6.454 0 0 1-4.416-3.485Z"/><path fill="#37474F" d="M226.01 397.17a14.208 14.208 0 0 1 5.403-.267c.824.07 1.641.206 2.443.405.972.22 1.905.587 2.766 1.088 0 0 .175.221.102.194a26.663 26.663 0 0 0-2.766-.701 14.773 14.773 0 0 0-2.601-.313 23.43 23.43 0 0 0-5.209.313c-.424.055-.442-.636-.138-.719Z"/><path fill="#455A64" d="M238.909 366.541a6.063 6.063 0 0 0 2.406-5.974c-.452-3.108-2.333-5.892-2.701-5.957-.369-.064-2.352 2.637-2.269 6.307a7.03 7.03 0 0 0 2.564 5.624ZM234.852 373.198a6.025 6.025 0 0 0-.572-6.408c-1.844-2.563-4.776-4.186-5.135-4.075-.36.11-.922 3.42.866 6.657a7.011 7.011 0 0 0 4.841 3.826ZM238.466 378.02a6.02 6.02 0 0 0 6.214-1.678c2.204-2.231 3.375-5.08 3.2-5.412-.175-.332-3.882-.341-6.611 1.521-2.978 1.992-2.674 4.647-2.803 5.569Z"/><path fill="#37474F" d="M223.327 400a24.657 24.657 0 0 0 5.799-6.177 48.078 48.078 0 0 0 4.057-6.749 61.544 61.544 0 0 0 5.274-15.508 33.178 33.178 0 0 0 .774-10.529c0-.083-.193-.093-.202 0a49.177 49.177 0 0 1-1.383 9.487 58.013 58.013 0 0 1-2.296 8.298 59.427 59.427 0 0 1-6.629 12.973 84.198 84.198 0 0 1-6.086 7.477c-.433.461.111 1.134.692.728Z"/><path fill="#37474F" d="M236.355 379.412a18.932 18.932 0 0 0 3.78-1.973 10.677 10.677 0 0 0 3.006-2.766c.11-.157-.166-.074-.259 0a31.59 31.59 0 0 1-2.996 2.084 13.863 13.863 0 0 1-3.559 1.493.865.865 0 0 0-.618.775.452.452 0 0 0 .646.387Z"/><path fill="#37474F" d="M236.41 378.887a15.692 15.692 0 0 0-1.088-5.837 18.092 18.092 0 0 0-1.06-2.507 10.336 10.336 0 0 0-1.844-2.637s-.277-.129-.231-.056a28.364 28.364 0 0 1 1.457 2.766c.41.87.743 1.774.996 2.702a25.83 25.83 0 0 1 .986 5.633c.019.434.766.277.784-.064Z"/><path fill="#455A64" d="M230.878 384.142a6.038 6.038 0 0 0 .775-6.399c-1.245-2.876-3.79-5.08-4.168-5.043-.378.037-1.577 3.153-.544 6.685a7.075 7.075 0 0 0 3.937 4.757Z"/><path fill="#37474F" d="M231.219 390.006c.427-1.952.477-3.967.148-5.938a19.128 19.128 0 0 0-.507-2.674 10.788 10.788 0 0 0-1.264-2.959s-.248-.185-.221-.111c.34.998.623 2.013.848 3.043.214.937.35 1.89.406 2.849a25.602 25.602 0 0 1-.203 5.716c-.055.415.701.424.793.074Z"/><path fill="#7F3A6A" d="M155.818 388.356a22.94 22.94 0 0 1 8.473-7.837c13.83-8.003 36.336-8.003 50.203 0a22.932 22.932 0 0 1 8.473 7.837h1.918v7.256c-.249 5.043-3.688 10.04-10.363 13.885-13.83 8.003-36.336 8.003-50.203 0-6.666-3.845-10.142-8.842-10.391-13.885v-7.256h1.89Z"/><path fill="#000" d="M155.818 388.356a22.94 22.94 0 0 1 8.473-7.837c13.83-8.003 36.336-8.003 50.203 0a22.932 22.932 0 0 1 8.473 7.837h1.918v7.256c-.249 5.043-3.688 10.04-10.363 13.885-13.83 8.003-36.336 8.003-50.203 0-6.666-3.845-10.142-8.842-10.391-13.885v-7.256h1.89Z" opacity=".25"/><path fill="#000" d="M189.351 374.516c9.082 0 18.173 2.001 25.106 6.003a22.932 22.932 0 0 1 8.473 7.837h1.918v7.256c-.249 5.043-3.688 10.04-10.363 13.885-6.934 4.002-16.025 6.002-25.106 6.002l-.028-40.983Z" opacity=".1"/><path fill="#000" d="M208.741 377.845a39.625 39.625 0 0 1 5.716 2.674 22.932 22.932 0 0 1 8.473 7.837h1.918v7.256c-.249 5.043-3.688 10.04-10.363 13.885a39.634 39.634 0 0 1-5.717 2.683l-.027-34.335Z" opacity=".1"/><path fill="#7F3A6A" d="M169.971 377.845a39.637 39.637 0 0 0-5.717 2.674 22.94 22.94 0 0 0-8.473 7.837h-1.918v7.256c.249 5.043 3.688 10.04 10.391 13.885a39.634 39.634 0 0 0 5.717 2.683v-34.335Z" opacity=".5"/><path fill="#7F3A6A" d="M214.457 373.871c13.83 8.003 13.83 20.985 0 28.978-12.133 7.008-30.85 7.884-44.634 2.628l-.553-.212a38.047 38.047 0 0 1-5.016-2.416c-11.552-6.666-13.479-16.798-5.753-24.626a27.172 27.172 0 0 1 5.753-4.352c13.858-8.003 36.336-8.003 50.203 0Z"/><path fill="#000" d="M214.457 373.871c13.83 8.003 13.83 20.985 0 28.978-12.133 7.008-30.85 7.884-44.634 2.628l-.553-.212a38.047 38.047 0 0 1-5.016-2.416c-11.552-6.666-13.479-16.798-5.753-24.626a27.172 27.172 0 0 1 5.753-4.352c13.858-8.003 36.336-8.003 50.203 0Z" opacity=".2"/><path fill="#F5F5F5" d="M158.501 378.223a15.563 15.563 0 0 0-3.688 12.65c1.226 7.044 11.064 12.972 14.485 14.392a38.167 38.167 0 0 1-5.016-2.415c-11.58-6.667-13.507-16.799-5.781-24.627ZM220.21 398.498a15.519 15.519 0 0 0 3.688-12.641c-1.226-7.044-11.064-12.973-14.493-14.392a38.162 38.162 0 0 1 5.015 2.406c11.59 6.675 13.508 16.808 5.79 24.627Z" opacity=".5"/><path fill="#7F3A6A" d="M212.696 401.808c12.908-7.441 12.908-19.501 0-26.941-12.908-7.441-33.773-7.441-46.662 0-12.89 7.44-12.908 19.5 0 26.941 12.908 7.44 33.782 7.44 46.662 0Z"/><path fill="#fff" d="M212.696 401.808c12.908-7.441 12.908-19.501 0-26.941-12.908-7.441-33.773-7.441-46.662 0-12.89 7.44-12.908 19.5 0 26.941 12.908 7.44 33.782 7.44 46.662 0Z" opacity=".4"/><path fill="#fff" d="M220.865 394.026c2.646-4.905 1.789-10.308-2.591-14.89a22.223 22.223 0 0 0-2.766-2.453 29.855 29.855 0 0 0-2.674-1.761 30.57 30.57 0 0 0-1.622-.876c1.364 2.259.866 4.675-6.906 5.126-15.231.886 4.066 15.444 4.066 15.444s9.773-4.758 12.493-.59Z" opacity=".2"/><path fill="#fff" d="M219.298 390.006c2.277-.258 3.411-2.6 2.526-5.246-.885-2.646-3.458-4.61-5.744-4.315-2.287.295-3.411 2.6-2.526 5.246.885 2.646 3.457 4.573 5.744 4.315Z" opacity=".5"/><path fill="#7F3A6A" d="M195.243 402.112c-.747-5.643-25.438-21.28-25.438-21.28s-5.477-2.194-3.688-6.021a30.338 30.338 0 0 0-2.637 1.706c-.572.412-1.107.836-1.604 1.272-7.376 6.362-7.376 14.752 0 21.096a22.81 22.81 0 0 0 1.595 1.272c.789.571 1.608 1.1 2.452 1.586.846.502 1.717.96 2.609 1.374.72.341 1.466.664 2.232.922.765.258 1.521.571 2.314.83a47.173 47.173 0 0 0 7.376 1.77c.553.092 1.106.175 1.659.24 2.446.316 4.91.47 7.376.461a55.135 55.135 0 0 0 9.008-.738s-3.955-.775-3.254-4.49Z"/><path fill="#fff" d="M195.243 402.112c-.747-5.643-25.438-21.28-25.438-21.28s-5.477-2.194-3.688-6.021a30.338 30.338 0 0 0-2.637 1.706c-.572.412-1.107.836-1.604 1.272-7.376 6.362-7.376 14.752 0 21.096a22.81 22.81 0 0 0 1.595 1.272c.789.571 1.608 1.1 2.452 1.586.846.502 1.717.96 2.609 1.374.72.341 1.466.664 2.232.922.765.258 1.521.571 2.314.83a47.173 47.173 0 0 0 7.376 1.77c.553.092 1.106.175 1.659.24 2.446.316 4.91.47 7.376.461a55.135 55.135 0 0 0 9.008-.738s-3.955-.775-3.254-4.49Z" opacity=".3"/><path fill="#7F3A6A" d="M171.971 378.297c-9.22 5.32-9.579 13.83-1.124 19.362.359.23.737.47 1.134.691 9.598 5.532 25.152 5.532 34.759 0s9.598-14.531 0-20.072a21.51 21.51 0 0 0-1.208-.645c-9.653-4.868-24.35-4.647-33.561.664Z"/><path fill="#000" d="M171.971 378.297c-9.22 5.32-9.579 13.83-1.124 19.362.359.23.737.47 1.134.691 9.598 5.532 25.152 5.532 34.759 0s9.598-14.531 0-20.072a21.51 21.51 0 0 0-1.208-.645c-9.653-4.868-24.35-4.647-33.561.664Z" opacity=".2"/><path fill="#7F3A6A" d="M189.37 401.9c12.974 0 23.492-6.072 23.492-13.563 0-7.49-10.518-13.562-23.492-13.562-12.975 0-23.493 6.072-23.493 13.562 0 7.491 10.518 13.563 23.493 13.563Z"/><path fill="#000" d="M189.37 401.9c12.974 0 23.492-6.072 23.492-13.563 0-7.49-10.518-13.562-23.492-13.562-12.975 0-23.493 6.072-23.493 13.562 0 7.491 10.518 13.563 23.493 13.563Z" opacity=".5"/><path fill="#7F3A6A" d="M172.755 382.529c9.174-5.302 24.055-5.302 33.192 0 3.753 2.166 5.965 4.877 6.648 7.698-.683 2.812-2.895 5.532-6.648 7.699-9.174 5.301-24.055 5.301-33.192 0-3.752-2.167-5.965-4.887-6.657-7.699.692-2.821 2.905-5.532 6.657-7.698Z"/><path fill="#000" d="M172.755 382.529c9.174-5.302 24.055-5.302 33.192 0 3.753 2.166 5.965 4.877 6.648 7.698-.683 2.812-2.895 5.532-6.648 7.699-9.174 5.301-24.055 5.301-33.192 0-3.752-2.167-5.965-4.887-6.657-7.699.692-2.821 2.905-5.532 6.657-7.698Z" opacity=".35"/><path fill="#7F3A6A" d="M204.168 392.422v-2.766c0-1.153-.802-2.269-2.508-3.273h-.065c-3.153-1.844-6.454-1.577-9.312-.849-1.235.314-2.406.71-3.476 1.079a35.766 35.766 0 0 1-3.734 1.162 6.506 6.506 0 0 1-1.77.166 3.677 3.677 0 0 1-1.475-.388l.119-.083.369-.221a8.29 8.29 0 0 1 .987-.498 6.8 6.8 0 0 1 5.218-.11l3.015-3.043v-2.766a14.294 14.294 0 0 0-8.233-.304 16.85 16.85 0 0 0-2.619.922l-3.015-1.734-3.595 2.075v2.766l1.235.71a2.975 2.975 0 0 0-.535 1.632v2.766c0 1.152.821 2.259 2.554 3.264a10.584 10.584 0 0 0 4.97 1.429h.996a19.587 19.587 0 0 0 5.329-1.153l1.042-.359-3.034 3.042v2.766a14.757 14.757 0 0 0 11.617-.507l2.979 1.715 3.595-2.074v-2.766l-1.235-.72a3.296 3.296 0 0 0 .581-1.88Zm-7.588-.24a7.786 7.786 0 0 1-6.713.507c2.766-.996 5.164-1.844 7.174-.802l-.461.295Z"/><path fill="#7F3A6A" d="M192.283 385.461c-1.235.313-2.406.719-3.476 1.078a35.766 35.766 0 0 1-3.734 1.162 6.428 6.428 0 0 1-1.77.166 3.822 3.822 0 0 1-1.715-.507c-1.153-.673-1.319-1.65.359-2.766l.369-.231c.318-.185.647-.348.987-.488a6.804 6.804 0 0 1 5.218-.12l2.978-2.969a14.294 14.294 0 0 0-8.233-.304c-.897.235-1.772.543-2.619.922l-3.014-1.734-3.596 2.075 2.978 1.715c-3.024 2.296-3.08 4.674.313 6.638a10.483 10.483 0 0 0 4.97 1.429h.996a19.944 19.944 0 0 0 5.329-1.152c3.448-1.153 6.242-2.517 8.574-1.171 1.549.922 1.125 2.028-.59 3.015a7.747 7.747 0 0 1-6.823.461l-3.153 3.162a14.735 14.735 0 0 0 11.617-.498l2.978 1.715 3.596-2.074-2.978-1.724c2.988-2.305 3.338-4.832-.157-6.878h-.064c-3.181-1.909-6.445-1.651-9.34-.922Z"/><path fill="#fff" d="M192.283 385.461c-1.235.313-2.406.719-3.476 1.078a35.766 35.766 0 0 1-3.734 1.162 6.428 6.428 0 0 1-1.77.166 3.822 3.822 0 0 1-1.715-.507c-1.153-.673-1.319-1.65.359-2.766l.369-.231c.318-.185.647-.348.987-.488a6.804 6.804 0 0 1 5.218-.12l2.978-2.969a14.294 14.294 0 0 0-8.233-.304c-.897.235-1.772.543-2.619.922l-3.014-1.734-3.596 2.075 2.978 1.715c-3.024 2.296-3.08 4.674.313 6.638a10.483 10.483 0 0 0 4.97 1.429h.996a19.944 19.944 0 0 0 5.329-1.152c3.448-1.153 6.242-2.517 8.574-1.171 1.549.922 1.125 2.028-.59 3.015a7.747 7.747 0 0 1-6.823.461l-3.153 3.162a14.735 14.735 0 0 0 11.617-.498l2.978 1.715 3.596-2.074-2.978-1.724c2.988-2.305 3.338-4.832-.157-6.878h-.064c-3.181-1.909-6.445-1.651-9.34-.922Z" opacity=".3"/><path fill="#F5F5F5" d="m174.037 381.68 3.632-1.641 2.978 1.309-3.014-1.742-3.596 2.074ZM182.851 380.556a16.707 16.707 0 0 1 7.726.258l-2.093 2.959 3.015-2.987a14.268 14.268 0 0 0-8.648-.23ZM201.595 386.318h.065c3.494 2.047 3.144 4.61.157 6.878 2.646-2.886 2.166-4.896-.71-6.555a13.573 13.573 0 0 0-8.824-1.208c2.895-.701 6.159-.959 9.312.885ZM201.817 393.233l2.277 1.752-2.895 2.037 3.596-2.074-2.978-1.715ZM195.75 392.597a7.71 7.71 0 0 1-5.735.498l-3.411 2.71 3.153-3.162a7.74 7.74 0 0 0 5.993-.046ZM185.036 387.701a4.67 4.67 0 0 1-4.306-.406c-1.032-.922-.368-1.844 1.181-2.683-1.678 1.097-1.512 2.075-.36 2.766a3.797 3.797 0 0 0 1.715.507 6.433 6.433 0 0 0 1.77-.184ZM177.024 383.423c-.249.221-2.416 2.24-1.466 4.26.95 2.019 4.195 3.531 6.749 3.807a10.486 10.486 0 0 1-4.97-1.429c-3.429-1.964-3.374-4.342-.313-6.638Z" opacity=".45"/><path fill="#7F3A6A" d="M151.678 377.522a22.85 22.85 0 0 1 8.483-7.846c13.83-8.003 36.336-8.003 50.193 0a22.993 22.993 0 0 1 8.483 7.846h1.908v7.247c-.258 5.043-3.688 10.041-10.372 13.895-13.83 8.003-36.336 8.003-50.194 0-6.666-3.854-10.142-8.852-10.4-13.895v-7.247h1.899Z"/><path fill="#000" d="M151.678 377.522a22.85 22.85 0 0 1 8.483-7.846c13.83-8.003 36.336-8.003 50.193 0a22.993 22.993 0 0 1 8.483 7.846h1.908v7.247c-.258 5.043-3.688 10.041-10.372 13.895-13.83 8.003-36.336 8.003-50.194 0-6.666-3.854-10.142-8.852-10.4-13.895v-7.247h1.899Z" opacity=".25"/><path fill="#000" d="M185.257 363.674c9.082 0 18.164 2 25.097 6.002a22.993 22.993 0 0 1 8.483 7.846h1.908v7.247c-.258 5.043-3.688 10.041-10.372 13.895-6.934 4.001-16.015 6.002-25.097 6.002l-.019-40.992Z" opacity=".1"/><path fill="#000" d="M204.684 367.002a39.106 39.106 0 0 1 5.716 2.674 22.993 22.993 0 0 1 8.483 7.846h1.908v7.247c-.258 5.043-3.688 10.041-10.372 13.895a39.216 39.216 0 0 1-5.717 2.673l-.018-34.335Z" opacity=".1"/><path fill="#7F3A6A" d="M165.868 367.002a39.005 39.005 0 0 0-5.707 2.674 22.85 22.85 0 0 0-8.483 7.846h-1.918v7.247c.259 5.043 3.688 10.041 10.401 13.895a39.104 39.104 0 0 0 5.707 2.673v-34.335Z" opacity=".5"/><path fill="#7F3A6A" d="M210.354 363.028c13.83 8.012 13.83 20.985 0 28.988-12.124 6.998-30.85 7.874-44.625 2.628l-.553-.222a38.671 38.671 0 0 1-5.015-2.406c-11.562-6.675-13.48-16.808-5.763-24.627a26.682 26.682 0 0 1 5.753-4.342c13.867-8.012 36.346-8.012 50.203-.019Z"/><path fill="#000" d="M210.354 363.028c13.83 8.012 13.83 20.985 0 28.988-12.124 6.998-30.85 7.874-44.625 2.628l-.553-.222a38.671 38.671 0 0 1-5.015-2.406c-11.562-6.675-13.48-16.808-5.763-24.627a26.682 26.682 0 0 1 5.753-4.342c13.867-8.012 36.346-8.012 50.203-.019Z" opacity=".2"/><path fill="#F5F5F5" d="M154.398 367.389a15.53 15.53 0 0 0-3.688 12.641c1.236 7.044 11.064 12.973 14.494 14.392a38.684 38.684 0 0 1-5.016-2.406c-11.589-6.675-13.507-16.762-5.79-24.627ZM216.108 387.664a15.518 15.518 0 0 0 3.688-12.65c-1.227-7.044-11.064-12.972-14.485-14.392a38.228 38.228 0 0 1 5.016 2.415c11.589 6.685 13.507 16.827 5.781 24.627Z" opacity=".5"/><path fill="#7F3A6A" d="M208.603 390.928c12.908-7.441 12.908-19.5 0-26.941-12.908-7.44-33.783-7.44-46.663 0-12.88 7.441-12.908 19.5 0 26.941 12.908 7.441 33.773 7.477 46.663 0Z"/><path fill="#fff" d="M208.603 390.928c12.908-7.441 12.908-19.5 0-26.941-12.908-7.44-33.783-7.44-46.663 0-12.88 7.441-12.908 19.5 0 26.941 12.908 7.441 33.773 7.477 46.663 0Z" opacity=".4"/><path fill="#fff" d="M216.762 383.183c2.656-4.905 1.789-10.308-2.591-14.89a22.134 22.134 0 0 0-2.766-2.443 27.326 27.326 0 0 0-2.673-1.761c-.526-.314-1.061-.6-1.623-.922 1.374 2.259.867 4.674-6.906 5.126-15.204.922 4.066 15.425 4.066 15.425s9.773-4.693 12.493-.535Z" opacity=".2"/><path fill="#fff" d="M215.195 379.163c2.286-.258 3.411-2.6 2.526-5.237-.885-2.637-3.457-4.61-5.735-4.324-2.277.286-3.42 2.609-2.526 5.246.894 2.637 3.457 4.573 5.735 4.315Z" opacity=".5"/><path fill="#7F3A6A" d="M191.14 391.278c-.747-5.651-25.429-21.279-25.429-21.279s-5.477-2.204-3.688-6.03a27.707 27.707 0 0 0-2.637 1.705c-.571.412-1.106.836-1.604 1.273-7.376 6.362-7.376 14.752 0 21.095.498.43 1.033.855 1.604 1.273a29.81 29.81 0 0 0 2.443 1.595c.876.516 1.715.922 2.619 1.364.719.341 1.466.664 2.222.922s1.521.581 2.314.839a49.31 49.31 0 0 0 7.376 1.77l1.651.24c2.446.307 4.91.461 7.376.461a57.328 57.328 0 0 0 9.007-.737s-3.955-.775-3.254-4.491Z"/><path fill="#fff" d="M191.14 391.278c-.747-5.651-25.429-21.279-25.429-21.279s-5.477-2.204-3.688-6.03a27.707 27.707 0 0 0-2.637 1.705c-.571.412-1.106.836-1.604 1.273-7.376 6.362-7.376 14.752 0 21.095.498.43 1.033.855 1.604 1.273a29.81 29.81 0 0 0 2.443 1.595c.876.516 1.715.922 2.619 1.364.719.341 1.466.664 2.222.922s1.521.581 2.314.839a49.31 49.31 0 0 0 7.376 1.77l1.651.24c2.446.307 4.91.461 7.376.461a57.328 57.328 0 0 0 9.007-.737s-3.955-.775-3.254-4.491Z" opacity=".3"/><path fill="#7F3A6A" d="M167.878 367.463c-9.22 5.311-9.589 13.83-1.125 19.362.36.24.738.47 1.125.692 9.598 5.532 25.161 5.532 34.759 0 9.598-5.532 9.607-14.522 0-20.063-.387-.231-.793-.443-1.198-.655-9.663-4.877-24.36-4.656-33.561.664Z"/><path fill="#000" d="M167.878 367.463c-9.22 5.311-9.589 13.83-1.125 19.362.36.24.738.47 1.125.692 9.598 5.532 25.161 5.532 34.759 0 9.598-5.532 9.607-14.522 0-20.063-.387-.231-.793-.443-1.198-.655-9.663-4.877-24.36-4.656-33.561.664Z" opacity=".2"/><path fill="#7F3A6A" d="M168.652 367.878c-9.174 5.292-9.174 13.885 0 19.178 9.174 5.292 24.055 5.301 33.192 0 9.137-5.302 9.22-13.886 0-19.178-9.22-5.292-24.009-5.274-33.192 0Z"/><path fill="#000" d="M168.652 367.878c-9.174 5.292-9.174 13.885 0 19.178 9.174 5.292 24.055 5.301 33.192 0 9.137-5.302 9.22-13.886 0-19.178-9.22-5.292-24.009-5.274-33.192 0Z" opacity=".5"/><path fill="#7F3A6A" d="M168.652 371.686c9.22-5.302 24.055-5.302 33.192 0 3.753 2.167 5.975 4.886 6.657 7.699-.682 2.821-2.904 5.532-6.657 7.698-9.22 5.302-24.046 5.302-33.192 0-3.752-2.166-5.965-4.877-6.647-7.698.682-2.813 2.895-5.532 6.647-7.699Z"/><path fill="#000" d="M168.652 371.686c9.22-5.302 24.055-5.302 33.192 0 3.753 2.167 5.975 4.886 6.657 7.699-.682 2.821-2.904 5.532-6.657 7.698-9.22 5.302-24.046 5.302-33.192 0-3.752-2.166-5.965-4.877-6.647-7.698.682-2.813 2.895-5.532 6.647-7.699Z" opacity=".35"/><path fill="#7F3A6A" d="M200.074 381.579v-2.766c0-1.153-.793-2.268-2.508-3.264h-.055c-3.153-1.844-6.454-1.586-9.322-.857-1.235.304-2.406.71-3.476 1.078a34.717 34.717 0 0 1-3.734 1.153 6.913 6.913 0 0 1-1.779.175 3.902 3.902 0 0 1-1.466-.396l.111-.083.378-.222c.314-.185.64-.348.977-.488a6.829 6.829 0 0 1 5.228-.12l3.015-3.043v-2.766a14.345 14.345 0 0 0-8.243-.304c-.897.235-1.772.544-2.619.922l-3.042-1.798-3.596 2.075v2.766l1.226.709a2.994 2.994 0 0 0-.525 1.623v2.766c0 1.153.83 2.259 2.563 3.264a10.444 10.444 0 0 0 4.96 1.429h.987a19.635 19.635 0 0 0 5.338-1.143l1.033-.36-3.034 3.043v2.766a14.756 14.756 0 0 0 11.618-.507l2.978 1.724 3.596-2.075v-2.766l-1.236-.709a3.267 3.267 0 0 0 .627-1.826Zm-7.579-.24c-.27.157-.55.296-.839.415a7.714 7.714 0 0 1-5.873.092c2.766-.995 5.163-1.844 7.164-.793-.148.093-.249.194-.461.286h.009Z"/><path fill="#7F3A6A" d="M188.18 374.618c-1.235.304-2.406.71-3.476 1.079a34.712 34.712 0 0 1-3.734 1.152 6.913 6.913 0 0 1-1.779.175 3.79 3.79 0 0 1-1.706-.516c-1.162-.664-1.328-1.641.35-2.766l.378-.231c.317-.181.643-.344.978-.488a6.768 6.768 0 0 1 5.227-.111l3.015-3.042a14.333 14.333 0 0 0-8.242-.305 17.06 17.06 0 0 0-2.619.922l-3.033-1.687-3.596 2.075 2.978 1.724c-3.024 2.295-3.089 4.683.314 6.647a10.641 10.641 0 0 0 4.96 1.429c.329.019.658.019.986 0a19.61 19.61 0 0 0 5.339-1.152c3.448-1.153 6.242-2.508 8.565-1.171 1.558.922 1.125 2.028-.581 3.015a7.03 7.03 0 0 1-.839.415 7.673 7.673 0 0 1-5.983.046L182.519 385a14.756 14.756 0 0 0 11.617-.508l2.978 1.715 3.596-2.074-2.978-1.715c2.997-2.314 3.338-4.831-.157-6.878h-.055c-3.172-1.89-6.435-1.651-9.34-.922Z"/><path fill="#fff" d="M188.18 374.618c-1.235.304-2.406.71-3.476 1.079a34.712 34.712 0 0 1-3.734 1.152 6.913 6.913 0 0 1-1.779.175 3.79 3.79 0 0 1-1.706-.516c-1.162-.664-1.328-1.641.35-2.766l.378-.231c.317-.181.643-.344.978-.488a6.768 6.768 0 0 1 5.227-.111l3.015-3.042a14.333 14.333 0 0 0-8.242-.305 17.06 17.06 0 0 0-2.619.922l-3.033-1.687-3.596 2.075 2.978 1.724c-3.024 2.295-3.089 4.683.314 6.647a10.641 10.641 0 0 0 4.96 1.429c.329.019.658.019.986 0a19.61 19.61 0 0 0 5.339-1.152c3.448-1.153 6.242-2.508 8.565-1.171 1.558.922 1.125 2.028-.581 3.015a7.03 7.03 0 0 1-.839.415 7.673 7.673 0 0 1-5.983.046L182.519 385a14.756 14.756 0 0 0 11.617-.508l2.978 1.715 3.596-2.074-2.978-1.715c2.997-2.314 3.338-4.831-.157-6.878h-.055c-3.172-1.89-6.435-1.651-9.34-.922Z" opacity=".3"/><path fill="#F5F5F5" d="m169.943 370.838 3.624-1.642 2.978 1.31-3.006-1.743-3.596 2.075ZM178.748 369.722c2.56-.519 5.207-.43 7.727.258l-2.075 2.951 3.015-3.034a14.373 14.373 0 0 0-8.667-.175ZM197.502 375.475h.055c3.494 2.047 3.153 4.61.157 6.878 2.655-2.885 2.176-4.905-.701-6.564a13.6 13.6 0 0 0-8.833-1.208c2.905-.692 6.168-.931 9.322.894ZM197.714 382.39l2.286 1.752-2.904 2.038 3.596-2.075-2.978-1.715ZM191.647 381.754a7.716 7.716 0 0 1-5.726.507l-3.42 2.711 3.162-3.172a7.684 7.684 0 0 0 5.984-.046ZM180.943 376.858a4.674 4.674 0 0 1-4.306-.405c-1.042-.922-.378-1.844 1.171-2.683-1.678 1.106-1.512 2.083-.351 2.766.52.305 1.105.482 1.706.516a6.888 6.888 0 0 0 1.78-.194ZM172.893 372.58c-.258.231-2.424 2.241-1.466 4.26.959 2.019 4.186 3.531 6.75 3.808a10.672 10.672 0 0 1-4.961-1.429c-3.411-1.955-3.347-4.343-.323-6.639Z" opacity=".45"/><path fill="#7F3A6A" d="M154.435 366.2a22.868 22.868 0 0 1 8.473-7.837c13.83-8.003 36.336-8.003 50.194 0a22.83 22.83 0 0 1 8.482 7.837h1.918v7.256c-.249 5.043-3.688 10.041-10.372 13.885-13.83 8.003-36.327 8.003-50.194 0-6.666-3.844-10.142-8.842-10.391-13.885V366.2h1.89Z"/><path fill="#000" d="M154.435 366.2a22.868 22.868 0 0 1 8.473-7.837c13.83-8.003 36.336-8.003 50.194 0a22.83 22.83 0 0 1 8.482 7.837h1.918v7.256c-.249 5.043-3.688 10.041-10.372 13.885-13.83 8.003-36.327 8.003-50.194 0-6.666-3.844-10.142-8.842-10.391-13.885V366.2h1.89Z" opacity=".25"/><path fill="#000" d="M188.005 352.361c9.082 0 18.173 2 25.097 6.002a22.83 22.83 0 0 1 8.482 7.837h1.918v7.256c-.249 5.043-3.688 10.041-10.372 13.885-6.925 4.002-16.016 6.003-25.097 6.003l-.028-40.983Z" opacity=".1"/><path fill="#000" d="M207.395 355.689a38.107 38.107 0 0 1 5.707 2.674 22.839 22.839 0 0 1 8.482 7.837h1.918v7.256c-.249 5.043-3.688 10.041-10.372 13.885a38.066 38.066 0 0 1-5.708 2.674l-.027-34.326Z" opacity=".1"/><path fill="#7F3A6A" d="M168.625 355.689a38.76 38.76 0 0 0-5.717 2.674 22.868 22.868 0 0 0-8.473 7.837h-1.918v7.256c.249 5.043 3.688 10.041 10.391 13.885a38.658 38.658 0 0 0 5.717 2.674v-34.326Z" opacity=".5"/><path fill="#7F3A6A" d="M213.111 351.715c13.83 8.003 13.83 20.976 0 28.979-12.133 7.007-30.85 7.883-44.634 2.628l-.553-.213a38.167 38.167 0 0 1-5.016-2.415c-11.552-6.675-13.479-16.799-5.753-24.627a27.18 27.18 0 0 1 5.753-4.352c13.858-8.003 36.336-8.003 50.203 0Z"/><path fill="#000" d="M213.111 351.715c13.83 8.003 13.83 20.976 0 28.979-12.133 7.007-30.85 7.883-44.634 2.628l-.553-.213a38.167 38.167 0 0 1-5.016-2.415c-11.552-6.675-13.479-16.799-5.753-24.627a27.18 27.18 0 0 1 5.753-4.352c13.858-8.003 36.336-8.003 50.203 0Z" opacity=".2"/><path fill="#F5F5F5" d="M157.155 356.067a15.48 15.48 0 0 0-3.688 12.641c1.226 7.044 11.064 12.972 14.485 14.401a38.167 38.167 0 0 1-5.016-2.415c-11.58-6.676-13.507-16.799-5.781-24.627ZM218.864 376.342a15.532 15.532 0 0 0 3.688-12.641c-1.235-7.044-11.064-12.972-14.493-14.401a38.216 38.216 0 0 1 5.015 2.415c11.59 6.676 13.508 16.808 5.79 24.627Z" opacity=".5"/><path fill="#7F3A6A" d="M188.023 385.221c18.225 0 32.999-8.528 32.999-19.049 0-10.52-14.774-19.048-32.999-19.048-18.224 0-32.998 8.528-32.998 19.048 0 10.521 14.774 19.049 32.998 19.049Z"/><path fill="#fff" d="M188.023 385.221c18.225 0 32.999-8.528 32.999-19.049 0-10.52-14.774-19.048-32.999-19.048-18.224 0-32.998 8.528-32.998 19.048 0 10.521 14.774 19.049 32.998 19.049Z" opacity=".4"/><path fill="#fff" d="M156.528 371.87c-2.655-4.905-1.789-10.308 2.591-14.89a21.698 21.698 0 0 1 2.766-2.453 27.587 27.587 0 0 1 2.674-1.761c.525-.304 1.06-.599 1.622-.875-1.373 2.249-.866 4.674 6.897 5.126 15.213.922-4.057 15.416-4.057 15.416s-9.782-4.73-12.493-.563Z" opacity=".2"/><path fill="#fff" d="M158.095 367.878c-2.286-.258-3.411-2.609-2.526-5.246.885-2.637 3.458-4.61 5.735-4.315 2.277.295 3.411 2.6 2.526 5.237-.885 2.637-3.457 4.545-5.735 4.324Z" opacity=".5"/><path fill="#7F3A6A" d="M182.15 379.956c.747-5.624 25.429-21.298 25.429-21.298s5.477-2.194 3.688-6.021a27.591 27.591 0 0 1 2.637 1.706c.558.395 1.093.819 1.604 1.272 7.376 6.362 7.376 14.752 0 21.087a21.57 21.57 0 0 1-1.604 1.272 27.3 27.3 0 0 1-2.443 1.595c-.839.489-1.715.922-2.619 1.374-.719.341-1.466.654-2.222.922-.756.267-1.53.571-2.314.83a48.38 48.38 0 0 1-7.376 1.77c-.544.092-1.106.166-1.65.239-2.446.316-4.91.47-7.376.461a55.125 55.125 0 0 1-9.036-.691s3.983-.802 3.282-4.518Z"/><path fill="#fff" d="M182.15 379.956c.747-5.624 25.429-21.298 25.429-21.298s5.477-2.194 3.688-6.021a27.591 27.591 0 0 1 2.637 1.706c.558.395 1.093.819 1.604 1.272 7.376 6.362 7.376 14.752 0 21.087a21.57 21.57 0 0 1-1.604 1.272 27.3 27.3 0 0 1-2.443 1.595c-.839.489-1.715.922-2.619 1.374-.719.341-1.466.654-2.222.922-.756.267-1.53.571-2.314.83a48.38 48.38 0 0 1-7.376 1.77c-.544.092-1.106.166-1.65.239-2.446.316-4.91.47-7.376.461a55.125 55.125 0 0 1-9.036-.691s3.983-.802 3.282-4.518Z" opacity=".3"/><path fill="#7F3A6A" d="M205.412 356.141c9.22 5.32 9.58 13.83 1.125 19.362-.359.24-.737.47-1.125.701-9.598 5.532-25.161 5.532-34.759 0-9.598-5.532-9.607-14.531 0-20.072.387-.231.793-.443 1.199-.655 9.662-4.868 24.359-4.656 33.56.664Z"/><path fill="#000" d="M205.412 356.141c9.22 5.32 9.58 13.83 1.125 19.362-.359.24-.737.47-1.125.701-9.598 5.532-25.161 5.532-34.759 0-9.598-5.532-9.607-14.531 0-20.072.387-.231.793-.443 1.199-.655 9.662-4.868 24.359-4.656 33.56.664Z" opacity=".2"/><path fill="#7F3A6A" d="M188.023 379.735c12.975 0 23.493-6.072 23.493-13.563 0-7.49-10.518-13.562-23.493-13.562-12.974 0-23.492 6.072-23.492 13.562 0 7.491 10.518 13.563 23.492 13.563Z"/><path fill="#000" d="M188.023 379.735c12.975 0 23.493-6.072 23.493-13.563 0-7.49-10.518-13.562-23.493-13.562-12.974 0-23.492 6.072-23.492 13.562 0 7.491 10.518 13.563 23.492 13.563Z" opacity=".5"/><path fill="#7F3A6A" d="M204.684 360.364c-9.22-5.293-24.055-5.293-33.192 0-3.753 2.166-5.975 4.886-6.657 7.708.682 2.812 2.904 5.532 6.657 7.698 9.22 5.293 24.046 5.293 33.192 0 3.753-2.166 5.965-4.886 6.648-7.698-.729-2.822-2.96-5.542-6.648-7.708Z"/><path fill="#000" d="M204.684 360.364c-9.22-5.293-24.055-5.293-33.192 0-3.753 2.166-5.975 4.886-6.657 7.708.682 2.812 2.904 5.532 6.657 7.698 9.22 5.293 24.046 5.293 33.192 0 3.753-2.166 5.965-4.886 6.648-7.698-.729-2.822-2.96-5.542-6.648-7.708Z" opacity=".35"/><path fill="#7F3A6A" d="M202.84 370.266V367.5c0-1.143-.802-2.259-2.508-3.264h-.064c-3.154-1.844-6.454-1.586-9.313-.857-1.235.313-2.406.71-3.476 1.078-1.206.456-2.437.84-3.688 1.153a6.424 6.424 0 0 1-1.77.166 3.696 3.696 0 0 1-1.475-.387l.12-.083.369-.231c.319-.181.648-.344.986-.488a6.805 6.805 0 0 1 5.219-.12l3.015-3.034v-2.766a14.305 14.305 0 0 0-8.234-.295 16.98 16.98 0 0 0-2.618.922l-3.015-1.742-3.596 2.083v2.766l1.235.71a2.963 2.963 0 0 0-.534 1.632v2.766c0 1.153.82 2.268 2.554 3.264a10.479 10.479 0 0 0 4.969 1.429h.996a19.585 19.585 0 0 0 5.329-1.152l1.042-.36-3.033 3.043v2.766a14.766 14.766 0 0 0 11.617-.498l2.978 1.715 3.586-2.075v-2.766l-1.226-.71a3.246 3.246 0 0 0 .535-1.899Zm-7.579-.24a7.736 7.736 0 0 1-6.712.498c2.812-.986 5.163-1.844 7.173-.793l-.461.295Z"/><path fill="#7F3A6A" d="M190.937 363.268c-1.235.313-2.406.71-3.476 1.079-1.206.455-2.437.84-3.688 1.152a6.428 6.428 0 0 1-1.77.166 3.822 3.822 0 0 1-1.715-.507c-1.153-.673-1.319-1.65.359-2.766l.369-.221a7.02 7.02 0 0 1 .987-.489 6.803 6.803 0 0 1 5.218-.12l3.015-3.042a14.294 14.294 0 0 0-8.233-.295 16.85 16.85 0 0 0-2.619.922l-3.015-1.743-3.595 2.084 2.978 1.715c-3.025 2.295-3.08 4.674.313 6.638a10.483 10.483 0 0 0 4.97 1.429h.995a19.239 19.239 0 0 0 5.33-1.152c3.448-1.153 6.242-2.508 8.565-1.171 1.558.922 1.134 2.028-.581 3.024a8.799 8.799 0 0 1-.83.415 7.742 7.742 0 0 1-5.993 0l-3.153 3.171a14.757 14.757 0 0 0 11.617-.507l2.978 1.725 3.596-2.084-2.978-1.715c2.987-2.314 3.338-4.831-.157-6.878h-.064c-3.264-1.752-6.528-1.531-9.423-.83Z"/><path fill="#fff" d="M190.937 363.268c-1.235.313-2.406.71-3.476 1.079-1.206.455-2.437.84-3.688 1.152a6.428 6.428 0 0 1-1.77.166 3.822 3.822 0 0 1-1.715-.507c-1.153-.673-1.319-1.65.359-2.766l.369-.221a7.02 7.02 0 0 1 .987-.489 6.803 6.803 0 0 1 5.218-.12l3.015-3.042a14.294 14.294 0 0 0-8.233-.295 16.85 16.85 0 0 0-2.619.922l-3.015-1.743-3.595 2.084 2.978 1.715c-3.025 2.295-3.08 4.674.313 6.638a10.483 10.483 0 0 0 4.97 1.429h.995a19.239 19.239 0 0 0 5.33-1.152c3.448-1.153 6.242-2.508 8.565-1.171 1.558.922 1.134 2.028-.581 3.024a8.799 8.799 0 0 1-.83.415 7.742 7.742 0 0 1-5.993 0l-3.153 3.171a14.757 14.757 0 0 0 11.617-.507l2.978 1.725 3.596-2.084-2.978-1.715c2.987-2.314 3.338-4.831-.157-6.878h-.064c-3.264-1.752-6.528-1.531-9.423-.83Z" opacity=".3"/><path fill="#F5F5F5" d="m172.691 359.525 3.632-1.651 2.978 1.31-3.015-1.734-3.595 2.075ZM181.505 358.391a16.967 16.967 0 0 1 7.726.258l-2.065 2.969 3.015-3.043a14.333 14.333 0 0 0-8.676-.184ZM200.249 364.19h.065c3.494 2.047 3.144 4.564.156 6.878 2.647-2.886 2.167-4.896-.709-6.565a13.631 13.631 0 0 0-8.824-1.207c2.895-.729 6.159-.95 9.312.894ZM200.47 371.068l2.278 1.752-2.895 2.047 3.596-2.084-2.979-1.715ZM194.404 370.441a7.763 7.763 0 0 1-5.735.498l-3.412 2.711 3.154-3.172a7.737 7.737 0 0 0 5.993-.037ZM183.69 365.545a4.61 4.61 0 0 1-4.306-.415c-1.042-.922-.368-1.844 1.18-2.683-1.678 1.107-1.512 2.084-.359 2.766a3.81 3.81 0 0 0 1.715.508 6.47 6.47 0 0 0 1.77-.176ZM175.641 361.267c-.249.221-2.416 2.241-1.466 4.26.95 2.019 4.186 3.531 6.749 3.808a10.497 10.497 0 0 1-4.97-1.429c-3.392-1.964-3.337-4.343-.313-6.639Z" opacity=".45"/><path fill="#fff" d="m156.657 362.595.894-6.795.895 6.795 11.764.516-11.764.517-.895 6.786-.894-6.786-11.755-.517 11.755-.516Z"/><path fill="#000" d="m136.096 113.083 47.944-27.66c.461-.267.839 0 .839.489v62.189a1.846 1.846 0 0 1-.839 1.457l-47.944 27.66c-.461.267-.839.055-.839-.48v-62.207a1.846 1.846 0 0 1 .839-1.448Z" opacity=".2"/><path fill="#7F3A6A" d="M182.814 89.287 138.401 114.9a2.028 2.028 0 0 0-.653.691c-.16.279-.252.592-.269.913v60.566a2.008 2.008 0 0 0 .922 1.595l1.761 1.005a2.08 2.08 0 0 0 1.844 0l44.422-25.613a2.05 2.05 0 0 0 .922-1.604V91.877a2.01 2.01 0 0 0-.922-1.595l-1.761-1.005a2.08 2.08 0 0 0-1.853.01Z"/><path fill="#000" d="M141.988 179.661a2.118 2.118 0 0 1-1.844 0l-1.761-1.005a2.05 2.05 0 0 1-.652-.687 2.052 2.052 0 0 1-.27-.908v-60.557c.021-.327.123-.644.295-.922l3.605 2.093a1.783 1.783 0 0 0-.277.922v60.566c-.018.498.388.811.904.498Z" opacity=".2"/><path fill="#fff" d="M187.35 91.702c-.073-.46-.451-.627-.922-.36l-44.44 25.604a1.932 1.932 0 0 0-.655.701l-3.605-2.093a1.84 1.84 0 0 1 .637-.654l44.412-25.614a2.087 2.087 0 0 1 1.844 0l1.761 1.005a2.014 2.014 0 0 1 .968 1.411Z" opacity=".2"/><path fill="#fff" d="m186.438 91.343-44.45 25.603a2.06 2.06 0 0 0-.922 1.605v60.575c0 .59.415.83.922.535l44.422-25.613a2.06 2.06 0 0 0 .922-1.605V91.877c.028-.599-.387-.83-.894-.534Z"/><path fill="#7F3A6A" d="M186.622 92.09v60.353a1.337 1.337 0 0 1-.553.922l-44.256 25.503v-60.317a1.326 1.326 0 0 1 .562-.922l44.256-25.503m.222-.876a.765.765 0 0 0-.406.13l-44.459 25.566a2.06 2.06 0 0 0-.922 1.605v60.575c0 .415.212.655.516.655a.842.842 0 0 0 .406-.12l44.422-25.613a2.06 2.06 0 0 0 .922-1.605V91.877c0-.424-.212-.664-.516-.664l.037.037Z"/><path fill="#7F3A6A" d="m152.646 139.96-3.448 6.454c-1.844-1.448-2.766-4.03-2.766-7.487l4.794-2.766a4.786 4.786 0 0 0 1.42 3.799Z"/><path fill="#000" d="m152.646 139.96-3.448 6.454c-1.844-1.448-2.766-4.03-2.766-7.487l4.794-2.766a4.786 4.786 0 0 0 1.42 3.799Z" opacity=".3"/><path fill="#7F3A6A" d="M166.043 127.586c0 7.22-4.38 15.601-9.792 18.726-2.821 1.623-5.098 1.651-7.053.083l3.448-6.454c.922.729 2.185.775 3.605 0 2.766-1.595 5.007-5.882 5.007-9.561 0-3.679-2.241-5.384-5.007-3.789v-6.39c5.412-3.107 9.792.175 9.792 7.385Z"/><path fill="#fff" d="M166.043 127.586c0 7.22-4.38 15.601-9.792 18.726-2.821 1.623-5.098 1.651-7.053.083l3.448-6.454c.922.729 2.185.775 3.605 0 2.766-1.595 5.007-5.882 5.007-9.561 0-3.679-2.241-5.384-5.007-3.789v-6.39c5.412-3.107 9.792.175 9.792 7.385Z" opacity=".4"/><path fill="#7F3A6A" d="M156.251 120.183c-5.412 3.125-9.801 11.506-9.801 18.726l4.795-2.766c0-3.688 2.24-7.967 5.006-9.562 1.457-.839 2.766-.756 3.688 0l3.412-6.454c-1.807-1.438-4.315-1.549-7.1.056ZM172.073 116.218l-2.858 1.641a.14.14 0 0 0-.056.102v3.3h.056l2.858-1.65a.132.132 0 0 0 .045-.043.118.118 0 0 0 .019-.058v-3.301s-.027-.037-.064.009Z"/><path fill="#fff" d="m172.073 116.218-2.858 1.641a.14.14 0 0 0-.056.102v3.3h.056l2.858-1.65a.132.132 0 0 0 .045-.043.118.118 0 0 0 .019-.058v-3.301s-.027-.037-.064.009Z" opacity=".4"/><path fill="#455A64" d="M174.184 116.172a.211.211 0 0 1-.184-.101.22.22 0 0 1 .083-.295l7.994-4.61a.205.205 0 0 1 .157-.021c.054.013.1.047.128.094a.223.223 0 0 1 .03.079.216.216 0 0 1-.04.16.21.21 0 0 1-.063.056l-8.031 4.638a.184.184 0 0 1-.074 0ZM174.184 118.016a.221.221 0 0 1-.184-.111.207.207 0 0 1-.017-.16.208.208 0 0 1 .1-.125l7.994-4.61a.21.21 0 0 1 .285.083.205.205 0 0 1-.073.285l-8.031 4.638a.184.184 0 0 1-.074 0Z"/><path fill="#7F3A6A" d="m172.073 122.958-2.858 1.65a.14.14 0 0 0-.056.102v3.3h.056l2.858-1.65a.107.107 0 0 0 .064-.092v-3.273s-.027-.056-.064-.037Z"/><path fill="#455A64" d="M174.184 122.921a.2.2 0 0 1-.184-.111.205.205 0 0 1-.017-.159.207.207 0 0 1 .1-.126l7.994-4.61a.205.205 0 0 1 .285.073.223.223 0 0 1 .03.079.216.216 0 0 1-.04.16.21.21 0 0 1-.063.056l-8.003 4.61a.185.185 0 0 1-.102.028ZM174.184 124.737a.211.211 0 0 1-.184-.101.221.221 0 0 1 .083-.295l7.994-4.61a.205.205 0 0 1 .159-.017.207.207 0 0 1 .126.1.207.207 0 0 1-.011.232.214.214 0 0 1-.062.054l-8.003 4.61a.184.184 0 0 1-.102.027Z"/><path fill="#7F3A6A" d="m172.073 129.707-2.858 1.65a.132.132 0 0 0-.037.041.136.136 0 0 0-.019.052v3.3s0 .056.056 0l2.858-1.65a.125.125 0 0 0 .064-.102v-3.291s-.027-.019-.064 0Z"/><path fill="#000" d="m172.073 129.707-2.858 1.65a.132.132 0 0 0-.037.041.136.136 0 0 0-.019.052v3.3s0 .056.056 0l2.858-1.65a.125.125 0 0 0 .064-.102v-3.291s-.027-.019-.064 0Z" opacity=".3"/><path fill="#455A64" d="M174.184 129.661a.202.202 0 0 1-.201-.29.197.197 0 0 1 .1-.097l7.994-4.61a.205.205 0 0 1 .159-.017.207.207 0 0 1 .126.1.205.205 0 0 1-.073.285l-8.003 4.61a.13.13 0 0 1-.102.019ZM174.184 131.486a.205.205 0 0 1-.108-.028.207.207 0 0 1-.076-.082.208.208 0 0 1-.017-.16.207.207 0 0 1 .1-.126l7.994-4.61a.205.205 0 0 1 .232.011.2.2 0 0 1 .053.063.223.223 0 0 1 .03.079.217.217 0 0 1-.04.16.21.21 0 0 1-.063.056l-8.003 4.61a.184.184 0 0 1-.102.027ZM146.45 160.308a.211.211 0 0 1-.184-.101.226.226 0 0 1-.018-.165.223.223 0 0 1 .101-.13l35.728-20.607a.205.205 0 0 1 .159-.017.207.207 0 0 1 .126.1.207.207 0 0 1-.011.232.214.214 0 0 1-.062.054l-35.691 20.606-.148.028ZM146.45 163.996a.2.2 0 0 1-.135-.036.207.207 0 0 1-.08-.114.205.205 0 0 1 .114-.237l35.728-20.607a.21.21 0 0 1 .285.074.223.223 0 0 1 .03.079.216.216 0 0 1-.04.16.21.21 0 0 1-.063.056l-35.691 20.598-.148.027ZM146.45 167.693a.197.197 0 0 1-.108-.029.212.212 0 0 1 .007-.367l35.728-20.607a.215.215 0 0 1 .159-.017.214.214 0 0 1 .126.1.2.2 0 0 1 .025.159.204.204 0 0 1-.098.127l-35.691 20.607-.148.027Z"/><path fill="#000" d="m193.141 80.214 47.944-27.66c.461-.267.839 0 .839.489v62.207a1.855 1.855 0 0 1-.839 1.457l-47.944 27.66c-.461.267-.839 0-.839-.489V81.634a1.844 1.844 0 0 1 .839-1.42Z" opacity=".2"/><path fill="#7F3A6A" d="m239.858 56.39-44.394 25.603a2.059 2.059 0 0 0-.922 1.605v60.575a1.984 1.984 0 0 0 .922 1.586l1.761 1.005a2.09 2.09 0 0 0 1.844 0l44.422-25.613a2.06 2.06 0 0 0 .922-1.604V59.008a2.017 2.017 0 0 0-.922-1.595l-1.761-.996a2.047 2.047 0 0 0-1.872-.028Z"/><path fill="#000" d="M199.06 146.755a2.122 2.122 0 0 1-1.844 0l-1.752-.996a1.984 1.984 0 0 1-.922-1.586V83.598c.014-.328.116-.647.295-.922l3.605 2.083a1.847 1.847 0 0 0-.277.922v60.567c-.027.507.351.82.895.507Z" opacity=".2"/><path fill="#fff" d="M244.395 58.805c-.074-.47-.461-.636-.922-.369L199.069 84.05c-.275.17-.501.408-.655.692l-3.614-2.084c.161-.268.382-.495.646-.663l44.412-25.614a2.047 2.047 0 0 1 1.844 0l1.761.996a2.058 2.058 0 0 1 .932 1.43Z" opacity=".2"/><path fill="#fff" d="M243.482 58.436 199.06 84.05a2.05 2.05 0 0 0-.922 1.605v60.566c0 .59.415.83.922.535l44.422-25.613a2.056 2.056 0 0 0 .922-1.605V59.008c0-.627-.415-.867-.922-.572Z"/><path fill="#7F3A6A" d="M243.666 59.183v60.354a1.313 1.313 0 0 1-.562.922l-44.256 25.512V85.654a1.34 1.34 0 0 1 .553-.968l44.256-25.503m.221-.876a.854.854 0 0 0-.405.13L199.06 84.048a2.049 2.049 0 0 0-.922 1.605v60.566c0 .415.212.664.516.664a.86.86 0 0 0 .406-.129l44.422-25.613a2.056 2.056 0 0 0 .922-1.605V59.008c0-.424-.212-.664-.517-.664l-.009-.037Z"/><path fill="#7F3A6A" d="M213.295 87.276v6.4c-2.766 1.594-5.006 5.872-5.006 9.56l-4.794 2.766c0-7.219 4.388-15.6 9.8-18.725ZM209.69 107.053l-3.448 6.454c-1.844-1.447-2.766-4.02-2.766-7.486l4.795-2.766a4.772 4.772 0 0 0 1.419 3.798Z"/><path fill="#7F3A6A" d="M223.124 94.69c0 7.209-4.38 15.6-9.792 18.716-2.821 1.632-5.098 1.65-7.053.083l3.448-6.454c.922.738 2.185.784 3.605 0 2.766-1.595 4.998-5.873 4.998-9.561 0-3.688-2.232-5.385-4.998-3.78v-6.418c5.376-3.125 9.792.194 9.792 7.413Z"/><path fill="#fff" d="M223.124 94.69c0 7.209-4.38 15.6-9.792 18.716-2.821 1.632-5.098 1.65-7.053.083l3.448-6.454c.922.738 2.185.784 3.605 0 2.766-1.595 4.998-5.873 4.998-9.561 0-3.688-2.232-5.385-4.998-3.78v-6.418c5.376-3.125 9.792.194 9.792 7.413Z" opacity=".4"/><path fill="#7F3A6A" d="M215.905 104.527a8.756 8.756 0 0 1-2.61 2.49c-1.419.82-2.692.774-3.605 0a4.78 4.78 0 0 1-1.401-3.818l-4.794 2.766c0 3.467.922 6.04 2.766 7.487 1.954 1.568 4.232 1.549 7.053-.083a17.163 17.163 0 0 0 5.182-4.979l-2.591-3.863Z"/><path fill="#000" d="M215.905 104.527a8.756 8.756 0 0 1-2.61 2.49c-1.419.82-2.692.774-3.605 0a4.78 4.78 0 0 1-1.401-3.818l-4.794 2.766c0 3.467.922 6.04 2.766 7.487 1.954 1.568 4.232 1.549 7.053-.083a17.163 17.163 0 0 0 5.182-4.979l-2.591-3.863Z" opacity=".3"/><path fill="#7F3A6A" d="m229.117 83.312-2.858 1.65a.123.123 0 0 0-.039.04.138.138 0 0 0-.017.053v3.3s0 .056.056 0l2.858-1.65a.124.124 0 0 0 .041-.044.129.129 0 0 0 .014-.058V83.34s-.018-.047-.055-.028Z"/><path fill="#fff" d="m229.117 83.312-2.858 1.65a.123.123 0 0 0-.039.04.138.138 0 0 0-.017.053v3.3s0 .056.056 0l2.858-1.65a.124.124 0 0 0 .041-.044.129.129 0 0 0 .014-.058V83.34s-.018-.047-.055-.028Z" opacity=".4"/><path fill="#455A64" d="M231.228 83.266a.208.208 0 0 1-.105-.026.206.206 0 0 1-.079-.076.212.212 0 0 1 .074-.285l8.003-4.61a.212.212 0 0 1 .285.083c.015.023.025.05.029.076a.203.203 0 0 1-.102.209l-8.003 4.61a.188.188 0 0 1-.102.019ZM231.228 85.091a.203.203 0 0 1-.184-.11.212.212 0 0 1 .074-.286l8.003-4.61a.208.208 0 0 1 .173-.048.215.215 0 0 1 .148.101.218.218 0 0 1 .017.179.218.218 0 0 1-.126.128l-8.003 4.61a.187.187 0 0 1-.102.036Z"/><path fill="#7F3A6A" d="m229.117 90.06-2.858 1.642a.143.143 0 0 0-.056.102v3.3h.056l2.858-1.64a.124.124 0 0 0 .041-.044.128.128 0 0 0 .014-.058v-3.273s-.018-.046-.055-.028Z"/><path fill="#455A64" d="M231.228 90.015a.208.208 0 0 1-.105-.026.206.206 0 0 1-.101-.238.222.222 0 0 1 .096-.133l8.003-4.61a.212.212 0 0 1 .315.153.217.217 0 0 1-.04.16.218.218 0 0 1-.063.056l-8.003 4.61a.187.187 0 0 1-.102.028ZM231.228 91.831a.208.208 0 0 1-.105-.026.206.206 0 0 1-.079-.075.212.212 0 0 1 .074-.286l8.003-4.61a.212.212 0 0 1 .285.083c.015.023.025.05.029.077a.203.203 0 0 1-.102.209l-8.003 4.61a.135.135 0 0 1-.102.018Z"/><path fill="#7F3A6A" d="m229.117 96.81-2.858 1.65a.142.142 0 0 0-.056.101v3.302h.056l2.858-1.651a.1.1 0 0 0 .055-.092v-3.31h-.055Z"/><path fill="#000" d="m229.117 96.81-2.858 1.65a.142.142 0 0 0-.056.101v3.302h.056l2.858-1.651a.1.1 0 0 0 .055-.092v-3.31h-.055Z" opacity=".3"/><path fill="#455A64" d="M231.228 96.81a.205.205 0 0 1-.184-.11.212.212 0 0 1 .074-.287l8.003-4.61a.213.213 0 0 1 .321.053.217.217 0 0 1 .017.179.218.218 0 0 1-.126.128l-8.003 4.61a.188.188 0 0 1-.102.037ZM231.228 98.58a.208.208 0 0 1-.105-.026.206.206 0 0 1-.101-.237.221.221 0 0 1 .096-.133l8.003-4.61a.212.212 0 0 1 .212.369l-8.003 4.61a.188.188 0 0 1-.102.027ZM203.495 127.402a.206.206 0 0 1-.106-.026.219.219 0 0 1-.079-.075.226.226 0 0 1-.018-.165.225.225 0 0 1 .101-.131l35.728-20.597a.212.212 0 0 1 .311.237.21.21 0 0 1-.099.132l-35.728 20.597-.11.028ZM203.495 131.099a.195.195 0 0 1-.108-.029.2.2 0 0 1-.077-.081.214.214 0 0 1 .083-.286l35.728-20.607a.212.212 0 0 1 .285.083.19.19 0 0 1 .029.077.19.19 0 0 1-.004.082.214.214 0 0 1-.098.127l-35.728 20.606-.11.028ZM203.495 134.787a.206.206 0 0 1-.106-.026.219.219 0 0 1-.079-.075.223.223 0 0 1 .083-.295l35.728-20.598a.205.205 0 0 1 .081-.043.204.204 0 0 1 .092-.005c.03.005.059.017.085.034a.236.236 0 0 1 .063.067.216.216 0 0 1-.032.257.218.218 0 0 1-.077.05l-35.728 20.607-.11.027Z"/><path fill="#000" d="m250.185 47.28 47.944-27.66c.461-.267.839-.046.839.489v62.207a1.85 1.85 0 0 1-.839 1.457l-47.944 27.66c-.471.267-.839.055-.839-.48V48.728a1.837 1.837 0 0 1 .839-1.448Z" opacity=".2"/><path fill="#7F3A6A" d="M296.884 23.483 252.48 49.096a2.056 2.056 0 0 0-.922 1.605v60.566a2.02 2.02 0 0 0 .922 1.595l1.761.996a2.05 2.05 0 0 0 1.844 0l44.413-25.604a2.033 2.033 0 0 0 .996-1.586V26.074a2.01 2.01 0 0 0-.922-1.595l-1.844-1.005a2.104 2.104 0 0 0-1.844.01Z"/><path fill="#000" d="M256.104 113.849a2.117 2.117 0 0 1-1.844 0l-1.761-1.005a2.01 2.01 0 0 1-.922-1.596V50.71c.014-.328.116-.647.295-.922l3.605 2.084a1.847 1.847 0 0 0-.277.922v60.52c-.018.544.36.857.904.535Z" opacity=".2"/><path fill="#fff" d="M301.429 25.899c-.064-.461-.451-.627-.922-.369l-44.403 25.613a2.018 2.018 0 0 0-.645.692l-3.615-2.047c.154-.268.373-.493.636-.655l44.404-25.65a2.084 2.084 0 0 1 1.844 0l1.761 1.005a2.034 2.034 0 0 1 .94 1.411Z" opacity=".2"/><path fill="#fff" d="m300.517 25.54-44.413 25.603a2.059 2.059 0 0 0-.922 1.605v60.575c0 .59.415.821.922.526l44.413-25.604a2.037 2.037 0 0 0 .977-1.577V26.074c0-.59-.461-.83-.977-.535Z"/><path fill="#7F3A6A" d="M300.701 26.286v60.382a1.29 1.29 0 0 1-.553.922l-44.256 25.502V52.748a1.335 1.335 0 0 1 .553-.922l44.256-25.503m.231-.922a.818.818 0 0 0-.415.13l-44.413 25.612a2.06 2.06 0 0 0-.922 1.605v60.575c0 .415.203.655.507.655a.784.784 0 0 0 .415-.129l44.413-25.604a2.037 2.037 0 0 0 .977-1.577V26.074c0-.424-.212-.664-.516-.664l-.046-.009Z"/><path fill="#7F3A6A" d="M270.34 54.398v6.39c-2.766 1.595-5.007 5.882-5.007 9.56l-4.794 2.767c0-7.229 4.388-15.61 9.801-18.717Z"/><path fill="#7F3A6A" d="m266.735 74.156-3.449 6.454c-1.844-1.447-2.766-4.029-2.766-7.495l4.795-2.766a4.781 4.781 0 0 0 1.42 3.807Z"/><path fill="#000" d="m266.735 74.156-3.449 6.454c-1.844-1.447-2.766-4.029-2.766-7.495l4.795-2.766a4.781 4.781 0 0 0 1.42 3.807Z" opacity=".3"/><path fill="#7F3A6A" d="M280.131 61.774c0 7.22-4.388 15.6-9.791 18.726-2.822 1.623-5.099 1.65-7.054.083l3.449-6.454c.922.728 2.185.774 3.605 0 2.766-1.605 4.997-5.883 4.997-9.561 0-3.68-2.241-5.385-4.997-3.79v-6.38c5.403-3.144 9.791.175 9.791 7.376Z"/><path fill="#fff" d="M280.131 61.774c0 7.22-4.388 15.6-9.791 18.726-2.822 1.623-5.099 1.65-7.054.083l3.449-6.454c.922.728 2.185.774 3.605 0 2.766-1.605 4.997-5.883 4.997-9.561 0-3.68-2.241-5.385-4.997-3.79v-6.38c5.403-3.144 9.791.175 9.791 7.376Z" opacity=".4"/><path fill="#7F3A6A" d="m286.161 50.415-2.858 1.641a.143.143 0 0 0-.039.045.14.14 0 0 0-.016.056v3.301s0 .046.055 0l2.858-1.64a.144.144 0 0 0 .039-.045.14.14 0 0 0 .016-.057v-3.273s-.027-.046-.055-.028Z"/><path fill="#fff" d="m286.161 50.415-2.858 1.641a.143.143 0 0 0-.039.045.14.14 0 0 0-.016.056v3.301s0 .046.055 0l2.858-1.64a.144.144 0 0 0 .039-.045.14.14 0 0 0 .016-.057v-3.273s-.027-.046-.055-.028Z" opacity=".4"/><path fill="#455A64" d="M288.273 50.369a.212.212 0 0 1-.185-.102.222.222 0 0 1 .074-.295l8.003-4.61a.212.212 0 0 1 .275.313.218.218 0 0 1-.063.056l-8.003 4.61a.184.184 0 0 1-.101.028ZM288.273 52.185a.212.212 0 0 1-.185-.101.212.212 0 0 1 .074-.286l8.003-4.61a.212.212 0 0 1 .286.083.21.21 0 0 1 .024.159.205.205 0 0 1-.098.127l-8.003 4.61a.128.128 0 0 1-.101.018Z"/><path fill="#7F3A6A" d="m286.161 57.164-2.858 1.65a.144.144 0 0 0-.039.045.14.14 0 0 0-.016.057v3.3h.055l2.858-1.65a.123.123 0 0 0 .039-.04.121.121 0 0 0 .016-.052v-3.31h-.055Z"/><path fill="#455A64" d="M288.273 57.164a.204.204 0 0 1-.185-.11.212.212 0 0 1 .074-.286l8.003-4.61a.213.213 0 0 1 .321.053.217.217 0 0 1 .017.179.215.215 0 0 1-.126.128l-8.003 4.61a.184.184 0 0 1-.101.036ZM288.273 58.934a.212.212 0 0 1-.185-.101.221.221 0 0 1 .074-.295l8.003-4.61a.212.212 0 0 1 .315.153.217.217 0 0 1-.04.16.219.219 0 0 1-.063.056l-8.003 4.61a.184.184 0 0 1-.101.027Z"/><path fill="#7F3A6A" d="m286.161 63.904-2.858 1.65a.123.123 0 0 0-.039.04.122.122 0 0 0-.016.052v3.301s0 .055.055 0l2.858-1.65a.145.145 0 0 0 .039-.045.14.14 0 0 0 .016-.057v-3.263l-.055-.028Z"/><path fill="#000" d="m286.161 63.904-2.858 1.65a.123.123 0 0 0-.039.04.122.122 0 0 0-.016.052v3.301s0 .055.055 0l2.858-1.65a.145.145 0 0 0 .039-.045.14.14 0 0 0 .016-.057v-3.263l-.055-.028Z" opacity=".3"/><path fill="#455A64" d="M288.273 63.858a.213.213 0 0 1-.185-.102.212.212 0 0 1 .074-.286l8.003-4.61a.212.212 0 0 1 .286.083.21.21 0 0 1 .024.16.203.203 0 0 1-.098.127l-8.003 4.61a.184.184 0 0 1-.101.018ZM288.273 65.683a.204.204 0 0 1-.185-.11.212.212 0 0 1 .074-.286l8.003-4.61a.213.213 0 0 1 .321.053.217.217 0 0 1 .017.179.214.214 0 0 1-.126.128l-8.003 4.61a.184.184 0 0 1-.101.036ZM260.539 94.505a.207.207 0 0 1-.185-.11.213.213 0 0 1 .074-.286l35.737-20.607a.212.212 0 0 1 .286.083.21.21 0 0 1 .024.159.204.204 0 0 1-.098.127L260.64 94.477a.181.181 0 0 1-.101.028ZM260.539 98.193a.211.211 0 0 1-.185-.102.213.213 0 0 1 .074-.286L296.165 77.2a.212.212 0 0 1 .275.313.217.217 0 0 1-.063.056L260.64 98.165a.18.18 0 0 1-.101.028ZM260.539 101.89a.207.207 0 0 1-.185-.11.218.218 0 0 1-.021-.158.21.21 0 0 1 .095-.128l35.737-20.607a.212.212 0 0 1 .286.083.21.21 0 0 1 .024.159.205.205 0 0 1-.098.127l-35.737 20.607a.187.187 0 0 1-.101.027Z"/><path fill="#7F3A6A" d="M116.006 59.082c-5.228-7.607-19.196-13.904-36.484-14.088-15.674-.148-34.851 4.48-39.646 19.583-4.066 12.871 8.492 24.857 21.53 27.392a89.692 89.692 0 0 0 15.729 1.66c2.415 4.518 8.085 7.293 12.354 7.579a12.53 12.53 0 0 1-2.821-7.939 81.657 81.657 0 0 0 12.06-1.991c22.635-5.707 23.133-23.677 17.278-32.196Z"/><path fill="#fff" d="M116.006 59.082c-5.228-7.607-19.196-13.904-36.484-14.088-15.674-.148-34.851 4.48-39.646 19.583-4.066 12.871 8.492 24.857 21.53 27.392a89.692 89.692 0 0 0 15.729 1.66c2.415 4.518 8.085 7.293 12.354 7.579a12.53 12.53 0 0 1-2.821-7.939 81.657 81.657 0 0 0 12.06-1.991c22.635-5.707 23.133-23.677 17.278-32.196Z" opacity=".4"/><path fill="#fff" d="M57.164 64.485a4.693 4.693 0 1 0-.018 9.385 4.693 4.693 0 0 0 .018-9.385Zm21.98 0a4.693 4.693 0 1 0 3.3 1.364 4.693 4.693 0 0 0-3.309-1.364h.01Zm21.981 0a4.693 4.693 0 1 0 3.299 1.364 4.69 4.69 0 0 0-3.308-1.364h.009Z"/><path fill="#455A64" d="M385.451 44.007a27.446 27.446 0 0 0-27.262 25.218 27.45 27.45 0 0 0 22.818 29.3l3.089 7.938a1.6 1.6 0 0 0 1.489 1.024 1.6 1.6 0 0 0 1.489-1.024l3.061-7.957a27.44 27.44 0 0 0-4.684-54.49v-.009Zm.074 52.739a25.3 25.3 0 1 1 25.281-25.291 25.29 25.29 0 0 1-25.281 25.29Z"/><path fill="#fff" d="M410.502 75.516c2.238-13.787-7.125-26.778-20.912-29.016-13.787-2.238-26.778 7.125-29.016 20.912-2.238 13.787 7.125 26.778 20.912 29.015 13.787 2.238 26.778-7.124 29.016-20.911Z"/><path fill="#7F3A6A" d="M375.254 58.5a20.95 20.95 0 0 1 1.973-1.511c.738-.48 1.515-.897 2.324-1.245.868-.363 1.77-.64 2.692-.83a15.502 15.502 0 0 1 3.153-.304 13.088 13.088 0 0 1 4.195.636 9.359 9.359 0 0 1 3.246 1.844 8.1 8.1 0 0 1 2.046 2.84 9.217 9.217 0 0 1 .738 3.688 9.476 9.476 0 0 1-.581 3.485 9.916 9.916 0 0 1-1.457 2.554 11.144 11.144 0 0 1-1.917 1.844l-1.973 1.503c-.567.419-1.103.878-1.605 1.374a2.68 2.68 0 0 0-.802 1.521l-.608 3.863h-4.481l-.443-4.315c-.123-.747 0-1.514.35-2.185a6.937 6.937 0 0 1 1.383-1.715 17.405 17.405 0 0 1 1.909-1.475c.699-.48 1.361-1.01 1.982-1.586a8.22 8.22 0 0 0 1.549-1.936c.434-.78.65-1.662.627-2.554a3.825 3.825 0 0 0-1.355-3.006 4.48 4.48 0 0 0-1.521-.83c-.62-.2-1.267-.3-1.918-.294a8.55 8.55 0 0 0-2.554.331 9.307 9.307 0 0 0-1.78.747c-.479.268-.922.517-1.226.738-.267.2-.588.315-.922.332a1.448 1.448 0 0 1-1.374-.793l-1.65-2.72Zm5.006 28.288a4.043 4.043 0 0 1 .305-1.558c.188-.478.474-.912.839-1.273a4 4 0 0 1 2.858-1.162c.539-.006 1.073.1 1.567.314.473.203.904.49 1.273.848a3.968 3.968 0 0 1-1.273 6.454 3.988 3.988 0 0 1-1.567.305 4.165 4.165 0 0 1-1.595-.305 3.738 3.738 0 0 1-1.263-.839 3.686 3.686 0 0 1-.839-1.254 4.084 4.084 0 0 1-.351-1.53h.046Z"/><path fill="#263238" d="m313.821 320.026 10.142-58.528 6.454-.323-13.332 58.842a.846.846 0 0 1-.424.572 2.533 2.533 0 0 1-2.287.119.761.761 0 0 1-.507-.682h-.046Z"/><path fill="#37474F" d="M409.267 251.89h6.454l15.111 60.788a.792.792 0 0 1-.47.71 2.562 2.562 0 0 1-2.287 0 .925.925 0 0 1-.461-.553l-18.347-60.945ZM364.817 347.917l.286-65.545 6.454-.332-3.467 65.867a.864.864 0 0 1-.433.572 2.538 2.538 0 0 1-2.287.12.788.788 0 0 1-.498-.682h-.055Z"/><path fill="#263238" d="M374.194 231.496h6.454l10.289 64.54a.777.777 0 0 1-.47.71 2.562 2.562 0 0 1-2.287 0 .925.925 0 0 1-.461-.554l-13.525-64.696Z"/><path fill="#7F3A6A" d="M427.808 180.896a35.95 35.95 0 0 1 2.563 11.286c.738 8.648-2.194 36.658-3.946 49.179-2.535 20.93-5.661 20.966-10.197 24.47-7.8 6.03-30.233 17.841-37.636 20.754-13.425 5.283-24.406-2.858-32.593-6.906a189.605 189.605 0 0 1-21.676-12.834c-2.038-1.493-3.098-2.996-3.08-4.61v-3.854c0-2.028 1.78-4.195 5.532-6.629 6.934-4.499 32.003-19.113 41.712-24.497a.085.085 0 0 1 .029-.051.085.085 0 0 1 .054-.023c7.468-4.536 11.986-35.377 17.139-51.789.111-.341.222-.682.342-1.014.119-.332.175-.517.267-.765a26.09 26.09 0 0 1 1.014-2.453"/><path fill="#7F3A6A" d="M321.197 258.39c0-2.019 1.78-4.185 5.532-6.619 6.934-4.5 32.003-19.114 41.711-24.498a.096.096 0 0 1 .083-.074c7.469-4.536 11.986-35.377 17.14-51.789.056-.147.415-1.41 1.088-3.014l.093-.222.295-.664c.055-.11.101-.23.147-.331a15.852 15.852 0 0 1 3.448-4.989 7.644 7.644 0 0 1 1.697-1.189c.839-.479 2.609-1.457 3.042-1.715 5.081-3.042 11.738.609 20.036 5.154 5.163 2.821 9.561 6.187 12.244 12.456a35.978 35.978 0 0 1 2.563 11.286c.737 8.648-2.195 36.658-3.946 49.179-2.536 20.93-5.661 20.966-10.198 24.47-7.8 6.03-30.232 17.841-37.636 20.754-13.424 5.283-24.405-2.858-32.592-6.906a189.704 189.704 0 0 1-21.677-12.834c-2.037-1.493-3.098-2.996-3.079-4.61.028-.608.009-3.153.009-3.845Z"/><path fill="#000" d="M321.197 258.39c0-2.019 1.78-4.185 5.532-6.619 6.934-4.5 32.003-19.114 41.711-24.498a.096.096 0 0 1 .083-.074c7.469-4.536 11.986-35.377 17.14-51.789.056-.147.415-1.41 1.088-3.014l.093-.222.295-.664c.055-.11.101-.23.147-.331a15.852 15.852 0 0 1 3.448-4.989 7.644 7.644 0 0 1 1.697-1.189c.839-.479 2.609-1.457 3.042-1.715 5.081-3.042 11.738.609 20.036 5.154 5.163 2.821 9.561 6.187 12.244 12.456a35.978 35.978 0 0 1 2.563 11.286c.737 8.648-2.195 36.658-3.946 49.179-2.536 20.93-5.661 20.966-10.198 24.47-7.8 6.03-30.232 17.841-37.636 20.754-13.424 5.283-24.405-2.858-32.592-6.906a189.704 189.704 0 0 1-21.677-12.834c-2.037-1.493-3.098-2.996-3.079-4.61.028-.608.009-3.153.009-3.845Z" opacity=".15"/><path fill="#7F3A6A" d="M345.971 275.779a189.79 189.79 0 0 1-21.685-12.843c-4.61-3.375-4.223-6.832 2.452-11.165 9.266-6.012 47.022-27.448 47.022-27.448s47.76 28.185 45.704 33.394c-2.056 5.21-31.615 21.308-40.928 24.968-13.424 5.283-24.387-2.867-32.565-6.906Z"/><path fill="#fff" d="M345.971 275.779a189.79 189.79 0 0 1-21.685-12.843c-4.61-3.375-4.223-6.832 2.452-11.165 9.266-6.012 47.022-27.448 47.022-27.448s47.76 28.185 45.704 33.394c-2.056 5.21-31.615 21.308-40.928 24.968-13.424 5.283-24.387-2.867-32.565-6.906Z" opacity=".3"/><path fill="#7F3A6A" d="M392.449 165.038c5.025-2.637 11.562.922 19.639 5.375 5.182 2.84 9.589 6.196 12.272 12.493l3.411-1.973c-2.683-6.269-7.081-9.625-12.244-12.456-8.298-4.545-14.955-8.197-20.035-5.154a69.741 69.741 0 0 0-3.043 1.715Z"/><path fill="#fff" d="M392.449 165.038c5.025-2.637 11.562.922 19.639 5.375 5.182 2.84 9.589 6.196 12.272 12.493l3.411-1.973c-2.683-6.269-7.081-9.625-12.244-12.456-8.298-4.545-14.955-8.197-20.035-5.154a69.741 69.741 0 0 0-3.043 1.715Z" opacity=".3"/><path fill="#7F3A6A" d="M368.533 227.199s4.868 1.595 22.238 10.142c7.137 3.495 11.82 7.026 18.505 11.23 9.828 6.187 9.072 10.778 9.072 10.778 4.887-4.047 9.755-51.014 8.556-65.222a35.665 35.665 0 0 0-2.766-11.829c-.129-.277-.267-.553-.405-.83-.139-.277-.185-.378-.286-.553l-.148-.268a24.768 24.768 0 0 0-1.235-1.973l-.323-.461-.35-.451c-.102-.139-.231-.286-.341-.434l-.305-.35a20.579 20.579 0 0 0-1.761-1.844 9.46 9.46 0 0 0-.47-.424 28.71 28.71 0 0 0-3.107-2.361 5.88 5.88 0 0 0-.507-.331 12.547 12.547 0 0 0-.682-.425c-.24-.138-.378-.239-.572-.341-.498-.304-1.014-.59-1.53-.922-6.178-3.383-11.442-6.279-15.84-6.279a8.178 8.178 0 0 0-5.532 2.093c-3.237 2.859-4.97 8.879-5.081 9.22-5.163 16.458-9.662 47.299-17.13 51.835Z"/><path fill="#fff" d="M368.533 227.199s4.868 1.595 22.238 10.142c7.137 3.495 11.82 7.026 18.505 11.23 9.828 6.187 9.072 10.778 9.072 10.778 4.887-4.047 9.755-51.014 8.556-65.222a35.665 35.665 0 0 0-2.766-11.829c-.129-.277-.267-.553-.405-.83-.139-.277-.185-.378-.286-.553l-.148-.268a24.768 24.768 0 0 0-1.235-1.973l-.323-.461-.35-.451c-.102-.139-.231-.286-.341-.434l-.305-.35a20.579 20.579 0 0 0-1.761-1.844 9.46 9.46 0 0 0-.47-.424 28.71 28.71 0 0 0-3.107-2.361 5.88 5.88 0 0 0-.507-.331 12.547 12.547 0 0 0-.682-.425c-.24-.138-.378-.239-.572-.341-.498-.304-1.014-.59-1.53-.922-6.178-3.383-11.442-6.279-15.84-6.279a8.178 8.178 0 0 0-5.532 2.093c-3.237 2.859-4.97 8.879-5.081 9.22-5.163 16.458-9.662 47.299-17.13 51.835Z" opacity=".1"/><path fill="#FFA8A7" d="m358.925 278.444-9.109-11.894-14.208 10.456c9.451 6.398 19.841 14.392 22.395 17.518 0 0 8.059-3.421 8.584-7.939.526-4.518-5.163-7.136-7.662-8.141Z"/><path fill="#263238" d="M369.335 281.846a7.064 7.064 0 0 1 2.24 1.687c.692.701 1.245 4.61 2.093 6.325.848 1.715 1.346 2.112 2.628 4.214 1.42 2.323 3.614 4.287 2.821 11.064-.793 6.777-3.42 10.474-5.827 12.548a7.1 7.1 0 0 1-3.107 1.393s-3.789-.674-3.633-2.868c.157-2.194 2.785-34.363 2.785-34.363Z"/><path fill="#7F3A6A" d="M355.136 291.804c.221.645 1.337 1.493 1.844 1.964a17.781 17.781 0 0 1 3.494 6.011c3.983 9.801.922 15.739 7.1 18.541 1.77.701 5.015-.184 8.833-7.541 1.945-3.762 2.148-10.779.58-13.646-1.567-2.868-3.3-4.61-4.388-6.841-1.088-2.232-1.559-6.666-3.237-8.446a9.687 9.687 0 0 0-3.688-2.148c-1.088-.406-3.356-.784-4.453-1.171-1.097-.387-1.761-.922-2.268-.074l1.411 1.199c2.249 2.139 1.844 2.6 2.019 3.928a20.83 20.83 0 0 0 1.447 4.066c-1.576-1.365-2.351-2.674-3.688-2.167-1.336.507-1.521.47-3.162 2.711-1.641 2.24-2.01 3.042-1.844 3.614Z"/><path fill="#000" d="M355.136 291.804c.221.645 1.337 1.493 1.844 1.964a17.781 17.781 0 0 1 3.494 6.011c3.983 9.801.922 15.739 7.1 18.541 1.77.701 5.015-.184 8.833-7.541 1.945-3.762 2.148-10.779.58-13.646-1.567-2.868-3.3-4.61-4.388-6.841-1.088-2.232-1.559-6.666-3.237-8.446a9.687 9.687 0 0 0-3.688-2.148c-1.088-.406-3.356-.784-4.453-1.171-1.097-.387-1.761-.922-2.268-.074l1.411 1.199c2.249 2.139 1.844 2.6 2.019 3.928a20.83 20.83 0 0 0 1.447 4.066c-1.576-1.365-2.351-2.674-3.688-2.167-1.336.507-1.521.47-3.162 2.711-1.641 2.24-2.01 3.042-1.844 3.614Z" opacity=".4"/><path fill="#000" d="M376.379 310.779c1.945-3.762 2.148-10.779.581-13.646a29.982 29.982 0 0 0-1.724-2.766c.073.203.175.396.239.572.139.387.258.774.378 1.161a9.35 9.35 0 0 1 .351 4.721c-.341 1.374-1.079 4.813-2.766 5.2-.922.221-1.964-.572-2.545-1.595-.24-.424-.728-1.614-.728-1.614a15.284 15.284 0 0 0-4.122 2.647c-2.176 2.111-2.019 2.461-2.019 2.461a6.68 6.68 0 0 1 .489 2.167 5.536 5.536 0 0 1-.526 2.351 3.187 3.187 0 0 1-.535.618 6.78 6.78 0 0 0 4.103 5.246c1.761.71 5.007-.166 8.824-7.523Z" opacity=".3"/><path fill="#37474F" d="M360.447 299.779a35.29 35.29 0 0 1 2.157 8.031c1.42 2.434 2.222 2.203 2.084.83-.138-1.374-2.987-6.648-5.191-11.064.35.756.664 1.493.95 2.203ZM363.6 282.28a5.8 5.8 0 0 0-1.687-3.541 6.82 6.82 0 0 1-.719-.212c-1.19-.406-1.762-.922-2.269-.074l1.411 1.199c2.25 2.139 1.844 2.6 2.019 3.928.34 1.401.825 2.764 1.448 4.066 1.844 4.232 3.088 5.532 4.352 9.625 1.263 4.094.922 7.054 1.595 7.173.673.12 1.733-.562 1.327-3.955-.405-3.393-2.932-8.741-4.481-11.221-1.549-2.48-2.876-5.154-2.996-6.988Z"/><path fill="#EBEBEB" d="M370.506 303.071a.47.47 0 0 1-.194.156 10.156 10.156 0 0 0-5.947 5.154.426.426 0 0 1-.423.211.443.443 0 0 1-.283-.163.434.434 0 0 1-.085-.314.424.424 0 0 1 .054-.158 10.995 10.995 0 0 1 6.361-5.532.419.419 0 0 1 .327.005.417.417 0 0 1 .227.235.444.444 0 0 1-.037.406ZM369.326 299.65a.44.44 0 0 1-.185.157 11.42 11.42 0 0 0-6.242 5.587.414.414 0 0 1-.265.208.421.421 0 0 1-.334-.051.43.43 0 0 1-.157-.59 12.252 12.252 0 0 1 6.648-5.947.413.413 0 0 1 .333-.012.433.433 0 0 1 .238.233.42.42 0 0 1-.036.415ZM368.689 295.833a.548.548 0 0 1-.212.166 12.956 12.956 0 0 0-6.97 6.269.484.484 0 0 1-.291.236.492.492 0 0 1-.372-.046.496.496 0 0 1-.225-.299.473.473 0 0 1 .058-.37 13.831 13.831 0 0 1 7.422-6.666.465.465 0 0 1 .366-.008.468.468 0 0 1 .261.257.498.498 0 0 1-.037.461ZM367.518 292.652a.45.45 0 0 1-.202.166 12.639 12.639 0 0 0-6.823 6.122.47.47 0 1 1-.812-.47 13.512 13.512 0 0 1 7.257-6.509.468.468 0 0 1 .617.239.453.453 0 0 1-.037.452ZM365.721 289.683a.457.457 0 0 1-.203.166 12.57 12.57 0 0 0-6.814 6.131.483.483 0 0 1-.29.21.482.482 0 0 1-.495-.164.475.475 0 0 1-.035-.525 13.543 13.543 0 0 1 7.256-6.509.468.468 0 0 1 .617.239.462.462 0 0 1-.036.452Z"/><path fill="#455A64" d="M366.513 224.774s-36.603 8.086-49.88 11.691c-13.553 3.688-12.124 14.199-7.081 19.538 9.663 10.243 37.12 29.107 37.12 29.107s7.772-4.776 8.372-11.986l-7.533-10.667 27.273-3.329 3.881-4.702-12.152-29.652Z"/><path fill="#37474F" d="M340.91 274.12c1.936-4.5 3.688-5.873 8.427-9.082l5.716 8.104c-.599 7.183-8.372 11.986-8.372 11.986s-3.162-2.175-7.726-5.449a53.862 53.862 0 0 1 1.955-5.559ZM342.754 251.78c2.369 2.083 4.453 3.983 6.278 5.818 1.826 1.834 6.03 1.844 9.792 0 4.665-2.315 9.616-6.261 12.502-8.529-4.25-4.739-2.526-11.691-2.526-11.691.424 4.518 2.462 8.298 4.61 10.059l2.305 1.623.83 7.155-1.291 2.812-27.743 3.448c-7.616-9.902-10.243-14.448-16.596-15.204-.009 0 4.813-1.669 11.839 4.509Z"/><path fill="#FFA8A7" d="m347.419 330.426.387-1.309 8.879-23.05-16.753-6.27c-2.176 11.839-4.859 27.448-7.376 31.551 0 0 4.536 7.035 9.017 6.215 4.481-.821 5.625-4.435 5.846-7.137Z"/><path fill="#263238" d="M346.838 338.835a7.063 7.063 0 0 1-.922 2.628c-.461.866-4.048 2.544-5.431 3.854-1.383 1.309-1.632 1.899-3.263 3.743-1.844 2.038-3.052 4.711-9.792 5.938-6.74 1.226-11.018-.212-13.71-1.909a7.174 7.174 0 0 1-2.241-2.563s-.461-3.817 1.678-4.315c2.139-.498 33.681-7.376 33.681-7.376Z"/><path fill="#7F3A6A" d="M333.165 328.158a7.899 7.899 0 0 0-1.346 2.314 17.918 17.918 0 0 1-4.73 5.099c-8.206 6.666-14.752 5.449-15.674 12.198-.157 1.9 1.641 4.749 9.791 6.242 4.168.765 10.935-1.088 13.222-3.43 2.286-2.342 3.439-4.499 5.255-6.186 1.817-1.688 5.929-3.449 7.137-5.532a9.685 9.685 0 0 0 .977-4.159c.074-1.161.101-5.071.101-5.071-1.392 2.766-3.559 2.471-4.766 3.052a21.174 21.174 0 0 0-3.476 2.573c.848-1.9 1.844-3.024.995-4.168-.848-1.143-.922-1.318-3.512-2.231-2.591-.913-3.486-1.051-3.974-.701Z"/><path fill="#000" d="M333.165 328.158a7.899 7.899 0 0 0-1.346 2.314 17.918 17.918 0 0 1-4.73 5.099c-8.206 6.666-14.752 5.449-15.674 12.198-.157 1.9 1.641 4.749 9.791 6.242 4.168.765 10.935-1.088 13.222-3.43 2.286-2.342 3.439-4.499 5.255-6.186 1.817-1.688 5.929-3.449 7.137-5.532a9.685 9.685 0 0 0 .977-4.159c.074-1.161.101-5.071.101-5.071-1.392 2.766-3.559 2.471-4.766 3.052a21.174 21.174 0 0 0-3.476 2.573c.848-1.9 1.844-3.024.995-4.168-.848-1.143-.922-1.318-3.512-2.231-2.591-.913-3.486-1.051-3.974-.701Z" opacity=".4"/><path fill="#000" d="M321.225 354.048c4.167.765 10.935-1.088 13.221-3.43a28.313 28.313 0 0 0 2.121-2.443c-.166.129-.323.286-.47.396-.332.24-.664.471-1.005.692a9.33 9.33 0 0 1-4.407 1.724c-1.42.074-4.915.369-5.791-1.143-.488-.858 0-2.038.784-2.886.341-.36 1.328-1.18 1.328-1.18a15.22 15.22 0 0 0-3.734-3.163c-2.656-1.466-2.942-1.217-2.942-1.217a6.434 6.434 0 0 1-1.927 1.097 5.524 5.524 0 0 1-2.397.194 3.537 3.537 0 0 1-.756-.332 6.752 6.752 0 0 0-3.817 5.449c-.157 1.862 1.641 4.711 9.792 6.242Z" opacity=".3"/><path fill="#37474F" d="M327.089 335.608a35.078 35.078 0 0 1-7.044 4.398c-1.918 2.074-1.457 2.766-.185 2.24 1.273-.525 5.486-4.794 9.036-8.187-.599.507-1.208 1.023-1.807 1.549ZM344.745 333.478a7.684 7.684 0 0 0 3.107-1.567c.581-.535.185-2.102 0-2.766l-.442 1.392c-1.632 1.383-3.006 1.567-4.214 2.148a21.217 21.217 0 0 0-3.476 2.573c-3.503 3.015-4.389 4.61-7.929 6.979-3.541 2.37-6.454 2.969-6.399 3.614.056.646 1.051 1.494 4.177.12 3.125-1.374 7.505-5.366 9.414-7.56 1.908-2.194 4.056-4.287 5.762-4.933Z"/><path fill="#EBEBEB" d="M326.886 346.146a.364.364 0 0 1-.203-.138 10.209 10.209 0 0 0-6.675-4.186.433.433 0 0 1-.323-.507.425.425 0 0 1 .507-.313 10.989 10.989 0 0 1 7.118 4.471.427.427 0 0 1 .023.504.421.421 0 0 1-.475.169h.028ZM329.781 344.035a.497.497 0 0 1-.203-.138 11.39 11.39 0 0 0-7.164-4.334.415.415 0 0 1-.274-.193.423.423 0 0 1-.049-.332.436.436 0 0 1 .517-.323 12.209 12.209 0 0 1 7.634 4.61.416.416 0 0 1 .102.316.428.428 0 0 1-.157.293.439.439 0 0 1-.406.101ZM333.275 342.292a.501.501 0 0 1-.221-.147 12.904 12.904 0 0 0-8.031-4.831.482.482 0 0 1-.1-.834.479.479 0 0 1 .322-.088 13.872 13.872 0 0 1 8.537 5.144.481.481 0 0 1-.055.683.477.477 0 0 1-.452.073ZM335.977 340.218a.433.433 0 0 1-.221-.138 12.587 12.587 0 0 0-7.847-4.739.46.46 0 0 1-.35-.563.47.47 0 0 1 .562-.35 13.544 13.544 0 0 1 8.344 5.034.48.48 0 0 1 .092.159.49.49 0 0 1-.025.36.482.482 0 0 1-.322.249.46.46 0 0 1-.233-.012ZM338.291 337.664a.451.451 0 0 1-.221-.147 12.621 12.621 0 0 0-7.846-4.73.48.48 0 0 1-.36-.563.478.478 0 0 1 .212-.295.501.501 0 0 1 .174-.064.486.486 0 0 1 .186.009 13.484 13.484 0 0 1 8.344 5.034c.04.047.071.101.091.159a.463.463 0 0 1-.137.505.462.462 0 0 1-.443.092Z"/><path fill="#455A64" d="M334.917 320.856c4.388 4.564 14.973 4.241 14.973 4.241s3.042-5.818 8.538-18.532c3.07-7.109 4.775-10.326 6.075-20.284 9.313-4.564 25.881-11.119 41.583-22.856 11.248-8.409 13.018-19.823 11.589-33.349-1.752-16.596-50.553-3.043-50.553-3.043 3.227 9.017 2.499 17.896 8.593 21.981 0 0-19.648 14.097-26.286 19.131-3.043 2.305-4.481 3.071-5.947 10.078-4.287 20.57-8.565 42.633-8.565 42.633Z"/><path fill="#37474F" d="m347.594 325.051-.922-.055c3.384-6.344 8.482-19.971 10.382-25.816.617-1.909 1.89-7.302 2.268-8.768 1.798-7.054 2.056-9.617 3.992-10.272.489-.175 1.558-.802 3.227-1.631 8.51-4.214 29.089-14.669 36.198-21.345.212-.203.396-.405.599-.608-3.586-2.075-4.693-7.542-3.393-11.433 1.383-4.158 1.3-11.673-.922-14.752l.636-.452c2.554 3.614 2.296 11.58.996 15.471-1.217 3.688-.074 8.851 3.227 10.603 6.638-7.071 8.298-16.817 4.924-28.314l.746-.222c3.688 12.457 1.531 22.931-6.306 30.288-7.192 6.758-27.854 17.251-36.382 21.483-1.604.802-2.766 1.373-3.209 1.613-1.844.996-2.517 5.846-3.577 9.912-.387 1.484-1.669 6.813-2.333 8.74-2 5.91-6.979 19.381-10.151 25.558Z"/><path fill="#455A64" d="m344.007 297.419 2.665-1.54 6.933 87.23-2.673 1.54-6.925-87.23Z"/><path fill="#37474F" d="m344.007 297.419-3.992-2.305 8.252 87.995 2.665 1.54-6.925-87.23Z"/><path fill="#455A64" d="m271.179 255.44 2.664-1.54-8.252 78.463-2.664 1.539 8.252-78.462Z"/><path fill="#37474F" d="m271.179 255.44-3.993-2.305-6.933 79.228 2.674 1.539 8.252-78.462Z"/><path fill="#455A64" d="m390.587 270.561 2.664-1.54 6.934 87.221-2.674 1.54-6.924-87.221Z"/><path fill="#37474F" d="m390.587 270.561-3.992-2.305 8.252 87.986 2.664 1.54-6.924-87.221Z"/><path fill="#455A64" d="m317.758 228.582 2.665-1.54-8.252 78.463-2.665 1.539 8.252-78.462Z"/><path fill="#37474F" d="m317.758 228.582-4.001-2.314-6.925 79.237 2.674 1.539 8.252-78.462Z"/><path fill="#7F3A6A" d="M415.462 269.224v-3.153a1.85 1.85 0 0 0-.811-1.411l-101.005-58.399a1.841 1.841 0 0 0-1.623 0l-66.67 38.548a1.848 1.848 0 0 0-.811 1.411v3.163a1.846 1.846 0 0 0 .811 1.401l101.015 58.353a1.736 1.736 0 0 0 1.622 0l66.661-38.548a1.774 1.774 0 0 0 .811-1.365Z"/><path fill="#fff" d="M415.462 269.224v-3.153a1.85 1.85 0 0 0-.811-1.411l-101.005-58.399a1.841 1.841 0 0 0-1.623 0l-66.67 38.548a1.848 1.848 0 0 0-.811 1.411v3.163a1.846 1.846 0 0 0 .811 1.401l101.015 58.353a1.736 1.736 0 0 0 1.622 0l66.661-38.548a1.774 1.774 0 0 0 .811-1.365Z" opacity=".2"/><path fill="#7F3A6A" d="M347.179 304.306v5.025c.281.003.559-.06.811-.184l66.661-38.558a1.774 1.774 0 0 0 .811-1.402v-3.162a1.762 1.762 0 0 0-.663-1.3c.295.249.249.599-.148.829l-66.661 38.549a1.585 1.585 0 0 1-.811.203Z"/><path fill="#7F3A6A" d="m414.651 265.536-66.661 38.549a1.838 1.838 0 0 1-1.622 0L245.353 245.75a.502.502 0 0 1 0-.922l66.67-38.549a1.842 1.842 0 0 1 1.623 0l101.005 58.335a.492.492 0 0 1 .31.461.5.5 0 0 1-.31.461Z"/><path fill="#fff" d="m414.651 265.536-66.661 38.549a1.838 1.838 0 0 1-1.622 0L245.353 245.75a.502.502 0 0 1 0-.922l66.67-38.549a1.842 1.842 0 0 1 1.623 0l101.005 58.335a.492.492 0 0 1 .31.461.5.5 0 0 1-.31.461Z" opacity=".5"/><path fill="#000" d="m275.678 237.157 35.469-20.487a2.016 2.016 0 0 1 2.038 0l61.59 35.562a.445.445 0 0 1 .227.391.452.452 0 0 1-.227.392l-35.839 20.699-63.258-36.557Z" opacity=".2"/><path fill="#37474F" d="M280.675 234.188v.765a3.178 3.178 0 0 0 1.568 2.766l55.015 31.754a3.088 3.088 0 0 0 1.568.424 3.18 3.18 0 0 0 1.586-.424l29.983-17.26a3.136 3.136 0 0 0 1.567-2.766v-1.06a.382.382 0 0 1-.193.35l-32.934 19.012-58.16-33.561Z"/><path fill="#455A64" d="m280.666 234.188 32.62-18.836a1.897 1.897 0 0 1 1.844 0l56.63 32.666a.418.418 0 0 1 .208.36.417.417 0 0 1-.208.359l-32.934 19.012-58.16-33.561Z"/><path fill="#37474F" d="m339.13 264.974 17.592-10.152-51.448-29.707-17.684 10.096 51.54 29.763Z"/><path fill="#263238" d="m287.59 235.211.673.388 17.02-9.709 50.766 29.32.673-.388-51.439-29.707-17.693 10.096ZM347.778 236.742l-.322.184-8.63 4.979-15.333-8.851-.323-.184 8.953-5.164 15.655 9.036Z"/><path fill="#37474F" d="m347.456 236.926-8.63 4.979-15.333-8.851 8.63-4.979 15.333 8.851Z"/><path fill="#263238" d="M338.826 267.74v2.093a3.11 3.11 0 0 1-1.568-.425l-55.015-31.763a3.118 3.118 0 0 1-1.577-2.719v-.738l58.16 33.552Z"/><path fill="#FFA8A7" d="M334.686 206.897c5.421-2.102 19.03-8.086 19.03-8.086s12.281-20.598 14.973-24.894c3.218-5.173 7.773-9.036 15.232-8.446l-1.291 21.557s-13.24 18.984-15.609 22.128c-1.798 2.378-1.688 3.052-6.454 4.038l-22.534 4.711-.922.268a3.08 3.08 0 0 0-1.568 1.069 9.183 9.183 0 0 0-.995 1.66c-.922 2.01-.867 2.692-1.844 4.868-.978 2.176-1.439 1.973-2.96 3.642-1.411 1.531-2.019 2.591-2.711 2.434-.691-.157-1.032-1.918-.534-3.411.498-1.494 1.963-2.822 2.203-3.439.24-.618.175-1.512-1.521-1.153-1.697.36-5.385 3.642-7.026 5.043-1.641 1.402-2.978 3.541-4.471 4.445-1.494.903-1.42-.637-1.513-1.964-.092-1.328-1.465-3.356-1.456-5.459.009-2.102 2.351-7.182 4.481-8.888 2.129-1.705 6.26-4.656 7.376-5.292a62.254 62.254 0 0 1 10.114-4.831Z"/><path fill="#7F3A6A" d="M384.52 165.232c-3.218-.295-7.219-.157-10.566 2.471-3.347 2.627-5.016 4.868-9.967 13.24-4.951 8.371-7.376 12.659-7.376 12.659a15.838 15.838 0 0 0 5.929 7.145 30.414 30.414 0 0 0 8.537 3.347l12.475-17.039.968-21.823Z"/><path fill="#263238" d="M370.773 185.23c1.309-14.586 6.307-19.473 13.747-19.998 5.443.23 10.87.76 16.255 1.585a64.149 64.149 0 0 1 17.841 6.915c3.688 2.305 4.868 7.238 4.942 17.574a231.682 231.682 0 0 1-1.937 29.78 154.277 154.277 0 0 1-5.089 25.669c-10.271 3.43-50.987-9.027-50.71-22.064 1.06-2.987 2.895-6.454 3.734-12.474 1.088-10.622.802-22.405 1.217-26.987ZM405.45 161.488c.995-4.02 5.366-7.957 7.458-11.368 2.093-3.411 3.274-5.864 3.31-9.1 0-1.918-.977-4.61-2.341-5.237 2.166-6.961-2.868-10.188-5.191-11.212-1.024-.451-3.301-1.198-4.297-1.705-1.484-.756-1.742-2.019-2.895-3.163-1.991-1.973-5.532-2.286-7.155.351-1.281-1.946-3.208-2.038-5.467-1.642a3.81 3.81 0 0 0-3.236 4.066c-2.84-1.89-5.726 0-6.132 1.725-.295 1.272-.11 2.378-1.032 3.476-.922 1.097-2.849 1.069-3.31 0-.443 1.844.166 3.254 2.157 3.31a4.122 4.122 0 0 0-.783 3.448 3.784 3.784 0 0 0 3.227 2.876 6.64 6.64 0 0 0 .673 2.859 6.705 6.705 0 0 0 2.176 2.286c2.895 1.66 6.186 2.379 9.367 3.292l3.78 1.088c.222.064 1.383.221 1.503.433l8.188 14.217Z"/><path fill="#FFA8A7" d="M410.779 156.592a3.961 3.961 0 0 1-2.484.562 3.96 3.96 0 0 1-2.311-1.069l-.811 13.443c-2.665 5.532-12.558 5.799-16.006 3.9-3.448-1.899-2.831-3.974-.267-7.016l-.083-2.213a39.26 39.26 0 0 1-4.822-.59c-3.163-.673-5.366-3.448-6.012-6.97a35.888 35.888 0 0 1 .646-13.729 12.02 12.02 0 0 0 .424-3.338 15.796 15.796 0 0 1 1.539-7.118c3.688-2.553 11.922-2.904 19.15 2.278-1.217 4.435.259 8.141 3.412 10.142-.249 1.208-.636 4.269 1.374 4.361 1.438.074 1.678-1.733 3.273-3.209 1.595-1.475 5.089-1.65 6.251.802 1.613 3.393 0 8.133-3.273 9.764Z"/><path fill="#263238" d="m399.078 142.154 9.368 3.356a3.91 3.91 0 0 0-1.503 1.438l-8.224-2.572.359-2.222Z"/><path fill="#37474F" d="M376.637 138.955c-.129.922.369 1.254.433 1.954a24.32 24.32 0 0 0 0 3.817 3.915 3.915 0 0 0 3.366 3.338 4.18 4.18 0 0 0 2.71-.161 4.184 4.184 0 0 0 2.038-1.794c.922-1.272.968-3.264 2.204-3.061 1.235.203.737 2.176 1.189 3.688a4.76 4.76 0 0 0 4.121 3.688 4.224 4.224 0 0 0 3.458-.627c1.493-1.097 1.798-3.254 2.369-4.748.268-.738.922-.784 1.107-1.696.184-.913-.489-1.328-1.217-1.476a20.35 20.35 0 0 0-6.565-1.06c-2.185.221-3.033.765-4.186.553-1.152-.212-1.65-1.032-3.494-2.028a18.837 18.837 0 0 0-6.685-1.411c-.295-.009-.765.443-.848 1.024Zm13.434 3.688a1.84 1.84 0 0 1 .682-.388h.12a8.034 8.034 0 0 1 3.144-.295c2.028.185 3.199.922 3.586 1.374.47.775-.304 3.024-.765 4.075-.055.12-.129.249-.203.378l-.129.203c-1.226 2.314-5.145 1.752-6.325-.249-.894-1.493-.885-4.02-.11-5.098Zm-11.608-3.034c.172-.11.362-.188.562-.23.163-.042.33-.07.498-.083h.101c1.844-.194 4.979 1.134 5.588 2.434.322.839-.222 2.572-.775 3.688-.155.28-.343.54-.562.774-.802 1.144-3.421 1.393-4.776.268-1.356-1.125-1.3-2.72-1.3-3.513.027-1.07.156-3.006.664-3.338Z"/><path fill="#F28F8F" d="m388.356 144.754-2.268 7.505-4.61-2.877c.221-.276.46-.553.682-.839.11-.138.23-.276.332-.424l.691-.848a69.445 69.445 0 0 1 1.798-2.121c.42-.465.866-.905 1.337-1.318.258-.24.516-.452.719-.609.076-.061.156-.117.24-.166h.166c.719.13.839.821.913 1.697ZM388.817 164.199c5.107-.221 8.998-.479 11.912-3.946a31.859 31.859 0 0 0 3.503-5.772 24.807 24.807 0 0 1-2.766 7.376c-1.456 2.25-4.61 4.085-12.612 4.168l-.037-1.826Z"/><path fill="#263238" d="M391.029 145.012a1.445 1.445 0 0 0 .7 1.455c.165.097.347.16.536.186a1.467 1.467 0 0 0 1.309-2.354 1.436 1.436 0 0 0-.954-.536 1.421 1.421 0 0 0-1.417.719 1.44 1.44 0 0 0-.174.53ZM393.307 139.028l3.19 1.411a1.845 1.845 0 0 0-.922-2.36 1.703 1.703 0 0 0-1.9.376c-.16.164-.285.359-.368.573Z"/><path fill="#B16668" d="m391.97 153.873-4.841 1.023a2.603 2.603 0 0 0 3.034 1.945 2.423 2.423 0 0 0 1.533-1.1 2.42 2.42 0 0 0 .274-1.868Z"/><path fill="#F28F8F" d="M388.798 156.74a2.934 2.934 0 0 1 3.236-2.185 2.393 2.393 0 0 1-1.844 2.286 2.522 2.522 0 0 1-1.392-.101Z"/><path fill="#263238" d="m380.436 137.959 3.522-.129a1.706 1.706 0 0 0-.516-1.229 1.694 1.694 0 0 0-1.245-.477 1.847 1.847 0 0 0-1.761 1.835ZM380.15 143.039a1.424 1.424 0 0 0 1.688 1.404 1.423 1.423 0 0 0 1.136-1.093 1.43 1.43 0 0 0-1.34-1.74 1.438 1.438 0 0 0-1.041.404 1.446 1.446 0 0 0-.443 1.025Z"/><path fill="#F28F8F" d="M359.866 227.282a23.438 23.438 0 0 0-9.146-1.032c-3.486.202-6.215-.747-6.713-.572-1.844.655-.682 3.762 3.771 4.26 3.421.387 12.088-2.656 12.088-2.656Z"/><path fill="#FFA8A7" d="M406.196 238.153c-7.901 1.171-31.348 2.157-32.491 2.388-.47.101-2.582.442-3.126.534-1.17.194-2.305.434-3.475.609-.67.114-1.35.163-2.029.147a26.5 26.5 0 0 1-4.711-.922 8.654 8.654 0 0 0-3.79-.221c-1.558.277-3.088.646-4.61.996a6.17 6.17 0 0 1-3.761-.194 12.542 12.542 0 0 1-1.199-.682 6.94 6.94 0 0 0-1.89-.387 2.512 2.512 0 0 1-1.319-.71c-.184-.221-.239-.59-.47-.784a2.296 2.296 0 0 0-1.245-.304 9.054 9.054 0 0 1-1.936-.36c-.839-.286-2.037-.922-1.798-1.954.102-.489.489-.664.922-.922.692-.48 1.429-.922 2.084-1.476 1.512-1.244 3.227-2.231 4.739-3.466a9.213 9.213 0 0 1 4.61-1.844c1.78-.286 3.541-.719 5.339-.922 1.466-.166 2.876-.719 4.37-.36 3.623.867 7.293 2.545 11.064 1.844 5.532-1.051 29.946-7.671 29.946-7.671l5.892-22.192s4.112-19.87 10.363-25.724c4.518 1.705 8.602 5.135 9.939 9.755 1.586 5.449-.064 10.197-3.171 23.409-2.361 10.013-2.858 10.926-5.532 20.33-2.25 7.745-3.043 9.654-12.715 11.083Z"/><path fill="#7F3A6A" d="M417.334 172.995c4.721 2.176 9.902 5.117 11.156 12.733 1.254 7.615-5.937 30.804-5.937 30.804a28.87 28.87 0 0 1-10.871-1.374c-6.454-1.936-7.874-4.877-7.874-4.877s2.185-10.059 3.439-14.752c1.254-4.693 3.799-16.781 10.087-22.534Z"/><path fill="#37474F" d="M337.941 268.201a3.7 3.7 0 0 1-3.209-.249l-54.776-31.625a3.687 3.687 0 0 1-1.844-2.6l-6.002-35.764a4.434 4.434 0 0 1-.046-.609c0-.993.395-1.944 1.097-2.646l56.924 32.869a2.765 2.765 0 0 1 1.337 1.927l6.519 38.697Z"/><path fill="#455A64" d="m338.826 267.74-.369.212c-.168.092-.34.175-.516.249l-6.454-38.724a2.766 2.766 0 0 0-1.337-1.927l-56.925-32.87a3.71 3.71 0 0 1 .766-.581l57.007 32.962a2.775 2.775 0 0 1 1.337 1.927l6.491 38.752Z"/><path fill="#263238" d="m330.933 228.306.922-.507c.266.348.443.757.517 1.189l6.454 38.724-.369.212c-.168.092-.34.175-.516.249l-6.454-38.724a2.692 2.692 0 0 0-.554-1.143Z"/><path fill="#7F3A6A" d="M307.091 235.193c-.397-2.397-2.868-5.578-5.532-7.109-2.665-1.53-4.472-.82-4.076 1.568.397 2.388 2.877 5.532 5.532 7.108 2.656 1.577 4.481.821 4.076-1.567Z"/><path fill="#263238" d="m93.555 370.321 3.126-1.493-3.07-.867-.056 2.36Z"/><path fill="#263238" d="M124.47 376.176s-36.723-16.596-37.203-14.19a3.601 3.601 0 0 0 0 1.476l-.101-.139.654 4.61a11.065 11.065 0 0 0 5.726 2.416c0-.221 0-1.586.055-2.36a18.793 18.793 0 0 1 3.209 1.733c2.351 1.558 3.854 4.269 6.343 7.431 1.844 2.296 5.062 3.384 9.893 4.094 5.191.765 9.774-.194 11.064-1.558 1.079-1.125.581-3.153.36-3.513Z"/><path fill="#B16668" d="M123.493 375.355c-.351-.368-1.66-1.844-3.421-3.374-1.549-1.374-3.356-3.107-5.292-4.518a20.966 20.966 0 0 1-2.628-2.167 26.559 26.559 0 0 1-1.844-2.148 39.1 39.1 0 0 1-4.407-7.477 17.095 17.095 0 0 1-1.521-3.928 24.626 24.626 0 0 1-.406-4.352c0-6.574.147-7.616.212-12.613l-15.591.406c.498 2.766 1.245 6.564 1.494 9.718.378 4.794.498 5.854-1.42 10.621-.572 1.402-1.41 2.766-1.494 4.26-.129 2.452 1.844 4.61 3.974 5.79 1.844 1.005 3.872 1.448 5.624 2.517a18.016 18.016 0 0 1 4.555 4.49c1.235 1.568 2.213 3.43 3.955 4.546a16.372 16.372 0 0 0 5.993 2.093c2.66.485 5.37.636 8.068.451 3.854-.267 6.712-1.65 4.149-4.315Z"/><path fill="#37474F" d="M121.4 372.672c-1.577-1.336-3.817-3.236-6.528-5.384a6.985 6.985 0 0 0-5.716.479c-5.532 2.766-6.454 6.832-6.454 6.832a7.797 7.797 0 0 0 4.444 3.891c6.306 2.766 17.647 1.983 17.776-.922.074-1.807-1.605-3.236-3.522-4.896Zm-32.353-18.181a30.71 30.71 0 0 1-1.346 2.766 5.124 5.124 0 0 0 0 5.532 8.437 8.437 0 0 0 5.532 3.761c1.797-5.412-1.955-10.87-4.186-12.059Z"/><path fill="#263238" d="M59.054 359.405c1.014 1.65-.267 7.855 0 12.272.221 4.02 1.31 11.018.11 14.982-1.428 4.693-4.351 10.142-9.837 5.707-3.402-2.766-5.357-6.278-5.846-12.059-.34-4.02 1.227-9.571 2.564-14.485 1.567-5.753 2.166-8.824 2.166-8.824l10.843 2.407Z"/><path fill="#B16668" d="M48.036 329.698c-.396 9.368.71 15.951.775 21.953a41.591 41.591 0 0 1-.867 8.104c-.802 3.827-2.167 9.146-2.766 11.627-.793 3.466-1.401 5.651-.184 9.542.1.322.236.631.405.922 1.697 3.209 6.03 5.625 7.376 5.237a2.419 2.419 0 0 0 2.444.839c.157-.02.311-.057.46-.11.158-.051.312-.113.462-.185a4.613 4.613 0 0 0 2.305-2.941c.09-.278.165-.561.22-.848.625-3.278.78-6.627.462-9.949 0-2.6 0-5.126.221-8.639.221-3.513.765-14.272 2.01-19.546a4342.84 4342.84 0 0 0 3.292-13.231l-16.615-2.775Z"/><path fill="#37474F" d="M44.367 375.899c3.411-1.484 13.323-1.687 14.9 3.052 0 4.454.073 7.478-2.767 11.359-3.817 5.154-8.786-.313-10.695-3.78-1.909-3.467-1.909-8.233-1.438-10.631Z"/><path fill="#455A64" d="M60.963 207.312c-4.832 8.501-8.723 15.674-9.976 38.097-1.42 25.327-1.208 34.971-1.337 38.032-.13 3.061-2.13 8.658-3.836 23.714s.092 51.54.092 51.54 1.208 2.462 7.072 3.015c5.412.516 8.584-1.346 8.584-1.346s8.602-47.944 10.714-56.971c2.111-9.026 8.298-38.844 8.298-38.844l2.037 28.426s-1.715 8.298-.157 21.528c1.559 13.231 5.533 38.208 5.533 38.208s2.305 2.287 9.376 2.148c7.524-.147 9.091-2.194 9.091-2.194s1.687-53.743 1.844-68.717c.157-14.973.996-53.854-3.688-76.055l-43.647-.581Z"/><path fill="#37474F" d="m85.635 235.792-5.052 28.757 2.037 28.426v-28.739l4.5-23.594c3.688-.839 12.078-5.108 14.429-11.276-5.716 5.744-15.914 6.426-15.914 6.426ZM68.57 218.837a178.86 178.86 0 0 1 2.158-7.229 35.193 35.193 0 0 0-3.356 6.851 66.864 66.864 0 0 0-2.269 7.265 76.08 76.08 0 0 0-1.447 7.459 47.144 47.144 0 0 0-.563 7.57c.627-2.462 1.218-4.905 1.844-7.376.627-2.471 1.162-4.878 1.79-7.303.626-2.424 1.189-4.794 1.843-7.237Zm-3.688-1.844c.84-1.466 1.687-2.941 2.462-4.5a28.131 28.131 0 0 0-3.522 3.817 38.47 38.47 0 0 0-2.868 4.306 32.9 32.9 0 0 0-2.185 4.693 19.545 19.545 0 0 0-1.217 5.016l2.379-4.518c.802-1.475 1.604-2.96 2.443-4.416.84-1.457 1.688-2.877 2.517-4.398h-.009Zm-3.77 96.118a936.098 936.098 0 0 0-4.15 23.41 915.54 915.54 0 0 0 5.394-23.161c1.724-7.745 3.337-15.471 4.951-23.271 1.614-7.8 2.545-15.674 3.384-23.566.839-7.893 1.493-15.785 2.037-23.687-1.17 7.837-2.222 15.674-3.291 23.539-1.07 7.865-2.195 15.674-3.688 23.419-1.494 7.745-3.172 15.536-4.638 23.317Zm40.309-38.595c.138 3.43.323 6.888.24 10.281-.083 3.393.064 9.957-.139 13.396 0 0-.202 20.238.406 27.909.922-6.85 1.06-34.326 1.355-41.269 0-6.979-.525-13.83-1.097-20.726a307.199 307.199 0 0 0-2.425-20.579l1.162 20.662c.194 3.439.397 6.878.498 10.326Z"/><path fill="#263238" d="M64.466 122.239c-.064.322-1.032.922-1.3 1.263a12.22 12.22 0 0 0-1.549 1.955 10.286 10.286 0 0 0-1.346 4.988 15.598 15.598 0 0 0 2.158 7.661 46.378 46.378 0 0 0 4.656 6.547l4.333 5.403a2.067 2.067 0 0 0 2.462.995c2.259-.341 4.518-.719 6.758-1.134a32.475 32.475 0 0 0 6.122-1.567 17.515 17.515 0 0 0 8.05-6.565c.921-1.328 2.083-3.208 2.249-4.84.074-.738-.277-1.374-.092-2.139a16.4 16.4 0 0 1 1.41-2.665 13.517 13.517 0 0 0 1.402-6.749c-.443-4.794-3.402-11.009-12.198-12.788-7.367-1.485-21.335.111-23.115 9.635Z"/><path fill="#B16668" d="M174.562 170.109a4.445 4.445 0 0 0-2.581-.489 29.373 29.373 0 0 0-4.149.996c-2.121.489-5.532 1.291-7.653.618-.433-.138-1.281-.544-.544-.922.99-.426 1.94-.938 2.84-1.531a3.77 3.77 0 0 0 1.669-2.618 1.265 1.265 0 0 0-.222-.922c-.285-.36-.58-.258-.922-.129a9.568 9.568 0 0 1-1.115.304l-2.324.59c-4.499 1.171-9.109 2.766-12.484 6.012-.488.479-1.585 2.028-6.601 4.923-4.804 2.766-17.131 9.709-17.131 9.709s-9.017-11.47-12.161-15.49c-5.532-7.145-7.182-9.165-14.816-10.483l2.286 23.852s11.875 13.701 16.043 16.946c5.707 4.472 7.256 4.03 11.866 1.282 6.039-3.577 8.464-5.836 13.268-9.911 5.836-4.952 7.901-6.62 9.819-8.013 1.918-1.392 4.831-1.42 6.26-1.466 1.98-.005 3.95-.281 5.855-.82a20.032 20.032 0 0 0 4.822-1.844 6.194 6.194 0 0 0 2.056-1.411c.27-.633.578-1.248.922-1.844.516-.627 1.319-.996 1.761-1.669a7.441 7.441 0 0 0 .618-1.788c.313-.922 1.079-1.356 1.936-1.789a3.103 3.103 0 0 0 1.143-.775c.434-.571.056-1.014-.461-1.318Z"/><path fill="#9A4A4D" d="M123.354 186.659c-4.287 2.471-6.066 5.845-6.232 8.851-1.734-6.62 5.181-10.197 5.181-10.197l1.051 1.346ZM157.238 172.414a14.159 14.159 0 0 1-6.408 4.61 6.02 6.02 0 0 0 4.048-.821 5.373 5.373 0 0 0 2.36-3.789Z"/><path fill="#7F3A6A" d="M56.187 218.901c-2.822-2.286.636-3.245 1.64-17.158.268-3.587-2.064-14.678-2.064-14.678s5.292-7.754 3.153-25.07l11.156-2.683 16.707-.249 9.607 1.614a62.845 62.845 0 0 1 8.888 10.492c4.61 6.759 4.232 15.444-.793 20.819-.17 4.15-.093 8.306.231 12.447.627 5.781 3.844 11.405.488 14.263-9.828 8.335-35.709 8.916-49.013.203Z"/><path fill="#fff" d="M56.187 218.901c-2.822-2.286.636-3.245 1.64-17.158.268-3.587-2.064-14.678-2.064-14.678s5.292-7.754 3.153-25.07l11.156-2.683 16.707-.249 9.607 1.614a62.845 62.845 0 0 1 8.888 10.492c4.61 6.759 4.232 15.444-.793 20.819-.17 4.15-.093 8.306.231 12.447.627 5.781 3.844 11.405.488 14.263-9.828 8.335-35.709 8.916-49.013.203Z" opacity=".6"/><path fill="#B16668" d="M67.998 146.838a5.54 5.54 0 0 1-4.933-1.844c-2.6-2.766-2.84-5.661-1.632-7.561.996-1.567 3.439-2.563 5.163-1.512 1.724 1.051 1.9 2.066 2.554 3.301.655 1.235 2.48.277 1.844-4.85 3.559-1.65 2.987-7.523 4.914-9.92 3.015-3.753 7.985-2.766 9.608-1.9a6.594 6.594 0 0 1 6.767-.433c2.406 1.263 4.001 3.918 4.85 13.037.866 9.294 0 14.07-2.766 16.596a11.434 11.434 0 0 1-7.837 2.95l.129 4.325s9.515 9.026-2.766 8.141a19.284 19.284 0 0 1-13.821-7.662v-14.125s-.249 1.125-2.075 1.457Z"/><path fill="#9A4A4D" d="M88.134 145.187a2.766 2.766 0 0 1-3.218 2.112 2.676 2.676 0 0 1-1.732-1.128 2.694 2.694 0 0 1-.416-2.025l5.366 1.041Z"/><path fill="#F28F8F" d="M82.75 145.021a2.693 2.693 0 0 0 2.166 2.278c.32.055.648.055.968 0a2.767 2.767 0 0 0-3.135-2.278Z"/><path fill="#263238" d="m94.57 129.366-3.54-1.153a1.847 1.847 0 0 1 2.304-1.198 1.905 1.905 0 0 1 1.236 2.351ZM81.496 128.342l-3.513 1.844a1.837 1.837 0 0 1-.221-1.48 1.846 1.846 0 0 1 .95-1.157 2.123 2.123 0 0 1 2.784.793ZM80.048 134.981a1.457 1.457 0 1 0 .891-1.346 1.448 1.448 0 0 0-.89 1.346ZM93.187 135.995a1.457 1.457 0 1 0 0-2.913 1.457 1.457 0 0 0 0 2.913Z"/><path fill="#37474F" d="m99.032 130.325-.7-.056a21.455 21.455 0 0 0-6.943.526c-2.176.738-2.914 1.494-4.14 1.558-1.226.065-2.204-.636-4.61-1.171a24.547 24.547 0 0 0-7.46.111l-.737.11a1.102 1.102 0 0 0-.746 1.217c.127.517.406.982.802 1.337.125.164.221.348.285.544.281 1.276.67 2.525 1.162 3.734.271.495.623.941 1.042 1.319.164.136.337.262.516.378l.295.166c.273.144.56.259.858.341h.147l.222.055.24.046c.246.041.496.065.746.074h.71c3.052-.129 4.241-1.567 4.896-3.033.655-1.466.332-3.485 1.742-3.541h.259c1.06.185 1.06 2.047 1.844 3.356.288.526.659 1.002 1.097 1.411l.249.221.138.102.138.092.13.083.138.083.101.055h.083c.394.196.813.336 1.245.415h.11c.497.078 1.001.103 1.503.074a4.145 4.145 0 0 0 4.13-2.812c.318-1.252.525-2.529.619-3.817.033-.186.112-.36.23-.507.329-.404.523-.901.553-1.42a1.191 1.191 0 0 0-.894-1.051Zm-14.291 5.983a4.043 4.043 0 0 1-.922 2.047 4.281 4.281 0 0 1-3.255 1.282 3.892 3.892 0 0 1-3.31-1.337l-.11-.138-.102-.139-.083-.129-.073-.12a.241.241 0 0 1-.056-.092l-.055-.083c-.02-.051-.046-.1-.074-.147-.074-.139-.129-.277-.184-.406 0-.083-.065-.166-.092-.24-.028-.073-.093-.285-.13-.405v-.074a.224.224 0 0 1 0-.074c-.304-.986-.719-2.941-.22-3.411.497-.47 1.843-.987 4.139-.922h.24c.352.025.703.068 1.05.129l.416.074c.348.071.693.16 1.032.267l.314.111.35.138h.065l.129.055c.272.114.517.284.719.498.443.692.387 1.992.212 3.116Zm13.23-1.004a4.131 4.131 0 0 1-1.926 3.3c-.52.26-1.089.405-1.67.424a3.886 3.886 0 0 1-3.503-1.346l-.064-.083-.083-.11v-.056l-.092-.147a1.842 1.842 0 0 1-.102-.185l-.055-.083v-.184c-.11-.238-.2-.484-.267-.738-.314-1.106-.526-2.397-.139-3.024.387-.627 2.02-1.383 3.624-1.65.368-.055.719-.092 1.041-.12h1.208c.18.014.358.039.535.074h.489l.249.083c.209.073.405.178.58.313.48.544.332 2.527.176 3.532Z"/><path fill="#9A4A4D" d="m92.338 140.504-5.19 2.212-1.116-6.555c.193-.977.387-1.982 1.235-2.065l5.071 6.408Z"/><path fill="#37474F" d="m74.599 132.169-8.003 3.761c.441.287.855.615 1.236.978l6.98-3.107-.213-1.632Z"/><path fill="#9A4A4D" d="M86.668 154.739c-4.794-.175-11.23-1.844-12.908-4.886.922 3.273 4.343 4.969 7.035 5.716 1.92.538 3.892.871 5.882.996l-.009-1.826ZM87.018 184.4c3.061-2.028 4.61-2.766 5.984-3.126 1.374-.359 6.325-2.083 8.197-2.452 1.189-.231 1.586 1.623 0 2.821-1.199.922-4.25 2.066-5.597 2.711-1.346.645-4.075 3.614-4.075 3.614l-4.509-3.568Z"/><path fill="#B16668" d="M45.408 171.28c3.2-6.011 8.492-7.957 13.508-9.285 2.545 6.501.369 20.165.369 20.165l-3.891 14.871s17.444-1.696 19.5-2.858c2.056-1.161 7.68-6.592 9.552-8.215 2.554-2.203 3.752-1.844 4.997-1.595 4.048.784 4.933 1.162 5.772 1.734a1.842 1.842 0 0 1 .72 1.595c1.078.184 2.7.221 2.83 1.973.068.464.068.936 0 1.401.27.063.51.215.682.433.857 1.061-.848 4.546-1.844 5.366a3.574 3.574 0 0 1-2.978.378c-1.097-.193-.535-1.272-.535-1.272h-1.54c-3.42 2.167-3.789 6.74-8.224 7.561-1.82.092-3.63.351-5.403.774-9.598 2.72-25.447 11.442-33.939 11.811-8.242.332-7.818-3.956-7.726-8.897.083-4.38 4.951-29.956 8.15-35.94Z"/><path fill="#9A4A4D" d="m55.818 195.363-.424 1.668c-3.78.784-8.39 5.431-9.377 7.376.839-3.125 3.144-7.615 9.8-9.044ZM95.934 187.692l-4.803-1.171 4.73.507c.064.215.09.44.073.664ZM98.774 191.066l-5.532-.922 5.532.323c.02.199.02.4 0 .599ZM93.647 195.16c.344-.261.604-.617.747-1.024.648.033 1.298.033 1.946 0 .256-.043.509-.104.756-.184.31-.088.594-.249.83-.47a1.73 1.73 0 0 1-.775.608c-.27.122-.555.206-.848.249l-.35.664c.206.026.4.109.562.24.223.194.384.451.461.737a1.773 1.773 0 0 0-.544-.617 1.12 1.12 0 0 0-.738-.166 2.383 2.383 0 0 0-1.622.82h-1.54c.39-.261.763-.547 1.115-.857Z"/></svg>